{"glyphs":{"0":{"ha":815,"x_min":102,"x_max":741,"o":"m 699 403 q 676 307 691 356 q 640 211 662 258 q 589 124 618 165 q 522 53 559 83 q 439 4 485 22 q 338 -14 393 -14 q 242 5 282 -14 q 174 56 201 24 q 131 130 146 87 q 109 218 115 172 q 103 312 102 264 q 112 403 105 359 l 143 585 q 166 681 151 631 q 203 776 181 730 q 254 863 225 822 q 321 935 283 905 q 405 984 359 966 q 506 1002 450 1002 q 602 983 562 1002 q 670 932 643 964 q 713 858 697 900 q 735 769 728 816 q 740 675 741 723 q 731 585 738 628 l 699 403 m 149 404 q 140 333 142 368 q 137 260 137 297 l 701 756 q 684 837 697 799 q 646 903 670 875 q 587 948 622 932 q 506 965 553 965 q 415 948 456 965 q 340 904 374 932 q 280 838 307 876 q 234 758 254 800 q 201 671 215 715 q 180 585 188 627 l 149 404 m 694 585 q 703 651 700 618 q 707 718 705 684 l 143 222 q 163 145 149 181 q 201 81 177 109 q 259 39 224 54 q 338 23 293 23 q 429 40 387 23 q 504 85 470 56 q 563 151 537 113 q 609 231 589 189 q 642 318 629 273 q 663 404 655 362 l 694 585 z "},"1":{"ha":815,"x_min":221,"x_max":568,"o":"m 398 0 l 361 0 l 524 938 l 221 806 l 227 846 l 553 987 l 568 987 l 398 0 z "},"2":{"ha":815,"x_min":35,"x_max":680,"o":"m 608 0 l 35 0 l 39 37 l 409 410 q 479 480 443 444 q 547 557 515 517 q 602 642 578 597 q 634 736 626 686 q 632 827 642 785 q 595 900 621 869 q 529 947 569 930 q 439 964 490 964 q 338 943 385 964 q 255 887 292 922 q 194 806 219 852 q 157 709 169 760 l 121 709 q 160 820 132 767 q 230 912 189 872 q 324 977 271 953 q 439 1001 377 1000 q 544 981 497 1001 q 622 926 591 962 q 667 842 653 890 q 671 736 680 793 q 636 630 663 680 q 574 535 610 580 q 497 449 538 490 q 418 370 456 408 l 89 37 l 612 37 l 608 0 z "},"3":{"ha":815,"x_min":36,"x_max":707,"o":"m 292 522 l 363 522 q 460 538 412 524 q 550 579 509 552 q 621 645 591 606 q 661 736 650 684 q 660 827 670 785 q 624 899 650 869 q 558 947 598 930 q 469 964 519 964 q 369 946 416 964 q 283 897 321 928 q 218 822 245 865 q 178 729 191 779 l 142 729 q 184 837 155 787 q 257 923 214 886 q 354 980 300 960 q 469 1001 408 1001 q 572 980 526 1001 q 650 924 618 960 q 694 839 681 888 q 697 733 707 790 q 669 652 690 688 q 617 587 648 615 q 549 537 587 558 q 470 504 511 517 q 547 469 513 492 q 604 416 581 447 q 635 347 626 386 q 636 262 644 308 q 596 151 627 201 q 522 64 566 100 q 422 7 477 27 q 306 -14 366 -14 q 192 8 243 -14 q 105 68 140 30 q 53 159 70 106 q 42 275 36 212 l 79 275 q 86 174 73 220 q 131 95 100 128 q 206 42 161 61 q 305 23 250 23 q 408 40 359 23 q 495 88 456 57 q 562 162 534 119 q 599 259 589 205 q 593 360 610 318 q 543 429 577 402 q 461 470 509 456 q 362 484 414 483 l 286 484 l 292 522 z "},"4":{"ha":815,"x_min":38,"x_max":709,"o":"m 545 306 l 709 306 l 705 269 l 538 269 l 492 0 l 455 0 l 501 269 l 38 270 l 41 290 l 617 987 l 661 987 l 545 306 m 101 306 l 507 306 l 618 938 l 548 848 l 101 306 z "},"5":{"ha":815,"x_min":125,"x_max":798,"o":"m 204 517 l 330 987 l 798 987 l 792 951 l 357 951 l 247 555 q 347 604 294 587 q 458 621 401 621 q 570 595 522 621 q 648 527 618 570 q 689 430 678 485 q 691 315 701 374 q 655 193 681 252 q 589 88 629 134 q 492 14 548 42 q 368 -14 437 -14 q 261 8 307 -14 q 185 66 216 29 q 140 153 155 103 q 127 260 125 203 l 163 260 q 173 166 161 210 q 210 92 184 123 q 275 41 235 60 q 367 23 314 23 q 477 48 429 23 q 562 113 526 73 q 621 205 598 153 q 654 313 644 258 q 655 414 663 365 q 623 500 647 463 q 557 561 598 538 q 458 585 515 584 q 338 564 395 585 q 231 507 282 543 l 204 517 z "},"6":{"ha":815,"x_min":83,"x_max":683,"o":"m 665 1001 l 661 964 l 649 964 q 522 945 581 963 q 413 895 463 926 q 322 819 363 863 q 249 724 281 776 q 192 614 216 673 q 152 496 168 556 q 210 558 178 530 q 280 607 243 587 q 359 638 318 627 q 444 649 401 649 q 558 621 511 649 q 635 546 606 592 q 673 443 663 500 q 674 326 683 385 q 654 245 668 286 q 620 166 641 204 q 572 96 600 129 q 510 39 544 64 q 437 1 477 15 q 353 -14 398 -14 q 228 16 281 -14 q 142 95 175 45 q 96 206 109 144 q 92 334 83 269 l 110 448 q 144 586 121 518 q 202 716 168 654 q 281 829 236 777 q 383 919 327 881 q 507 978 439 956 q 651 1001 574 1000 l 665 1001 m 440 612 q 350 598 397 612 q 261 558 302 584 q 187 496 219 532 q 142 416 155 460 l 129 334 q 130 221 121 277 q 168 120 140 165 q 241 49 195 76 q 353 22 288 22 q 460 51 412 23 q 545 122 509 79 q 605 219 582 165 q 637 326 629 273 q 639 429 646 378 q 607 521 631 480 q 541 587 583 562 q 440 612 500 612 z "},"7":{"ha":815,"x_min":176,"x_max":793,"o":"m 790 964 l 219 0 l 181 0 l 745 951 l 176 951 l 180 987 l 793 987 l 790 964 z "},"8":{"ha":815,"x_min":80,"x_max":766,"o":"m 757 736 q 729 655 749 692 q 679 590 708 618 q 612 539 649 561 q 534 505 575 518 q 609 467 576 491 q 666 412 643 444 q 698 341 688 380 q 701 257 708 302 q 658 144 691 194 q 578 59 625 94 q 472 5 530 24 q 353 -14 414 -14 q 241 5 294 -14 q 152 59 189 24 q 97 144 115 94 q 90 257 80 194 q 121 346 98 306 q 177 417 144 386 q 253 470 211 448 q 340 506 294 492 q 274 543 303 520 q 227 595 245 566 q 201 661 208 625 q 200 736 194 696 q 238 843 209 795 q 310 927 267 892 q 407 982 353 962 q 519 1001 460 1001 q 623 981 575 1001 q 704 926 671 962 q 751 843 736 891 q 757 736 766 794 m 663 254 q 658 350 673 307 q 610 424 642 393 q 533 471 578 454 q 438 487 488 487 q 334 471 386 487 q 240 424 283 454 q 167 350 197 393 q 126 254 136 307 q 131 156 116 199 q 178 84 146 113 q 256 39 211 54 q 352 23 302 23 q 456 39 405 23 q 550 84 507 54 q 623 156 593 113 q 663 254 653 199 m 720 740 q 716 829 729 788 q 675 900 704 870 q 607 947 647 930 q 519 964 566 964 q 423 948 470 964 q 338 902 376 931 q 273 831 300 872 q 237 740 246 789 q 241 651 228 691 q 282 583 254 612 q 351 539 310 555 q 437 524 391 524 q 532 539 486 524 q 618 583 579 554 q 684 651 656 611 q 720 740 711 691 z "},"9":{"ha":815,"x_min":136,"x_max":731,"o":"m 195 23 q 321 42 263 24 q 428 91 379 60 q 515 164 476 121 q 584 258 554 207 q 636 367 614 309 q 670 486 657 425 l 673 498 q 616 426 648 459 q 546 368 584 393 q 464 331 507 344 q 372 317 420 317 q 259 348 307 318 q 184 426 212 378 q 145 533 155 474 q 144 650 136 592 q 164 733 150 691 q 201 814 179 776 q 251 887 222 853 q 315 946 280 921 q 391 986 351 971 q 478 1001 432 1000 q 574 986 532 1002 q 645 942 615 970 q 693 876 675 913 q 721 794 711 838 q 731 704 730 751 q 725 612 731 657 l 708 502 q 650 306 691 399 q 545 143 610 214 q 393 30 481 73 q 193 -14 305 -12 l 170 -14 l 175 23 l 195 23 m 372 354 q 467 371 418 354 q 559 417 516 387 q 635 486 602 446 q 682 572 667 526 l 688 612 q 694 692 694 650 q 688 772 695 733 q 667 847 682 812 q 627 908 652 882 q 566 950 602 935 q 481 964 530 965 q 369 935 420 964 q 279 861 317 906 q 215 760 240 816 q 180 650 189 705 q 179 548 172 600 q 210 453 186 496 q 273 382 233 410 q 372 354 313 355 z "},"\u0000":{"ha":0,"x_min":0,"x_max":0,"o":""},"\r":{"ha":815,"x_min":0,"x_max":0,"o":""}," ":{"ha":815,"x_min":0,"x_max":0,"o":""},"\"":{"ha":815,"x_min":351,"x_max":603,"o":"m 422 941 l 387 761 l 351 761 l 385 946 l 398 1042 l 439 1042 l 422 941 m 586 941 l 551 761 l 515 761 l 549 946 l 563 1042 l 603 1042 l 586 941 z "},"#":{"ha":815,"x_min":18,"x_max":826,"o":"m 471 278 l 235 278 l 138 0 l 99 0 l 195 278 l 18 278 l 23 313 l 208 313 l 332 669 l 136 669 l 141 705 l 345 705 l 443 987 l 481 987 l 383 705 l 621 705 l 720 987 l 758 987 l 661 705 l 826 705 l 821 669 l 648 669 l 523 313 l 709 313 l 704 278 l 511 278 l 413 0 l 375 0 l 471 278 m 247 313 l 483 313 l 608 669 l 371 669 l 247 313 z "},"$":{"ha":815,"x_min":100,"x_max":751,"o":"m 640 233 q 635 323 650 285 q 590 390 620 361 q 520 439 560 418 q 439 476 480 460 q 347 518 392 495 q 270 574 302 542 q 220 650 237 607 q 213 753 204 694 q 247 852 221 808 q 312 927 273 896 q 399 978 351 959 q 501 1001 448 997 l 522 1128 l 560 1128 l 539 1001 q 641 970 599 996 q 708 906 683 945 q 742 816 732 867 q 746 710 751 766 l 709 710 q 706 805 715 760 q 674 887 698 851 q 612 944 651 922 q 518 966 573 966 q 426 950 471 966 q 345 907 382 935 q 283 841 309 880 q 250 754 258 802 q 248 690 243 719 q 266 638 252 662 q 299 596 279 615 q 343 563 319 578 q 395 535 368 547 q 450 511 422 522 q 542 469 498 493 q 620 413 587 446 q 669 336 652 380 q 677 235 686 292 q 643 136 669 180 q 579 61 617 93 q 492 11 541 30 q 392 -13 444 -7 l 371 -141 l 333 -141 l 354 -14 q 242 12 290 -11 q 161 72 193 34 q 115 162 129 111 q 106 277 100 214 l 143 277 q 150 174 137 221 q 192 93 163 127 q 267 40 222 59 q 369 22 311 21 q 460 38 416 22 q 543 81 505 53 q 606 147 580 109 q 640 233 631 186 z "},"%":{"ha":815,"x_min":83,"x_max":754,"o":"m 96 798 q 118 869 102 833 q 158 934 134 905 q 214 983 182 964 q 287 1002 247 1002 q 354 982 328 1002 q 394 932 380 962 q 413 866 409 903 q 412 798 417 830 l 404 745 q 382 675 397 711 q 342 609 366 639 q 287 561 319 580 q 215 543 254 543 q 148 562 174 543 q 106 611 121 581 q 87 676 91 640 q 87 745 83 712 l 96 798 m 124 745 q 121 691 120 720 q 133 637 123 662 q 162 596 142 612 q 215 580 182 580 q 273 595 248 580 q 317 635 298 611 q 349 688 336 659 q 366 745 361 718 l 376 798 q 379 852 380 823 q 368 906 378 881 q 339 947 359 930 q 287 964 319 964 q 229 949 254 964 q 183 909 203 933 q 152 855 164 884 q 134 798 140 825 l 124 745 m 433 242 q 455 313 439 277 q 494 378 471 349 q 550 427 518 408 q 623 446 583 446 q 690 426 663 446 q 731 377 716 407 q 750 311 746 347 q 749 242 754 275 l 741 189 q 719 118 734 155 q 679 53 703 82 q 623 5 655 24 q 551 -14 591 -14 q 484 5 511 -14 q 443 54 457 24 q 424 120 428 84 q 424 189 419 156 l 433 242 m 460 189 q 458 135 456 163 q 469 81 459 106 q 498 40 479 56 q 551 23 518 23 q 609 39 583 23 q 654 78 635 54 q 685 132 673 102 q 703 189 697 161 l 713 242 q 716 297 717 268 q 705 351 715 326 q 675 392 695 375 q 623 408 656 408 q 564 393 590 408 q 519 354 538 378 q 489 300 500 330 q 471 242 477 271 l 460 189 m 155 90 l 127 111 l 669 881 l 696 859 l 155 90 z "},"&":{"ha":815,"x_min":73,"x_max":742,"o":"m 318 545 q 289 603 302 573 q 266 663 275 632 q 253 726 256 694 q 255 791 250 758 q 279 871 261 833 q 326 938 298 909 q 392 984 355 967 q 473 1002 429 1002 q 540 987 511 1002 q 589 948 570 972 q 617 890 608 923 q 620 823 625 858 q 600 763 615 791 q 565 710 585 734 q 520 663 545 685 q 472 623 496 642 l 363 538 l 593 178 q 663 297 635 235 q 705 429 690 360 l 742 429 q 698 278 729 349 q 616 146 667 208 l 711 0 l 669 0 l 593 118 q 531 68 564 92 q 464 26 499 45 q 392 -3 429 8 q 313 -14 354 -14 q 213 5 259 -14 q 135 57 167 23 q 88 136 102 90 q 81 239 73 182 q 107 321 87 282 q 154 395 127 361 q 215 460 182 430 q 281 517 248 491 l 318 545 m 313 23 q 387 33 351 23 q 454 59 422 42 q 515 99 486 76 q 571 149 545 122 l 352 492 l 336 517 l 302 490 q 242 439 272 467 q 186 380 212 412 q 142 313 161 349 q 118 239 124 278 q 122 152 110 191 q 161 83 134 112 q 228 39 189 55 q 313 23 267 23 m 292 793 q 289 733 287 763 q 299 675 291 704 q 318 620 307 647 q 345 567 330 593 l 454 651 q 496 686 475 667 q 534 726 517 705 q 564 771 551 747 q 582 823 576 795 q 581 876 587 850 q 562 921 576 901 q 525 952 547 941 q 474 965 503 964 q 407 951 438 965 q 353 912 376 937 q 314 857 330 888 q 292 793 298 826 z "},"'":{"ha":815,"x_min":409,"x_max":496,"o":"m 478 924 l 443 761 l 409 761 l 441 929 l 458 1042 l 496 1042 l 478 924 z "},"(":{"ha":815,"x_min":244,"x_max":656,"o":"m 265 397 q 292 529 275 462 q 331 662 308 596 q 385 792 354 728 q 454 912 415 855 q 541 1017 493 968 q 647 1101 589 1065 l 656 1070 q 516 939 576 1016 q 414 773 456 862 q 345 588 372 684 q 302 400 317 492 l 300 382 q 286 269 292 329 q 281 146 281 208 q 290 22 282 84 q 317 -96 298 -39 q 367 -203 336 -153 q 444 -290 398 -252 l 428 -318 q 343 -227 378 -279 q 288 -117 309 -176 q 257 6 267 -58 q 246 135 248 70 q 249 263 244 199 q 263 384 254 326 l 265 397 z "},")":{"ha":815,"x_min":131,"x_max":543,"o":"m 522 384 q 478 185 507 287 q 404 -11 450 83 q 293 -184 358 -104 q 140 -319 229 -264 l 131 -288 q 271 -157 211 -234 q 373 9 331 -80 q 443 195 416 99 q 485 382 470 291 l 488 400 q 501 514 496 454 q 506 636 507 574 q 497 760 505 698 q 470 878 489 821 q 420 985 452 935 q 343 1072 389 1034 l 359 1100 q 443 1009 409 1061 q 498 899 477 958 q 529 775 519 840 q 541 646 539 711 q 537 518 543 581 q 524 397 532 454 l 522 384 z "},"*":{"ha":815,"x_min":194,"x_max":770,"o":"m 441 691 l 194 774 l 211 810 l 457 720 l 500 987 l 541 987 l 494 721 l 759 817 l 770 780 l 496 686 l 648 471 l 614 450 l 467 668 l 263 449 l 233 471 l 441 691 z "},"+":{"ha":815,"x_min":84,"x_max":747,"o":"m 431 476 l 747 476 l 742 440 l 425 440 l 366 99 l 329 99 l 388 440 l 84 440 l 90 476 l 393 476 l 452 818 l 490 818 l 431 476 z "},",":{"ha":815,"x_min":176,"x_max":316,"o":"m 301 18 q 199 -173 281 -92 l 176 -150 q 232 -72 209 -113 q 264 17 254 -32 l 279 108 l 316 108 l 301 18 z "},"-":{"ha":816,"x_min":163,"x_max":641,"o":"m 636 433 l 163 433 l 168 470 l 641 470 l 636 433 z "},".":{"ha":815,"x_min":320,"x_max":403,"o":"m 323 37 q 328 51 323 43 q 338 63 332 58 q 352 73 345 69 q 367 76 359 76 q 382 72 375 76 q 393 62 389 68 q 400 49 398 56 q 401 34 403 41 q 385 8 399 20 q 356 -4 371 -4 q 330 9 340 -3 q 323 37 320 22 z "},"/":{"ha":815,"x_min":116,"x_max":741,"o":"m 157 -84 l 116 -84 l 701 987 l 741 987 l 157 -84 z "},":":{"ha":815,"x_min":358,"x_max":544,"o":"m 361 37 q 366 51 361 43 q 376 63 370 58 q 390 73 382 69 q 405 76 397 76 q 420 72 413 76 q 431 62 427 68 q 438 49 436 56 q 439 34 441 41 q 423 8 437 20 q 394 -4 409 -4 q 368 9 378 -3 q 361 37 358 22 m 464 631 q 469 645 465 637 q 479 657 473 652 q 493 667 486 663 q 508 670 500 670 q 523 666 516 670 q 534 656 530 663 q 542 643 539 650 q 543 628 544 635 q 526 602 540 614 q 497 590 512 590 q 471 603 481 591 q 464 631 461 616 z "},";":{"ha":815,"x_min":277,"x_max":545,"o":"m 465 631 q 470 645 465 637 q 480 657 474 652 q 494 667 486 663 q 509 670 501 670 q 524 666 517 670 q 535 656 530 663 q 542 643 540 650 q 543 628 545 635 q 527 602 541 614 q 498 590 513 590 q 472 603 482 591 q 465 631 462 616 m 402 18 q 300 -173 382 -92 l 277 -150 q 333 -72 310 -113 q 365 17 355 -32 l 380 108 l 417 108 l 402 18 z "},"<":{"ha":815,"x_min":112,"x_max":731,"o":"m 163 450 l 644 218 l 638 178 l 112 435 l 117 469 l 731 724 l 726 686 l 163 450 z "},"=":{"ha":815,"x_min":96,"x_max":736,"o":"m 731 572 l 144 572 l 149 608 l 736 608 l 731 572 m 684 296 l 96 296 l 101 332 l 688 332 l 684 296 z "},">":{"ha":815,"x_min":85,"x_max":704,"o":"m 648 454 l 173 687 l 178 727 l 704 471 l 699 437 l 85 180 l 92 220 l 648 454 z "},"?":{"ha":815,"x_min":224,"x_max":725,"o":"m 351 272 q 404 400 368 345 q 498 502 441 455 q 559 554 530 527 q 613 612 589 582 q 655 678 637 643 q 680 754 673 713 q 680 835 688 797 q 652 902 673 873 q 597 948 631 931 q 518 965 564 965 q 429 949 470 965 q 354 906 387 934 q 298 840 321 878 q 262 758 274 802 l 224 758 q 264 853 237 809 q 329 931 291 898 q 415 982 367 964 q 517 1001 463 1001 q 611 981 570 1001 q 678 927 652 961 q 714 848 704 893 q 717 753 725 803 q 691 668 709 707 q 645 594 672 629 q 585 530 618 560 q 517 473 552 500 q 434 385 466 434 q 388 271 401 335 l 351 272 m 293 35 q 298 48 294 41 q 309 60 302 55 q 322 68 315 65 q 336 71 329 71 q 361 59 351 71 q 370 32 372 47 q 364 19 368 25 q 354 7 360 12 q 340 -1 348 2 q 326 -4 333 -4 q 301 8 311 -3 q 293 35 290 20 z "},"@":{"ha":815,"x_min":28,"x_max":812,"o":"m 791 517 q 777 455 785 490 q 756 383 768 420 q 726 312 743 347 q 687 249 709 277 q 635 205 664 222 q 570 189 606 189 q 523 203 541 189 q 496 237 505 216 q 485 282 487 258 q 486 331 484 307 q 454 284 471 309 q 415 238 436 259 q 368 203 393 217 q 313 189 342 189 q 261 204 281 189 q 230 244 241 220 q 217 300 220 269 q 217 363 215 332 q 224 423 219 394 q 235 471 230 452 q 255 541 243 504 q 285 613 268 577 q 325 682 302 649 q 376 739 348 715 q 438 778 404 764 q 513 791 472 792 q 545 786 530 791 q 573 772 560 781 q 597 753 586 764 q 621 730 609 743 l 620 729 l 528 388 q 522 359 525 376 q 517 325 518 343 q 516 290 515 307 q 523 259 517 273 q 541 236 529 245 q 572 227 552 227 q 625 242 602 227 q 668 282 649 257 q 700 339 686 307 q 725 403 714 370 q 742 465 735 435 q 753 517 749 495 q 768 611 762 561 q 772 710 774 661 q 759 804 770 759 q 722 883 747 848 q 655 938 696 918 q 553 958 614 958 q 431 937 488 958 q 325 879 374 916 q 237 793 277 842 q 167 689 198 745 q 115 574 136 633 q 81 459 94 515 q 67 353 70 406 q 72 252 64 300 q 99 163 79 204 q 151 91 118 121 q 232 44 184 61 q 345 28 279 27 q 443 44 395 28 q 536 82 492 60 l 547 50 q 449 7 502 22 q 342 -9 395 -9 q 218 8 271 -10 q 128 58 165 26 q 69 135 91 90 q 37 231 47 179 q 30 341 28 283 q 45 459 33 399 q 80 587 57 523 q 135 712 102 652 q 210 824 167 772 q 305 914 252 876 q 420 975 357 953 q 555 997 482 997 q 671 976 624 997 q 747 918 718 954 q 791 833 777 882 q 809 732 806 785 q 806 623 812 679 q 791 517 801 568 m 271 471 q 262 434 268 457 q 253 384 257 410 q 249 329 250 357 q 254 278 248 301 q 273 241 259 256 q 312 226 287 227 q 354 235 334 225 q 394 262 375 245 q 429 301 413 279 q 459 346 446 323 q 484 390 473 368 q 502 429 494 412 l 584 714 q 552 742 568 732 q 511 754 535 753 q 446 742 475 755 q 393 707 417 730 q 350 656 369 685 q 315 595 330 627 q 290 531 300 563 q 271 471 279 499 z "},"A":{"ha":815,"x_min":9,"x_max":679,"o":"m 599 295 l 193 295 l 48 0 l 9 0 l 493 987 l 534 987 l 679 0 l 642 0 l 599 295 m 210 332 l 594 332 l 508 935 l 210 332 z "},"B":{"ha":815,"x_min":72,"x_max":746,"o":"m 72 0 l 243 987 l 478 987 q 585 970 534 986 q 673 922 636 954 q 728 843 709 890 q 736 734 746 796 q 712 657 729 692 q 668 596 694 623 q 608 549 642 569 q 535 516 574 530 l 535 511 q 609 477 576 500 q 663 424 642 455 q 694 353 685 392 q 696 272 703 315 q 658 163 688 212 q 584 78 628 114 q 485 22 540 42 q 372 0 431 1 l 72 0 m 193 488 l 114 37 l 372 37 q 471 56 422 38 q 557 104 519 73 q 623 177 596 134 q 660 271 650 219 q 656 358 669 319 q 615 426 643 397 q 548 470 587 454 q 463 488 508 486 l 193 488 m 199 524 l 411 524 q 508 539 460 525 q 595 579 556 553 q 662 646 634 606 q 699 737 689 685 q 694 831 709 791 q 647 897 679 871 q 570 936 614 923 q 479 951 526 949 l 273 951 l 199 524 z "},"C":{"ha":815,"x_min":88,"x_max":763,"o":"m 694 302 q 644 183 677 240 q 566 82 612 126 q 463 12 521 38 q 336 -14 405 -14 q 238 7 279 -13 q 167 60 196 27 q 121 137 138 94 q 96 229 104 181 q 89 327 88 277 q 96 420 90 376 l 121 568 q 146 666 130 616 q 187 765 163 717 q 243 856 211 813 q 314 930 275 898 q 402 981 354 962 q 505 1001 450 1000 q 622 975 572 1002 q 703 905 671 949 q 749 804 734 861 q 761 686 763 747 l 726 686 q 714 789 726 739 q 676 879 702 840 q 608 941 650 918 q 505 964 566 965 q 412 946 455 964 q 333 899 369 929 q 269 830 297 869 q 218 748 240 791 q 182 658 197 704 q 159 569 167 612 l 132 420 q 124 337 126 381 q 129 249 123 293 q 148 164 134 205 q 187 93 162 124 q 248 43 212 62 q 336 23 285 24 q 449 46 398 22 q 540 108 500 69 q 609 198 580 147 q 658 302 638 248 l 694 302 z "},"D":{"ha":815,"x_min":60,"x_max":764,"o":"m 60 0 l 232 987 l 470 987 q 572 967 527 986 q 652 917 618 948 q 710 843 687 885 q 747 753 734 801 q 762 655 760 706 q 756 554 764 604 l 736 433 q 707 329 726 381 q 658 229 687 277 q 592 140 629 181 q 511 68 555 99 q 414 20 466 38 q 305 0 363 1 l 60 0 m 261 951 l 102 37 l 305 37 q 404 55 357 38 q 492 100 451 72 q 566 166 532 128 q 627 247 600 203 q 671 338 653 291 q 699 433 689 386 l 720 556 q 726 646 727 600 q 714 736 724 692 q 683 818 703 779 q 633 885 663 856 q 562 932 603 914 q 470 951 522 949 l 261 951 z "},"E":{"ha":815,"x_min":74,"x_max":788,"o":"m 641 490 l 195 490 l 116 37 l 623 37 l 618 0 l 74 0 l 245 987 l 788 987 l 783 951 l 275 951 l 201 526 l 646 526 l 641 490 z "},"F":{"ha":815,"x_min":81,"x_max":796,"o":"m 649 486 l 200 486 l 116 0 l 81 0 l 252 987 l 796 987 l 791 951 l 281 951 l 206 524 l 654 524 l 649 486 z "},"G":{"ha":815,"x_min":83,"x_max":764,"o":"m 659 106 q 516 15 597 44 q 349 -14 435 -15 q 249 7 292 -13 q 174 59 205 26 q 123 135 143 92 q 94 226 104 178 q 84 324 85 274 q 91 420 83 374 l 119 582 q 144 679 127 629 q 186 775 161 729 q 244 863 212 822 q 317 935 277 904 q 405 983 357 965 q 507 1001 452 1001 q 616 979 568 1001 q 697 919 664 957 q 747 829 730 880 q 764 720 764 778 l 728 720 q 711 814 726 770 q 669 892 696 859 q 602 945 642 926 q 508 964 562 964 q 415 947 458 964 q 336 903 372 931 q 270 838 300 876 q 218 758 241 800 q 180 671 195 716 q 156 583 164 626 l 127 420 q 120 334 121 379 q 127 245 119 289 q 150 162 134 201 q 193 92 166 122 q 258 43 220 61 q 348 23 296 24 q 497 45 425 22 q 625 123 568 69 l 675 410 l 416 410 l 422 448 l 718 448 l 659 106 z "},"H":{"ha":815,"x_min":47,"x_max":793,"o":"m 623 0 l 588 0 l 673 490 l 166 490 l 81 0 l 47 0 l 217 987 l 252 987 l 172 526 l 679 526 l 758 987 l 793 987 l 623 0 z "},"I":{"ha":815,"x_min":69,"x_max":770,"o":"m 239 987 l 770 987 l 765 949 l 514 949 l 355 37 l 606 37 l 600 0 l 69 0 l 75 37 l 316 37 l 475 949 l 234 949 l 239 987 z "},"J":{"ha":815,"x_min":54,"x_max":760,"o":"m 723 987 l 760 987 l 642 300 q 600 181 630 238 q 526 82 570 125 q 425 13 481 39 q 302 -14 368 -13 q 190 8 238 -14 q 112 68 142 30 q 67 159 81 107 q 58 272 54 212 l 95 272 q 100 174 90 220 q 137 95 111 128 q 204 42 163 61 q 301 23 245 22 q 409 47 359 24 q 499 108 460 70 q 566 196 539 146 q 604 300 593 245 l 723 987 z "},"K":{"ha":815,"x_min":81,"x_max":844,"o":"m 347 517 l 180 373 l 115 0 l 81 0 l 250 987 l 286 987 l 188 422 l 355 576 l 792 987 l 844 986 l 374 541 l 704 0 l 661 0 l 347 517 z "},"L":{"ha":815,"x_min":88,"x_max":637,"o":"m 132 37 l 637 37 l 633 0 l 88 0 l 259 987 l 296 987 l 132 37 z "},"M":{"ha":815,"x_min":52,"x_max":804,"o":"m 275 987 l 396 369 l 746 987 l 804 987 l 633 0 l 596 0 l 680 484 l 759 931 l 407 319 l 373 319 l 250 931 l 171 477 l 89 0 l 52 0 l 222 987 l 275 987 z "},"N":{"ha":815,"x_min":48,"x_max":792,"o":"m 623 0 l 589 0 l 241 926 l 83 0 l 48 0 l 218 987 l 251 987 l 598 64 l 757 987 l 792 987 l 623 0 z "},"O":{"ha":815,"x_min":87,"x_max":751,"o":"m 718 420 q 693 321 709 372 q 653 222 677 271 q 597 132 629 174 q 526 57 566 89 q 439 5 487 24 q 336 -14 391 -14 q 238 6 279 -14 q 168 60 197 26 q 121 137 138 94 q 96 229 104 181 q 88 327 87 277 q 96 420 89 376 l 121 568 q 146 666 130 615 q 186 765 162 717 q 241 856 210 813 q 313 931 273 899 q 400 982 353 964 q 504 1001 448 1001 q 602 981 560 1001 q 672 927 644 961 q 719 850 701 894 q 744 758 736 806 q 750 661 751 710 q 743 568 749 612 l 718 420 m 707 569 q 715 652 713 608 q 711 740 717 696 q 692 825 706 784 q 653 896 678 865 q 592 946 629 927 q 504 964 555 964 q 411 947 454 964 q 332 900 368 930 q 268 831 296 870 q 218 748 239 791 q 181 658 196 704 q 159 569 167 612 l 132 420 q 124 337 126 381 q 128 248 123 292 q 148 163 134 204 q 186 92 161 123 q 248 42 211 60 q 336 23 284 23 q 430 40 387 23 q 508 87 473 58 q 572 157 544 117 q 622 240 601 196 q 658 330 644 284 q 681 420 673 376 l 707 569 z "},"P":{"ha":815,"x_min":89,"x_max":801,"o":"m 197 417 l 125 0 l 89 0 l 260 987 l 549 987 q 659 963 610 986 q 741 902 708 941 q 787 812 773 864 q 791 699 801 760 q 750 586 781 637 q 675 498 720 535 q 574 439 631 460 q 456 417 518 418 l 197 417 m 203 454 l 456 454 q 559 473 510 455 q 648 524 608 492 q 716 600 688 555 q 754 698 744 644 q 753 796 764 751 q 714 876 742 842 q 645 929 687 909 q 549 951 602 949 l 290 951 l 203 454 z "},"Q":{"ha":815,"x_min":73,"x_max":773,"o":"m 741 420 q 709 302 730 361 q 656 192 688 244 q 581 97 624 140 q 485 23 538 53 l 616 -156 l 589 -178 l 450 6 q 395 -8 423 -3 q 339 -14 368 -14 q 239 6 282 -14 q 164 58 195 25 q 113 134 133 91 q 83 225 93 177 q 73 323 74 273 q 80 420 73 374 l 106 568 q 132 669 115 617 q 175 768 150 720 q 234 859 201 817 q 310 933 268 901 q 400 983 351 964 q 507 1001 450 1001 q 607 982 564 1001 q 682 930 650 962 q 733 854 713 897 q 762 762 753 810 q 772 664 772 714 q 766 568 773 614 l 741 420 m 730 569 q 737 655 736 610 q 730 744 738 701 q 707 828 723 788 q 664 898 690 868 q 598 946 637 928 q 507 964 559 964 q 411 947 456 964 q 329 902 366 930 q 260 834 291 873 q 207 751 230 795 q 168 661 184 707 q 143 569 151 614 l 117 420 q 109 333 110 378 q 116 244 109 288 q 140 160 123 200 q 183 90 156 120 q 248 41 210 59 q 339 23 287 23 q 436 40 391 23 q 518 86 481 57 q 586 154 556 115 q 640 237 616 193 q 679 328 663 281 q 703 420 694 375 l 730 569 z "},"R":{"ha":815,"x_min":79,"x_max":760,"o":"m 469 422 l 187 422 l 114 0 l 79 0 l 250 987 l 507 987 q 615 964 566 986 q 697 903 664 941 q 745 813 730 865 q 749 703 760 762 q 719 610 741 652 q 664 535 696 569 q 590 476 631 502 q 504 433 549 451 l 665 9 l 665 0 l 628 0 l 469 422 m 193 459 l 444 459 q 538 481 494 461 q 619 535 583 502 q 679 611 654 568 q 713 703 703 654 q 711 800 722 755 q 671 877 699 844 q 601 930 643 910 q 507 951 558 949 l 279 951 l 193 459 z "},"S":{"ha":815,"x_min":75,"x_max":768,"o":"m 660 237 q 660 303 666 273 q 639 358 654 334 q 601 402 623 383 q 551 437 578 422 q 494 465 524 452 q 435 487 464 477 q 338 526 387 503 q 253 580 290 548 q 196 656 216 612 q 185 760 176 700 q 226 862 194 817 q 303 938 258 907 q 402 985 348 969 q 511 1001 457 1001 q 621 980 572 1001 q 703 921 669 958 q 752 833 736 884 q 764 723 768 783 l 728 723 q 716 818 730 774 q 675 894 703 861 q 606 945 647 926 q 512 964 565 964 q 417 951 465 964 q 329 913 370 939 q 260 849 289 887 q 222 761 231 810 q 221 696 215 726 q 243 644 227 667 q 281 602 258 621 q 331 569 304 583 q 387 543 358 554 q 444 522 416 531 q 543 483 494 506 q 629 425 592 459 q 686 345 667 391 q 697 238 706 299 q 656 130 688 177 q 579 52 625 83 q 477 3 533 20 q 363 -14 421 -14 q 247 5 300 -14 q 154 61 193 24 q 95 149 115 97 q 80 265 75 200 l 115 265 q 131 163 113 208 q 181 87 149 118 q 261 39 214 56 q 363 23 307 23 q 462 37 413 23 q 552 77 511 50 q 622 144 593 104 q 660 237 650 184 z "},"T":{"ha":815,"x_min":168,"x_max":840,"o":"m 834 951 l 519 951 l 355 0 l 318 0 l 484 951 l 168 951 l 174 987 l 840 987 l 834 951 z "},"U":{"ha":815,"x_min":91,"x_max":794,"o":"m 794 987 l 680 318 q 638 195 668 255 q 565 89 609 135 q 463 15 521 43 q 336 -14 405 -14 q 219 16 267 -14 q 141 92 170 45 q 101 198 111 139 q 100 318 91 258 l 216 987 l 251 987 l 136 318 q 135 213 127 266 q 167 118 142 160 q 233 50 191 76 q 336 23 275 23 q 448 48 396 23 q 539 115 499 74 q 605 210 578 157 q 642 318 631 263 l 759 987 l 794 987 z "},"V":{"ha":815,"x_min":159,"x_max":825,"o":"m 338 96 l 344 45 l 367 99 l 785 987 l 825 987 l 360 0 l 319 0 l 159 988 l 197 987 l 338 96 z "},"W":{"ha":815,"x_min":154,"x_max":863,"o":"m 189 220 l 186 103 l 226 227 l 492 985 l 492 987 l 526 987 l 525 985 l 554 220 l 553 102 l 591 224 l 830 987 l 863 987 l 557 0 l 524 0 l 524 2 l 496 827 l 495 892 l 471 821 l 187 2 l 188 0 l 154 0 l 154 987 l 187 987 l 189 220 z "},"X":{"ha":815,"x_min":20,"x_max":829,"o":"m 435 533 l 784 987 l 829 987 l 454 501 l 687 0 l 646 0 l 429 475 l 64 0 l 20 0 l 410 507 l 185 988 l 227 988 l 435 533 z "},"Y":{"ha":815,"x_min":159,"x_max":829,"o":"m 391 410 l 785 987 l 829 987 l 405 372 l 341 0 l 306 0 l 370 378 l 159 988 l 203 988 l 391 410 z "},"Z":{"ha":815,"x_min":32,"x_max":758,"o":"m 83 37 l 627 37 l 623 0 l 32 0 l 35 30 l 704 951 l 202 951 l 207 987 l 758 987 l 755 962 l 83 37 z "},"[":{"ha":815,"x_min":217,"x_max":622,"o":"m 617 1092 l 458 1092 l 260 -175 l 418 -175 l 414 -212 l 217 -212 l 427 1128 l 622 1128 l 617 1092 z "},"\\":{"ha":815,"x_min":286,"x_max":539,"o":"m 286 988 l 323 988 l 539 -85 l 501 -85 l 286 988 z "},"]":{"ha":815,"x_min":203,"x_max":607,"o":"m 411 1128 l 607 1128 l 397 -212 l 203 -212 l 208 -175 l 366 -175 l 563 1092 l 406 1092 l 411 1128 z "},"^":{"ha":815,"x_min":178,"x_max":646,"o":"m 498 936 l 218 448 l 178 448 l 486 987 l 521 987 l 646 446 l 606 446 l 498 936 z "},"_":{"ha":815,"x_min":50,"x_max":612,"o":"m 607 -37 l 50 -37 l 54 0 l 612 0 l 607 -37 z "},"`":{"ha":815,"x_min":420,"x_max":555,"o":"m 555 847 l 517 847 l 420 1029 l 462 1029 l 555 847 z "},"a":{"ha":815,"x_min":75,"x_max":699,"o":"m 581 0 q 583 69 579 35 q 593 137 586 102 q 528 74 564 102 q 452 26 492 45 q 368 -4 412 7 q 277 -14 323 -14 q 196 1 235 -13 q 130 41 157 15 q 89 103 102 66 q 82 186 75 140 q 109 263 89 230 q 158 322 129 297 q 224 363 188 347 q 300 390 260 380 q 380 405 339 400 q 458 410 420 409 l 637 410 l 656 517 q 651 600 663 564 q 613 660 639 635 q 550 698 587 685 q 468 711 512 711 q 381 699 424 711 q 303 665 339 688 q 239 609 267 642 q 199 532 212 576 l 163 534 q 206 624 176 585 q 277 691 236 664 q 368 733 319 718 q 467 747 416 747 q 563 732 519 747 q 639 686 608 716 q 685 613 670 656 q 692 515 699 570 l 628 148 q 623 77 623 112 q 623 6 623 42 l 623 0 l 581 0 m 277 22 q 373 34 326 21 q 460 70 419 46 q 536 126 501 93 q 600 199 572 159 l 631 372 l 460 372 q 392 369 428 372 q 320 357 356 365 q 251 335 284 349 q 190 300 218 321 q 144 251 163 279 q 118 183 125 222 q 123 116 111 146 q 157 66 134 87 q 211 34 180 45 q 277 22 243 23 z "},"b":{"ha":815,"x_min":77,"x_max":695,"o":"m 686 360 q 663 272 677 317 q 628 186 649 227 q 578 108 606 144 q 514 45 550 72 q 436 2 479 18 q 343 -14 393 -14 q 279 -5 311 -14 q 221 18 248 3 q 171 57 193 34 q 134 109 149 79 l 113 0 l 77 0 l 256 1042 l 293 1042 l 216 609 q 266 663 238 638 q 326 707 294 688 q 393 736 358 726 q 467 747 429 747 q 556 731 518 747 q 621 687 594 715 q 664 623 648 660 q 688 544 680 586 q 694 459 695 503 q 688 374 694 416 l 686 360 m 650 374 q 657 448 656 410 q 654 524 659 487 q 636 595 649 562 q 602 655 624 629 q 547 695 580 680 q 468 711 513 711 q 389 697 429 711 q 312 659 348 683 q 247 602 275 635 q 206 532 219 570 l 142 177 q 169 112 150 141 q 214 64 188 83 q 274 34 241 44 q 343 23 307 23 q 427 38 389 23 q 496 77 465 52 q 552 134 527 101 q 596 203 577 166 q 627 281 614 241 q 647 360 640 321 l 650 374 z "},"c":{"ha":815,"x_min":101,"x_max":702,"o":"m 345 23 q 435 37 393 23 q 513 78 478 52 q 574 140 548 104 q 615 222 600 177 l 652 222 q 608 126 637 170 q 538 52 578 83 q 449 4 498 21 q 345 -14 400 -14 q 256 2 295 -14 q 188 43 217 17 q 141 105 159 70 q 113 182 123 141 q 102 266 103 222 q 108 353 101 310 l 113 381 q 154 514 125 448 q 228 631 183 579 q 333 715 273 683 q 469 747 393 747 q 569 728 525 747 q 643 674 613 708 q 688 593 673 640 q 699 492 702 546 l 663 492 q 654 578 666 538 q 618 648 643 618 q 555 694 593 677 q 469 711 517 711 q 385 697 424 711 q 313 661 346 684 q 253 606 280 637 q 206 538 227 574 q 172 461 186 501 q 150 381 157 421 l 144 353 q 138 276 138 315 q 145 201 138 237 q 167 132 152 164 q 206 76 182 100 q 265 37 231 52 q 345 23 299 23 z "},"d":{"ha":815,"x_min":100,"x_max":771,"o":"m 110 374 q 132 463 117 418 q 168 549 146 508 q 217 627 189 591 q 281 690 245 663 q 359 732 317 717 q 453 747 402 747 q 519 737 488 747 q 577 709 551 727 q 624 665 604 690 q 659 608 645 639 l 734 1042 l 771 1042 l 592 0 l 555 0 l 576 110 q 525 60 553 83 q 465 21 497 37 q 398 -4 433 5 q 327 -14 363 -14 q 238 3 276 -14 q 174 47 201 19 q 132 112 148 75 q 108 191 115 149 q 101 276 100 233 q 107 360 101 319 l 110 374 m 145 360 q 137 286 139 325 q 141 210 136 248 q 158 139 146 173 q 192 80 170 106 q 247 39 214 54 q 326 23 280 24 q 402 34 365 23 q 474 65 440 45 q 535 112 507 85 q 584 173 564 140 l 648 536 q 626 605 642 573 q 584 661 609 637 q 525 697 558 684 q 453 711 492 711 q 333 680 385 711 q 244 601 281 650 q 182 493 206 553 q 148 374 159 433 l 145 360 z "},"e":{"ha":815,"x_min":91,"x_max":715,"o":"m 363 -14 q 274 1 315 -14 q 201 42 233 16 q 147 103 170 68 q 112 178 125 138 q 95 263 98 218 q 98 351 91 307 l 103 381 q 128 470 111 426 q 170 555 145 515 q 228 631 195 596 q 298 692 260 667 q 381 733 337 718 q 475 747 425 747 q 587 721 540 747 q 664 650 635 694 q 704 549 694 606 q 707 434 715 493 l 700 391 l 143 391 l 141 381 l 135 351 q 134 234 125 293 q 173 129 144 176 q 250 53 202 82 q 363 22 298 23 q 492 49 433 22 q 602 123 552 76 l 627 103 q 508 17 574 48 q 363 -14 441 -14 m 475 711 q 363 686 414 711 q 270 622 311 662 q 199 532 229 583 q 150 428 169 481 l 667 428 l 669 437 q 670 535 679 486 q 637 623 662 585 q 571 686 612 662 q 475 711 530 711 z "},"f":{"ha":816,"x_min":189,"x_max":842,"o":"m 712 696 l 419 696 l 301 0 l 258 0 l 380 696 l 189 696 l 194 734 l 387 734 l 399 798 q 439 910 411 862 q 508 990 467 958 q 602 1039 549 1023 q 719 1056 655 1056 q 842 1044 781 1056 l 832 1010 q 777 1017 804 1015 q 720 1019 749 1019 q 618 1005 665 1019 q 534 964 571 991 q 473 895 498 937 q 437 798 448 854 l 425 734 l 717 734 l 712 696 z "},"g":{"ha":815,"x_min":60,"x_max":720,"o":"m 111 374 q 133 463 119 418 q 169 549 148 508 q 219 627 191 591 q 282 690 247 663 q 361 732 318 717 q 454 747 404 747 q 520 738 489 747 q 578 709 551 728 q 625 665 604 691 q 659 608 646 640 l 682 734 l 720 734 l 595 10 q 556 -105 583 -50 q 489 -203 530 -161 q 394 -270 448 -245 q 275 -296 340 -296 q 151 -262 205 -296 q 60 -171 97 -229 l 87 -148 q 166 -229 120 -198 q 273 -260 212 -260 q 379 -237 332 -260 q 463 -178 427 -215 q 523 -92 498 -140 q 557 10 547 -43 l 577 109 q 526 59 554 81 q 466 20 498 37 q 399 -5 434 4 q 328 -14 364 -14 q 240 3 277 -14 q 176 47 202 19 q 133 112 149 75 q 109 191 117 149 q 102 276 102 233 q 109 360 102 319 l 111 374 m 146 360 q 138 286 140 325 q 142 210 137 248 q 159 139 146 173 q 194 80 172 106 q 249 39 216 54 q 327 23 281 24 q 405 34 367 23 q 476 66 443 45 q 538 115 510 87 q 585 178 566 144 l 648 531 q 627 602 643 569 q 586 659 610 635 q 528 697 561 683 q 454 711 494 711 q 334 680 387 711 q 244 601 282 650 q 183 493 207 553 q 149 374 159 433 l 146 360 z "},"h":{"ha":815,"x_min":70,"x_max":700,"o":"m 200 557 q 256 631 224 596 q 325 691 288 665 q 406 732 363 717 q 498 747 450 747 q 599 725 558 747 q 664 665 640 703 q 693 578 687 627 q 692 475 700 528 l 610 0 l 573 0 l 655 475 q 659 563 663 520 q 637 639 655 606 q 584 692 618 672 q 496 711 550 712 q 400 691 448 711 q 309 640 351 672 q 235 565 267 607 q 189 476 203 522 l 107 0 l 70 0 l 250 1042 l 286 1042 l 200 557 z "},"i":{"ha":815,"x_min":87,"x_max":642,"o":"m 213 734 l 511 734 l 391 37 l 642 37 l 637 0 l 87 0 l 92 37 l 353 37 l 469 697 l 208 697 l 213 734 m 481 943 q 498 979 484 965 q 534 993 512 993 q 567 978 557 993 q 574 942 578 963 q 556 908 571 922 q 520 895 542 894 q 488 909 498 896 q 481 943 477 922 z "},"j":{"ha":815,"x_min":-2,"x_max":631,"o":"m 255 734 l 569 734 l 442 4 q 406 -110 431 -56 q 342 -205 381 -164 q 251 -271 303 -246 q 134 -296 199 -296 q 65 -294 99 -297 q -2 -285 32 -290 l 5 -253 q 68 -259 37 -257 q 131 -260 99 -261 q 235 -238 189 -260 q 316 -181 281 -217 q 373 -98 351 -145 q 406 4 395 -50 l 526 697 l 250 697 l 255 734 m 533 944 q 551 980 536 966 q 587 994 566 994 q 621 979 610 994 q 628 943 631 964 q 610 909 625 922 q 574 895 595 896 q 541 909 552 895 q 533 944 530 922 z "},"k":{"ha":815,"x_min":99,"x_max":753,"o":"m 319 397 l 316 395 l 188 301 l 136 0 l 99 0 l 278 1042 l 315 1042 l 195 346 l 297 426 l 694 734 l 753 734 l 348 420 l 645 0 l 599 0 l 319 397 z "},"l":{"ha":815,"x_min":87,"x_max":642,"o":"m 267 1042 l 568 1042 l 393 37 l 642 37 l 637 0 l 87 0 l 92 37 l 356 37 l 524 1005 l 261 1005 l 267 1042 z "},"m":{"ha":815,"x_min":-14,"x_max":783,"o":"m 146 734 l 127 637 q 207 717 160 687 q 315 747 253 747 q 407 719 371 748 q 448 634 442 690 q 533 715 483 684 q 646 747 584 747 q 721 730 692 747 q 764 683 749 712 q 781 617 779 654 q 777 543 783 581 l 682 0 l 649 0 l 742 543 q 747 603 747 572 q 737 657 747 633 q 705 696 727 682 q 646 711 684 711 q 580 699 610 711 q 527 668 551 688 q 483 623 503 649 q 449 567 464 597 q 449 562 449 564 q 448 556 448 559 l 350 0 l 317 0 l 412 556 q 415 613 416 585 q 403 664 414 642 q 371 699 393 686 q 313 711 349 711 q 243 696 275 711 q 185 657 211 682 q 142 601 160 633 q 113 534 123 569 l 19 0 l -14 0 l 113 734 l 146 734 z "},"n":{"ha":815,"x_min":69,"x_max":697,"o":"m 199 557 q 255 631 224 597 q 325 691 287 665 q 405 732 362 717 q 496 747 448 747 q 598 725 557 747 q 662 665 639 703 q 691 577 685 627 q 689 475 697 528 l 608 0 l 571 0 l 653 475 q 657 563 661 520 q 635 639 653 606 q 582 692 616 672 q 495 711 548 712 q 398 691 447 711 q 308 640 350 672 q 234 565 266 607 q 189 476 203 522 l 106 0 l 69 0 l 195 734 l 233 734 l 199 557 l 199 557 z "},"o":{"ha":815,"x_min":76,"x_max":719,"o":"m 87 381 q 132 515 100 450 q 211 633 163 581 q 322 716 259 684 q 460 747 385 747 q 550 732 510 747 q 620 691 590 718 q 671 630 650 665 q 703 553 692 594 q 716 469 714 513 q 712 381 719 425 l 707 353 q 664 218 695 284 q 584 101 632 153 q 474 18 536 50 q 336 -14 411 -14 q 245 1 286 -14 q 175 42 205 16 q 124 104 145 68 q 92 180 104 140 q 78 265 81 221 q 83 353 76 309 l 87 381 m 119 353 q 118 237 110 296 q 152 131 125 178 q 223 53 178 83 q 336 23 269 23 q 459 52 403 23 q 558 127 515 81 q 629 233 601 174 q 670 353 658 292 l 675 381 q 680 458 682 419 q 670 534 679 497 q 643 603 661 570 q 600 659 626 635 q 539 697 574 683 q 460 711 504 711 q 337 682 393 711 q 238 606 281 653 q 166 500 195 559 q 125 381 137 441 l 119 353 z "},"p":{"ha":815,"x_min":26,"x_max":692,"o":"m 683 360 q 661 272 675 317 q 625 186 646 227 q 575 108 604 144 q 512 45 547 72 q 433 2 476 18 q 340 -14 391 -14 q 277 -5 308 -14 q 218 18 245 3 q 168 56 191 33 q 130 107 145 78 l 62 -282 l 26 -282 l 201 734 l 237 734 l 214 612 q 264 665 236 640 q 324 708 292 690 q 391 737 356 726 q 465 747 427 747 q 554 731 515 747 q 618 687 592 715 q 661 623 645 660 q 685 544 677 586 q 692 459 692 503 q 685 374 691 416 l 683 360 m 648 374 q 655 448 654 410 q 651 524 656 487 q 634 595 646 562 q 599 655 621 629 q 544 695 577 680 q 465 711 511 711 q 384 697 422 711 q 312 659 345 683 q 251 604 278 635 q 204 536 224 572 l 140 174 q 167 110 148 138 q 213 63 186 82 q 272 33 239 43 q 341 23 305 23 q 424 38 386 23 q 494 77 463 52 q 550 134 525 101 q 593 203 574 166 q 625 281 612 241 q 646 360 638 321 l 648 374 z "},"q":{"ha":815,"x_min":101,"x_max":719,"o":"m 111 374 q 133 463 119 418 q 169 549 147 508 q 218 627 190 591 q 282 690 246 663 q 360 732 317 717 q 454 747 403 747 q 519 738 488 747 q 577 710 551 728 q 625 667 604 692 q 660 612 646 642 l 682 734 l 719 734 l 544 -282 l 507 -282 l 576 106 q 525 58 553 80 q 465 20 496 36 q 398 -5 433 4 q 328 -14 363 -14 q 239 3 277 -14 q 175 47 201 20 q 132 113 149 75 q 109 191 116 150 q 101 276 101 233 q 108 360 102 319 l 111 374 m 146 360 q 138 286 140 325 q 141 210 136 248 q 159 139 146 173 q 193 80 171 106 q 248 39 215 54 q 326 23 281 24 q 403 34 366 23 q 474 65 441 45 q 536 112 508 85 q 585 173 564 140 l 649 536 q 626 605 642 573 q 584 660 609 637 q 525 697 558 684 q 454 711 492 711 q 370 696 408 711 q 301 658 332 682 q 244 601 269 633 q 201 530 220 568 q 169 453 182 493 q 149 374 156 413 l 146 360 z "},"r":{"ha":815,"x_min":186,"x_max":765,"o":"m 671 747 q 719 744 695 747 q 765 736 742 741 l 757 703 q 714 709 735 706 q 671 711 692 711 q 556 695 614 711 q 449 648 498 680 q 362 572 399 617 q 307 469 324 527 l 228 0 l 186 0 l 313 734 l 349 734 l 330 606 l 319 559 q 388 640 349 605 q 471 699 426 675 q 566 735 515 723 q 671 747 617 747 z "},"s":{"ha":815,"x_min":98,"x_max":718,"o":"m 624 180 q 623 233 629 210 q 600 275 616 256 q 562 307 585 293 q 515 331 540 321 q 465 348 490 341 q 417 361 439 355 q 361 375 391 367 q 305 393 332 382 q 253 418 277 404 q 212 454 229 433 q 186 501 195 474 q 184 562 178 528 q 220 646 191 611 q 289 704 249 682 q 377 737 330 726 q 468 747 424 747 q 563 735 517 747 q 644 697 609 723 q 698 632 678 671 q 716 538 718 593 l 679 538 q 665 616 682 583 q 617 670 648 649 q 548 701 587 691 q 469 711 509 711 q 392 703 433 711 q 316 678 352 695 q 255 632 281 661 q 220 564 229 604 q 222 510 215 533 q 244 470 229 488 q 282 441 260 453 q 330 419 304 429 q 380 404 355 410 q 427 393 406 398 q 484 377 454 386 q 541 357 513 369 q 593 329 568 345 q 634 291 617 313 q 658 242 650 269 q 661 179 666 214 q 623 91 653 127 q 549 31 592 54 q 457 -3 507 7 q 361 -14 407 -14 q 266 -3 313 -14 q 181 32 219 7 q 121 94 144 56 q 99 186 98 132 l 136 186 q 156 108 136 140 q 208 58 176 77 q 280 31 240 39 q 361 23 320 23 q 441 32 399 23 q 522 59 484 40 q 588 107 560 77 q 624 180 616 137 z "},"t":{"ha":815,"x_min":180,"x_max":690,"o":"m 468 932 l 433 734 l 690 734 l 684 696 l 427 696 l 336 176 q 339 108 330 136 q 368 61 348 79 q 418 33 388 42 q 484 23 448 24 q 539 24 512 22 q 593 29 566 26 l 595 -6 q 542 -13 568 -11 q 488 -14 515 -14 q 405 -2 442 -13 q 341 33 367 9 q 303 91 315 56 q 298 176 292 127 l 389 696 l 180 696 l 185 734 l 395 734 l 429 932 l 468 932 z "},"u":{"ha":815,"x_min":110,"x_max":728,"o":"m 564 0 l 589 131 q 470 24 541 62 q 313 -14 399 -14 q 210 10 252 -14 q 145 73 169 34 q 116 163 122 113 q 118 268 110 214 l 198 734 l 235 734 l 154 267 q 150 178 146 222 q 172 100 154 134 q 224 45 191 66 q 311 23 258 24 q 404 37 358 23 q 490 77 450 51 q 559 141 530 104 q 603 226 589 179 l 690 734 l 728 734 l 602 0 l 564 0 z "},"v":{"ha":815,"x_min":127,"x_max":781,"o":"m 347 55 l 739 733 l 781 733 l 359 0 l 322 0 l 127 734 l 167 734 l 347 55 z "},"w":{"ha":815,"x_min":106,"x_max":826,"o":"m 170 209 l 172 71 l 233 215 l 448 734 l 482 734 l 520 209 l 528 71 l 582 216 l 787 733 l 826 733 l 536 0 l 503 0 l 458 555 l 456 665 l 410 549 l 178 0 l 144 0 l 106 734 l 144 734 l 170 209 z "},"x":{"ha":815,"x_min":35,"x_max":764,"o":"m 412 409 l 714 733 l 764 732 l 431 374 l 665 0 l 619 0 l 405 344 l 84 0 l 35 0 l 386 378 l 163 734 l 210 734 l 412 409 z "},"y":{"ha":815,"x_min":-22,"x_max":808,"o":"m 346 50 l 358 71 l 763 733 l 808 733 l 287 -122 q 240 -188 266 -157 q 184 -243 215 -220 q 118 -282 154 -267 q 38 -296 81 -296 q 8 -294 22 -296 q -22 -289 -7 -292 l -19 -254 q 7 -258 -6 -256 q 33 -260 20 -260 q 101 -249 69 -260 q 159 -217 132 -237 q 208 -171 185 -197 q 248 -115 230 -144 l 319 5 l 111 734 l 153 734 l 346 50 z "},"z":{"ha":815,"x_min":27,"x_max":737,"o":"m 87 37 l 673 37 l 669 0 l 27 0 l 32 30 l 677 696 l 159 696 l 164 734 l 737 733 l 732 701 l 87 37 z "},"{":{"ha":815,"x_min":217,"x_max":749,"o":"m 530 -298 q 439 -249 477 -279 q 377 -179 401 -218 q 345 -91 353 -139 q 345 14 337 -42 l 371 180 q 342 313 382 266 q 217 368 302 361 l 218 384 l 220 397 l 222 413 q 364 468 308 420 q 436 600 420 515 l 462 768 q 496 877 472 827 q 556 966 519 926 q 639 1035 592 1006 q 743 1083 686 1064 l 749 1052 q 584 945 650 1017 q 499 768 518 872 l 473 600 q 409 463 459 517 q 277 390 358 410 q 341 360 314 380 q 385 313 368 340 q 406 252 401 286 q 407 180 412 218 l 381 14 q 410 -159 367 -87 q 547 -269 454 -231 l 530 -298 z "},"|":{"ha":815,"x_min":295,"x_max":513,"o":"m 332 -183 l 295 -183 l 477 987 l 513 987 l 332 -183 z "},"}":{"ha":815,"x_min":117,"x_max":650,"o":"m 117 -267 q 207 -223 165 -250 q 282 -161 249 -196 q 337 -82 315 -126 q 369 14 359 -39 l 395 180 q 459 317 409 264 q 592 391 510 371 q 527 421 554 401 q 484 468 500 441 q 461 529 467 495 q 460 600 456 562 l 487 768 q 460 942 501 867 q 326 1053 420 1017 l 340 1082 q 492 961 445 1042 q 524 768 539 880 l 497 600 q 525 468 485 515 q 650 413 566 420 l 648 397 l 649 397 l 648 391 l 648 384 l 648 384 l 646 368 q 504 314 560 361 q 432 180 448 266 l 406 14 q 372 -95 396 -46 q 312 -184 349 -144 q 229 -252 276 -223 q 125 -299 182 -281 l 117 -267 z "},"~":{"ha":815,"x_min":32,"x_max":778,"o":"m 778 509 q 753 433 770 470 q 711 366 736 395 q 650 319 685 337 q 570 300 615 301 q 517 309 542 300 q 470 332 492 317 q 428 364 448 346 q 389 402 408 382 q 357 434 374 418 q 323 462 341 450 q 284 481 304 474 q 239 488 263 488 q 173 473 201 488 q 124 433 144 458 q 90 378 104 409 q 69 314 77 347 l 32 314 q 57 391 40 353 q 99 459 73 429 q 159 506 124 488 q 239 525 194 524 q 292 517 267 525 q 340 494 317 509 q 382 461 362 480 q 421 423 403 443 q 452 391 436 407 q 487 363 469 376 q 526 344 505 351 q 570 336 547 336 q 636 352 608 337 q 685 391 664 367 q 719 447 705 416 q 740 510 732 477 l 778 509 z "},"¡":{"ha":815,"x_min":278,"x_max":496,"o":"m 401 472 l 438 472 l 315 -243 l 278 -243 l 401 472 m 494 709 q 489 696 493 703 q 479 684 485 689 q 465 676 473 679 q 451 673 458 673 q 426 685 437 673 q 418 712 416 697 q 434 737 420 726 q 461 748 447 748 q 486 736 475 747 q 494 709 496 724 z "},"¢":{"ha":815,"x_min":104,"x_max":705,"o":"m 348 23 q 439 37 396 23 q 516 78 481 52 q 577 140 551 104 q 618 222 604 177 l 655 222 q 614 131 641 172 q 550 59 587 90 q 468 10 513 28 q 372 -13 422 -9 l 346 -166 l 308 -166 l 334 -13 q 250 6 286 -11 q 186 49 213 22 q 141 111 159 76 q 115 186 124 146 q 105 269 106 226 q 111 353 104 311 l 116 381 q 157 512 128 448 q 229 629 185 577 q 333 713 273 681 q 466 747 392 746 l 491 894 l 529 894 l 504 745 q 591 719 553 740 q 655 663 629 697 q 693 586 681 629 q 703 492 705 542 l 667 492 q 658 578 669 538 q 621 648 646 618 q 558 694 596 677 q 473 711 521 711 q 388 697 427 711 q 316 661 349 684 q 257 606 283 637 q 210 538 230 574 q 175 461 189 501 q 153 381 161 421 l 148 353 q 141 276 142 315 q 148 201 141 237 q 170 132 155 164 q 210 76 185 100 q 268 37 234 52 q 348 23 302 23 z "},"£":{"ha":815,"x_min":35,"x_max":783,"o":"m 284 452 l 252 228 q 227 125 244 174 q 172 36 210 77 l 671 37 l 667 0 l 35 0 l 39 37 l 117 37 q 159 73 142 51 q 188 120 176 94 q 205 173 199 145 q 215 228 211 201 l 248 452 l 111 452 l 115 489 l 253 489 l 283 705 q 316 813 292 760 q 377 908 340 866 q 463 975 414 949 q 573 1001 512 1001 q 672 980 631 1001 q 738 922 713 958 q 773 838 764 886 q 777 739 783 791 l 741 739 q 740 824 747 783 q 713 896 733 865 q 658 946 692 928 q 574 964 624 964 q 478 941 521 964 q 402 882 435 919 q 350 799 370 846 q 321 705 329 753 l 289 489 l 532 489 l 527 452 l 284 452 z "},"¤":{"ha":815,"x_min":-5,"x_max":846,"o":"m 597 102 q 543 56 571 77 q 484 20 515 35 q 418 -5 452 4 q 348 -14 385 -14 q 228 17 281 -14 q 138 102 175 47 l 18 -18 l -5 10 l 119 133 q 81 270 90 199 q 85 412 73 341 q 134 566 98 492 q 222 701 170 639 l 138 832 l 166 857 l 248 730 q 300 772 273 753 q 358 806 328 792 q 421 829 389 821 q 488 837 454 837 q 604 809 552 837 q 692 729 656 781 l 823 858 l 846 829 l 714 697 q 754 558 746 631 q 751 412 763 485 q 705 264 738 335 q 621 134 671 194 l 703 7 l 675 -18 l 597 102 m 122 412 q 115 329 115 373 q 124 241 115 284 q 150 158 133 197 q 195 89 168 119 q 260 40 222 58 q 347 22 298 22 q 440 39 396 22 q 523 85 485 56 q 593 152 561 114 q 649 234 625 191 q 690 323 673 277 q 714 412 706 369 q 721 496 721 452 q 712 583 721 540 q 686 666 703 627 q 641 735 669 705 q 576 783 614 765 q 489 801 538 801 q 395 784 439 801 q 313 739 351 768 q 243 672 275 710 q 187 590 212 633 q 146 502 163 547 q 122 412 130 456 z "},"¥":{"ha":815,"x_min":60,"x_max":862,"o":"m 817 987 l 862 986 l 452 458 l 727 458 l 722 421 l 425 421 l 397 258 l 692 258 l 688 221 l 391 221 l 353 0 l 316 0 l 353 221 l 60 221 l 64 258 l 359 258 l 389 421 l 94 421 l 100 458 l 378 458 l 148 988 l 190 988 l 402 500 l 411 466 l 414 466 l 436 500 l 817 987 z "},"¦":{"ha":815,"x_min":277,"x_max":515,"o":"m 277 -183 l 364 327 l 401 327 l 313 -183 l 277 -183 m 427 473 l 391 473 l 479 987 l 515 987 l 427 473 z "},"§":{"ha":815,"x_min":-5,"x_max":771,"o":"m 706 292 q 676 217 699 248 q 621 163 653 185 q 551 129 589 142 q 473 110 512 116 q 533 74 506 94 q 580 28 561 54 q 607 -30 599 2 q 609 -101 615 -62 q 567 -205 600 -161 q 487 -278 534 -249 q 385 -321 441 -307 q 275 -336 330 -336 q 155 -315 208 -336 q 65 -256 102 -294 q 12 -164 29 -218 q 3 -43 -5 -111 l 39 -42 q 46 -149 33 -101 q 92 -230 60 -196 q 169 -281 123 -263 q 275 -299 216 -299 q 370 -288 321 -299 q 460 -252 418 -276 q 531 -190 501 -227 q 571 -102 561 -153 q 572 -41 578 -68 q 551 8 566 -14 q 514 45 536 29 q 466 74 492 62 q 411 96 439 87 q 357 113 383 105 q 290 133 325 121 q 221 159 254 144 q 159 194 188 174 q 110 239 130 213 q 81 298 90 265 q 79 374 72 332 q 106 448 86 416 q 156 502 127 479 q 222 539 186 524 q 297 561 258 553 q 241 597 266 576 q 200 643 216 617 q 177 699 184 668 q 177 766 171 729 q 219 869 186 825 q 299 943 252 913 q 401 986 345 972 q 511 1001 456 1001 q 628 979 577 1001 q 711 919 678 958 q 757 826 743 880 q 764 709 771 772 l 728 709 q 722 809 734 763 q 682 890 710 856 q 611 944 654 924 q 512 964 568 964 q 415 954 464 965 q 326 918 367 942 q 254 856 284 893 q 214 768 224 819 q 221 679 203 715 q 272 616 238 642 q 348 574 305 591 q 431 545 391 557 q 497 525 463 536 q 565 500 532 515 q 626 468 597 486 q 675 424 655 449 q 705 367 696 399 q 706 292 713 334 m 416 519 q 384 529 400 524 q 352 540 368 534 q 275 526 313 536 q 204 496 237 515 q 148 447 172 477 q 116 375 125 417 q 116 307 108 336 q 142 255 123 277 q 188 216 161 233 q 246 186 215 199 q 308 164 277 174 q 368 146 340 154 l 408 133 q 489 143 447 135 q 568 170 531 152 q 632 217 604 188 q 669 290 659 246 q 669 357 677 328 q 642 409 661 387 q 596 449 623 432 q 537 479 568 466 q 475 502 507 492 q 416 519 444 511 z "},"¨":{"ha":815,"x_min":304,"x_max":675,"o":"m 306 964 q 321 990 308 978 q 347 1002 334 1002 q 361 998 355 1002 q 372 989 368 995 q 379 977 377 983 q 380 963 381 970 q 365 938 378 949 q 338 926 352 926 q 314 939 324 927 q 306 964 304 951 m 599 964 q 614 990 601 978 q 640 1002 627 1002 q 665 989 654 1002 q 673 963 675 977 q 658 938 671 949 q 631 926 645 926 q 607 939 617 927 q 599 964 597 951 z "},"©":{"ha":815,"x_min":42,"x_max":770,"o":"m 541 309 q 522 246 536 275 q 485 196 507 217 q 433 162 463 174 q 369 151 404 151 q 299 170 327 151 q 256 220 272 190 q 236 287 241 250 q 236 359 232 323 l 241 391 q 262 464 247 428 q 301 529 277 500 q 358 575 326 557 q 432 593 391 593 q 493 582 467 593 q 536 551 519 571 q 560 502 553 530 q 563 441 567 474 l 531 441 q 526 488 531 467 q 510 525 522 509 q 479 549 498 540 q 433 557 460 557 q 373 543 399 557 q 327 504 347 528 q 296 451 308 480 q 278 392 283 421 l 273 359 q 270 302 269 332 q 282 247 272 272 q 314 206 293 222 q 369 189 334 189 q 420 197 398 188 q 460 222 443 206 q 489 261 477 239 q 509 309 500 283 l 541 309 m 87 374 q 88 245 76 308 q 134 133 100 182 q 221 53 168 83 q 347 23 275 23 q 483 52 420 23 q 596 129 547 81 q 677 241 645 178 q 722 374 710 304 q 719 500 732 439 q 672 609 706 562 q 584 684 638 656 q 460 713 530 713 q 327 685 389 713 q 214 611 264 658 q 132 503 165 565 q 87 374 98 441 m 50 374 q 97 518 61 450 q 187 638 133 587 q 311 720 241 690 q 460 750 381 750 q 599 719 538 750 q 699 635 660 688 q 754 515 739 583 q 760 374 770 448 q 712 226 748 296 q 623 103 677 156 q 498 18 568 50 q 347 -14 428 -14 q 249 1 294 -14 q 169 42 204 16 q 107 105 133 69 q 66 185 81 142 q 46 276 51 228 q 50 374 42 324 z "},"ª":{"ha":815,"x_min":241,"x_max":657,"o":"m 574 477 q 572 519 572 499 q 576 562 572 540 q 495 496 541 522 q 395 469 449 470 q 334 478 363 469 q 283 505 304 487 q 251 549 262 523 q 246 610 241 576 q 277 683 253 654 q 335 731 301 713 q 410 759 370 750 q 488 768 450 767 l 606 768 l 615 814 q 616 871 620 844 q 600 918 612 898 q 564 951 587 939 q 509 964 541 964 q 448 958 477 965 q 394 936 418 951 q 351 898 370 920 q 323 844 333 875 l 286 844 q 318 911 296 882 q 369 961 339 941 q 434 991 398 981 q 508 1001 469 1001 q 578 986 549 1001 q 626 945 608 970 q 651 885 644 919 q 652 814 657 851 l 616 601 q 613 478 606 541 l 574 477 m 395 506 q 450 514 422 507 q 502 536 477 522 q 546 570 526 551 q 580 614 566 590 l 602 731 l 489 731 q 425 725 458 730 q 362 707 391 720 q 311 671 333 694 q 283 613 290 648 q 285 565 277 585 q 309 532 292 545 q 348 512 325 519 q 395 506 370 506 z "},"«":{"ha":815,"x_min":171,"x_max":677,"o":"m 219 353 l 369 98 l 324 98 l 171 350 l 173 363 l 409 613 l 458 612 l 219 353 m 439 353 l 589 98 l 544 98 l 391 350 l 393 363 l 629 613 l 677 612 l 439 353 z "},"¬":{"ha":815,"x_min":149,"x_max":675,"o":"m 635 269 l 599 269 l 634 475 l 149 475 l 153 511 l 675 511 l 635 269 z "},"®":{"ha":815,"x_min":35,"x_max":767,"o":"m 46 366 q 93 511 58 442 q 183 631 129 580 q 308 713 237 683 q 458 743 378 743 q 597 712 536 743 q 697 629 658 681 q 751 508 736 576 q 756 366 767 440 q 709 220 745 289 q 619 99 673 151 q 495 16 565 47 q 345 -14 425 -14 q 205 17 266 -14 q 105 101 144 49 q 51 222 66 154 q 46 366 35 291 m 83 366 q 85 237 73 299 q 132 128 98 176 q 220 52 166 81 q 345 23 274 23 q 480 51 417 23 q 592 126 543 79 q 674 235 642 173 q 719 366 707 297 q 717 493 730 431 q 670 602 704 555 q 583 677 636 649 q 458 706 529 706 q 322 679 386 706 q 210 605 259 651 q 127 496 161 558 q 83 366 94 435 m 307 338 l 279 160 l 243 160 l 307 574 l 437 574 q 488 565 464 572 q 530 542 513 557 q 556 505 547 527 q 559 453 564 482 q 546 414 556 431 q 522 384 536 397 q 489 363 507 372 q 452 349 471 354 l 527 159 l 489 159 l 418 338 l 307 338 m 312 373 l 413 373 q 450 379 432 374 q 483 394 468 385 q 508 419 498 404 q 523 454 519 433 q 521 490 527 475 q 503 515 515 505 q 473 530 490 526 q 437 536 456 535 l 338 536 l 312 373 z "},"¯":{"ha":815,"x_min":283,"x_max":701,"o":"m 696 951 l 283 951 l 288 987 l 701 987 l 696 951 z "},"°":{"ha":815,"x_min":319,"x_max":638,"o":"m 324 838 q 346 899 329 870 q 387 951 362 928 q 441 987 411 974 q 505 1001 472 1001 q 563 987 537 1001 q 606 950 589 972 q 631 898 623 927 q 633 838 638 869 q 612 778 629 806 q 572 727 596 749 q 518 691 549 705 q 456 677 488 677 q 397 691 423 677 q 353 727 370 705 q 327 778 335 749 q 324 838 319 807 m 361 838 q 361 792 357 814 q 379 753 366 770 q 411 726 391 736 q 456 715 431 715 q 504 726 481 715 q 546 752 528 736 q 578 791 565 769 q 595 838 591 814 q 596 884 600 861 q 580 924 592 906 q 549 952 568 941 q 505 963 530 963 q 455 953 479 963 q 412 925 431 943 q 379 885 393 908 q 361 838 366 863 z "},"±":{"ha":815,"x_min":77,"x_max":727,"o":"m 452 546 l 727 546 l 722 509 l 446 509 l 397 196 l 361 196 l 410 509 l 119 509 l 123 546 l 415 546 l 464 859 l 500 859 l 452 546 m 628 -1 l 77 -1 l 83 36 l 633 36 l 628 -1 z "},"²":{"ha":815,"x_min":250,"x_max":652,"o":"m 608 452 l 250 452 l 255 482 l 478 682 q 518 717 497 699 q 558 755 539 735 q 590 799 576 776 q 610 848 604 821 q 609 895 615 874 q 588 931 602 916 q 551 954 573 945 q 505 962 530 962 q 399 926 442 962 q 338 834 357 891 l 301 834 q 329 899 311 869 q 374 950 348 928 q 434 983 401 971 q 504 995 467 995 q 564 985 536 995 q 612 956 592 975 q 642 909 633 937 q 646 848 652 882 q 625 791 641 818 q 588 740 610 764 q 543 694 567 715 q 497 654 519 673 l 302 486 l 613 486 l 608 452 z "},"³":{"ha":815,"x_min":262,"x_max":668,"o":"m 413 741 l 458 741 q 511 748 484 741 q 562 767 538 754 q 603 800 585 780 q 626 848 620 820 q 624 896 631 876 q 601 931 617 917 q 563 953 585 945 q 516 961 541 961 q 416 930 458 961 q 355 847 374 900 l 318 847 q 347 908 328 881 q 391 954 366 935 q 448 984 416 973 q 515 994 479 994 q 576 984 547 994 q 627 955 606 974 q 658 908 648 936 q 662 846 668 881 q 646 802 658 821 q 616 768 633 783 q 577 742 599 753 q 534 724 556 732 q 576 706 557 718 q 610 679 596 694 q 629 642 623 663 q 631 595 635 621 q 606 531 625 559 q 559 484 587 503 q 497 454 531 465 q 430 444 464 444 q 363 454 394 444 q 310 484 332 465 q 275 533 288 504 q 263 599 262 562 l 299 599 q 307 546 298 569 q 334 508 317 524 q 376 485 351 493 q 429 477 400 477 q 483 484 456 477 q 533 506 511 492 q 572 543 556 521 q 594 594 589 565 q 589 648 600 627 q 558 682 578 669 q 510 701 537 695 q 457 707 483 707 l 408 707 l 413 741 z "},"´":{"ha":815,"x_min":391,"x_max":585,"o":"m 538 1027 l 585 1027 l 432 848 l 391 849 l 538 1027 z "},"µ":{"ha":815,"x_min":28,"x_max":719,"o":"m 238 734 l 163 298 q 157 237 159 269 q 160 174 156 205 q 174 116 163 144 q 202 68 184 89 q 248 36 220 48 q 313 23 275 23 q 422 45 373 23 q 508 104 471 66 q 569 190 545 141 q 606 294 594 239 l 682 734 l 719 734 l 593 0 l 557 0 l 584 149 q 534 83 562 113 q 473 32 507 53 q 401 -2 440 10 q 319 -14 363 -14 q 205 20 254 -14 q 133 114 157 54 l 63 -282 l 28 -282 l 203 734 l 238 734 z "},"¶":{"ha":815,"x_min":201,"x_max":710,"o":"m 503 0 l 564 353 l 485 353 q 362 378 417 354 q 270 444 307 402 q 217 544 233 486 q 213 670 201 602 q 258 798 224 740 q 342 897 292 855 q 455 962 392 939 q 588 987 518 986 l 710 987 l 539 0 l 503 0 z "},"·":{"ha":815,"x_min":382,"x_max":460,"o":"m 384 480 q 389 493 385 487 q 398 505 393 500 q 411 513 404 510 q 425 517 418 517 q 450 504 440 516 q 458 477 460 492 q 452 464 456 471 q 443 453 448 458 q 430 445 437 448 q 416 441 422 441 q 392 454 401 442 q 384 480 382 466 z "},"¸":{"ha":815,"x_min":207,"x_max":421,"o":"m 336 0 l 319 -52 q 361 -65 342 -56 q 395 -88 381 -74 q 415 -121 408 -102 q 417 -167 421 -141 q 390 -228 412 -203 q 338 -266 368 -252 q 273 -287 308 -280 q 207 -295 238 -293 l 208 -262 q 259 -256 231 -260 q 312 -240 287 -251 q 355 -212 336 -230 q 380 -166 374 -194 q 376 -125 386 -141 q 349 -101 366 -110 q 310 -88 332 -92 q 271 -81 289 -84 l 300 0 l 336 0 z "},"¹":{"ha":815,"x_min":363,"x_max":578,"o":"m 487 451 l 451 451 l 535 939 l 363 886 l 368 922 l 571 987 l 578 987 l 487 451 z "},"º":{"ha":815,"x_min":248,"x_max":675,"o":"m 267 774 q 295 858 275 817 q 346 931 315 899 q 416 982 376 962 q 504 1001 456 1001 q 585 981 551 1001 q 640 930 619 962 q 668 857 661 898 q 669 774 675 817 l 656 694 q 627 610 648 650 q 577 537 607 569 q 507 487 547 506 q 419 468 467 468 q 338 487 372 468 q 283 538 304 507 q 255 611 262 570 q 254 694 248 652 l 267 774 m 290 694 q 288 625 284 659 q 308 564 292 591 q 351 521 323 537 q 419 505 378 505 q 492 520 459 505 q 551 563 526 536 q 594 624 576 589 q 618 694 611 658 l 633 774 q 634 843 639 808 q 614 904 630 877 q 571 947 599 930 q 504 964 544 964 q 430 948 464 964 q 371 906 397 932 q 329 845 346 879 q 304 774 311 810 l 290 694 z "},"»":{"ha":815,"x_min":113,"x_max":626,"o":"m 248 638 l 399 380 l 398 367 l 162 117 l 113 117 l 351 376 l 203 638 l 248 638 m 475 638 l 626 380 l 625 367 l 389 117 l 340 117 l 578 376 l 430 638 l 475 638 z "},"¼":{"ha":815,"x_min":133,"x_max":716,"o":"m 244 509 l 212 509 l 288 949 l 133 901 l 138 933 l 320 992 l 327 992 l 244 509 m 165 95 l 134 117 l 617 886 l 650 865 l 165 95 m 629 154 l 716 154 l 711 125 l 623 125 l 602 0 l 570 0 l 591 125 l 341 125 l 344 144 l 647 481 l 684 482 l 629 154 m 390 154 l 596 154 l 646 439 l 614 399 l 390 154 z "},"½":{"ha":815,"x_min":117,"x_max":736,"o":"m 149 95 l 117 117 l 601 886 l 633 865 l 149 95 m 249 507 l 217 507 l 293 946 l 138 898 l 142 930 l 325 989 l 332 989 l 249 507 m 697 0 l 375 0 l 379 27 l 580 207 q 616 238 597 222 q 652 273 635 255 q 681 312 669 291 q 699 356 694 332 q 698 399 703 380 q 679 431 692 417 q 646 451 666 444 q 604 458 627 458 q 509 427 548 458 q 454 344 471 395 l 421 344 q 446 402 429 375 q 487 448 463 428 q 540 478 511 467 q 603 488 570 488 q 657 479 632 488 q 701 453 683 470 q 728 411 719 436 q 731 356 736 387 q 713 305 727 329 q 679 258 699 280 q 638 218 660 237 q 597 181 617 198 l 422 30 l 702 30 l 697 0 z "},"¾":{"ha":815,"x_min":85,"x_max":732,"o":"m 216 90 l 184 111 l 667 881 l 700 859 l 216 90 m 644 155 l 731 155 l 726 125 l 639 125 l 618 1 l 585 1 l 607 125 l 357 126 l 359 145 l 663 482 l 700 482 l 644 155 m 405 155 l 612 155 l 662 440 l 630 400 l 405 155 m 221 765 l 262 765 q 310 771 285 765 q 355 788 334 777 q 392 818 376 800 q 413 862 407 836 q 411 905 418 886 q 391 936 405 923 q 356 956 376 949 q 314 963 336 963 q 224 935 262 963 q 169 860 186 908 l 136 860 q 161 915 144 891 q 201 957 178 940 q 253 983 224 974 q 313 993 281 993 q 368 984 341 993 q 413 957 395 975 q 442 916 432 940 q 445 860 451 891 q 431 820 442 837 q 404 789 420 802 q 369 766 388 776 q 330 750 350 757 q 368 733 351 744 q 398 709 386 723 q 416 675 410 694 q 417 633 421 657 q 395 576 412 601 q 352 533 377 550 q 297 507 327 516 q 236 498 267 498 q 176 507 204 498 q 128 534 149 516 q 97 577 108 552 q 86 637 86 603 l 119 637 q 126 590 117 610 q 150 556 134 569 q 188 534 166 542 q 235 527 210 527 q 284 534 260 527 q 329 554 309 541 q 365 587 350 567 q 384 633 379 606 q 380 681 390 662 q 351 712 370 700 q 308 729 333 724 q 261 735 284 734 l 217 735 l 221 765 z "},"¿":{"ha":815,"x_min":91,"x_max":565,"o":"m 450 471 q 435 413 444 439 q 411 362 425 386 q 379 316 397 338 q 336 273 361 294 q 270 213 302 244 q 210 148 237 182 q 163 74 183 113 q 136 -12 144 35 q 134 -92 128 -54 q 160 -159 140 -130 q 213 -205 180 -188 q 292 -222 246 -222 q 377 -206 338 -222 q 445 -161 415 -189 q 496 -95 475 -132 q 528 -15 517 -57 l 565 -15 q 530 -109 553 -65 q 471 -186 506 -153 q 392 -239 437 -220 q 292 -258 347 -258 q 200 -238 239 -258 q 135 -183 160 -218 q 100 -104 110 -149 q 99 -10 91 -60 q 128 83 107 40 q 179 165 149 127 q 244 237 208 203 q 317 302 279 271 q 381 377 359 336 q 414 471 403 418 l 450 471 m 433 711 q 438 724 434 718 q 449 735 443 730 q 462 744 455 741 q 476 747 469 747 q 500 734 490 746 q 508 708 510 722 q 503 695 507 701 q 493 683 498 688 q 480 675 487 678 q 466 671 473 671 q 441 684 452 672 q 433 711 431 696 z "},"Æ":{"ha":815,"x_min":-20,"x_max":831,"o":"m 686 0 l 371 0 l 414 288 l 172 288 l 18 0 l -20 0 l 509 987 l 831 987 l 826 951 l 545 951 l 482 533 l 719 533 l 714 496 l 477 496 l 409 37 l 691 37 l 686 0 m 191 324 l 419 324 l 507 915 l 191 324 z "},"×":{"ha":815,"x_min":73,"x_max":701,"o":"m 73 26 l 372 294 l 180 539 l 208 564 l 399 318 l 677 564 l 701 536 l 422 289 l 631 23 l 602 -1 l 395 264 l 97 -1 l 73 26 z "},"Ø":{"ha":815,"x_min":18,"x_max":851,"o":"m 709 420 q 685 321 701 372 q 645 222 669 271 q 589 132 621 174 q 518 57 557 89 q 431 5 479 24 q 328 -14 383 -14 q 224 9 267 -14 q 151 69 181 31 l 63 -50 l 18 -50 l 130 101 q 99 175 111 135 q 83 257 88 215 q 80 340 79 298 q 87 420 81 382 l 113 568 q 138 666 121 615 q 178 765 154 717 q 233 856 201 813 q 305 931 265 899 q 392 982 345 964 q 496 1001 439 1001 q 566 991 534 1001 q 623 964 597 981 q 668 923 648 947 q 701 871 687 899 l 806 1013 l 851 1013 l 717 832 q 733 767 728 801 q 741 699 739 733 q 741 632 743 665 q 734 568 739 598 l 709 420 m 124 420 q 117 349 119 387 q 117 274 115 312 q 129 199 120 236 q 153 132 137 163 l 677 840 q 650 889 666 867 q 611 929 633 912 q 560 955 589 945 q 496 964 532 964 q 402 947 446 964 q 324 900 359 930 q 260 831 288 870 q 210 748 231 791 q 173 658 188 704 q 151 569 159 612 l 124 420 m 699 569 q 707 681 708 621 q 692 798 707 742 l 173 98 q 235 43 197 64 q 328 23 273 23 q 421 40 378 23 q 500 87 465 58 q 564 157 536 117 q 614 240 593 196 q 650 330 635 284 q 673 420 665 376 l 699 569 z "},"Þ":{"ha":815,"x_min":71,"x_max":744,"o":"m 277 987 l 241 775 l 481 775 q 591 754 540 774 q 676 699 642 734 q 728 613 711 663 q 734 500 744 562 q 692 387 724 437 q 614 302 660 337 q 511 247 568 267 q 393 227 454 228 l 146 227 l 107 0 l 71 0 l 241 987 l 277 987 m 235 739 l 152 263 l 392 263 q 495 281 445 264 q 587 328 546 298 q 657 402 628 359 q 696 499 686 445 q 693 596 707 553 q 650 671 680 640 q 576 720 621 703 q 481 739 532 737 l 235 739 z "},"ß":{"ha":815,"x_min":73,"x_max":671,"o":"m 109 0 l 73 0 l 206 775 q 236 874 216 826 q 290 959 257 922 q 366 1019 322 996 q 467 1041 410 1041 q 541 1027 506 1041 q 601 987 576 1013 q 638 928 626 962 q 645 852 651 893 q 621 777 639 812 q 584 707 604 741 q 546 637 564 672 q 521 562 528 602 q 525 496 515 527 q 553 438 535 466 q 594 384 572 411 q 634 328 616 357 q 661 267 652 299 q 665 195 671 234 q 633 111 657 149 q 574 45 609 73 q 497 2 540 18 q 410 -14 454 -14 q 307 0 357 -15 q 216 47 256 14 l 236 79 q 316 36 273 52 q 404 22 359 21 q 481 36 444 22 q 549 72 518 49 q 601 129 579 96 q 629 201 622 161 q 627 269 636 238 q 600 328 618 300 q 560 382 582 356 q 519 436 538 408 q 491 495 501 464 q 486 564 480 526 q 508 639 491 604 q 545 709 525 675 q 582 779 564 744 q 606 854 600 814 q 602 912 610 885 q 575 960 593 939 q 531 992 557 980 q 474 1004 505 1004 q 386 986 425 1005 q 318 935 347 967 q 270 861 289 903 q 243 775 252 819 l 109 0 z "},"æ":{"ha":815,"x_min":-9,"x_max":795,"o":"m 518 -14 q 408 24 451 -14 q 351 125 364 61 q 310 72 332 97 q 260 28 287 47 q 201 -2 233 9 q 136 -14 170 -14 q 64 5 93 -14 q 18 53 35 23 q -4 119 1 82 q -3 193 -9 155 q 24 281 4 239 q 76 355 45 323 q 149 407 108 387 q 240 427 191 426 l 374 427 l 396 556 q 399 616 401 588 q 385 665 397 644 q 349 698 372 686 q 288 710 325 710 q 224 700 254 711 q 171 670 195 690 q 131 624 147 651 q 109 564 115 597 l 73 564 q 99 638 80 605 q 146 696 118 672 q 210 734 174 720 q 288 747 246 747 q 395 711 356 747 q 434 608 434 675 q 471 661 450 636 q 517 705 492 686 q 572 736 542 724 q 636 747 602 747 q 723 723 690 747 q 773 661 757 699 q 793 577 790 623 q 789 488 795 532 l 770 391 l 405 391 l 384 271 q 378 188 377 231 q 393 108 379 144 q 437 47 407 71 q 518 24 467 24 q 567 31 544 24 q 612 50 591 38 q 653 78 633 62 q 690 111 673 94 l 706 81 q 622 14 668 41 q 518 -14 576 -14 m 135 22 q 195 33 166 22 q 248 62 223 44 q 292 104 272 80 q 326 153 312 127 l 327 156 q 328 155 327 155 l 342 241 q 344 256 343 249 q 346 271 345 264 l 367 390 l 241 390 q 164 372 199 389 q 103 328 130 355 q 58 265 76 300 q 33 190 40 229 q 30 131 27 161 q 43 77 32 101 q 77 37 55 52 q 135 22 100 22 m 409 429 l 743 429 l 753 491 q 758 564 758 526 q 745 635 757 603 q 707 689 733 668 q 636 711 682 711 q 545 684 583 711 q 481 616 507 657 q 438 528 454 576 q 411 437 421 480 l 409 429 z "},"ð":{"ha":815,"x_min":39,"x_max":726,"o":"m 574 882 q 634 774 611 830 q 668 660 657 719 q 678 540 679 601 q 667 417 677 479 l 658 363 q 633 271 650 317 q 592 183 616 225 q 536 105 568 141 q 465 43 504 70 q 381 2 427 17 q 285 -14 336 -14 q 170 16 218 -14 q 91 92 121 45 q 50 197 61 138 q 49 315 39 256 q 91 444 60 384 q 170 549 123 505 q 279 620 218 594 q 412 646 340 646 q 480 639 447 646 q 544 617 514 632 q 598 579 573 602 q 640 526 623 557 q 621 705 645 619 q 540 863 597 790 l 370 779 l 354 813 l 513 892 q 409 976 466 941 q 288 1036 351 1010 l 306 1069 q 435 1002 374 1040 q 547 910 496 964 l 710 991 l 726 957 l 574 882 m 631 418 q 634 440 633 430 q 637 463 636 451 q 604 526 627 498 q 550 571 581 553 q 484 598 519 589 q 412 607 448 607 q 294 584 349 607 q 197 522 239 562 q 126 429 155 482 q 87 315 98 376 q 86 212 77 264 q 120 119 94 161 q 187 52 145 77 q 288 26 229 26 q 374 39 334 26 q 449 77 414 53 q 511 133 483 100 q 561 202 539 165 q 597 281 583 240 q 621 363 612 321 l 631 418 z "},"÷":{"ha":815,"x_min":86,"x_max":749,"o":"m 744 465 l 86 465 l 91 500 l 749 500 l 744 465 m 431 733 q 436 746 432 740 q 447 758 441 753 q 459 766 452 763 q 473 770 467 770 q 498 757 488 769 q 506 730 508 745 q 500 717 505 724 q 490 706 496 711 q 477 697 484 701 q 463 694 470 694 q 439 707 449 695 q 431 733 429 719 m 340 205 q 345 219 341 212 q 355 230 349 225 q 368 239 361 235 q 382 242 375 242 q 406 229 396 241 q 414 203 416 217 q 409 190 413 196 q 399 178 405 183 q 386 170 393 173 q 372 167 378 167 q 348 179 357 168 q 340 205 338 191 z "},"ø":{"ha":815,"x_min":49,"x_max":719,"o":"m 87 381 q 132 515 100 450 q 211 633 163 581 q 322 716 259 684 q 460 747 385 747 q 523 740 494 747 q 576 720 551 733 l 644 826 l 688 826 l 607 701 q 664 640 641 676 q 701 562 688 604 q 716 473 713 519 q 712 381 719 427 l 707 353 q 664 218 695 284 q 584 101 632 153 q 474 18 536 50 q 336 -14 411 -14 q 249 0 287 -14 q 180 38 210 14 l 93 -98 l 49 -98 l 153 64 q 113 125 129 92 q 88 196 96 159 q 78 273 79 233 q 83 353 77 313 l 87 381 m 675 381 q 680 463 682 421 q 667 542 678 504 q 636 613 656 581 q 587 669 616 646 l 201 70 q 260 36 227 48 q 336 23 293 23 q 459 52 403 23 q 558 127 515 81 q 629 233 601 174 q 670 353 658 292 l 675 381 m 119 353 q 114 284 114 319 q 121 216 115 249 q 141 152 127 182 q 174 97 154 121 l 556 689 q 512 705 536 699 q 460 711 488 711 q 337 682 393 711 q 238 606 281 653 q 166 500 195 559 q 125 381 137 441 l 119 353 z "},"þ":{"ha":815,"x_min":26,"x_max":693,"o":"m 683 360 q 662 274 675 318 q 628 189 648 230 q 581 111 608 147 q 519 46 553 74 q 444 3 486 19 q 354 -14 403 -14 q 287 -6 320 -14 q 225 17 254 2 q 171 56 195 33 q 131 109 147 79 l 62 -282 l 26 -282 l 254 1042 l 290 1042 l 213 609 q 267 664 237 639 q 330 708 296 690 q 401 737 363 726 q 477 747 438 747 q 564 731 528 747 q 626 686 601 714 q 666 620 652 657 q 687 541 681 583 q 692 457 693 500 q 685 374 691 414 l 683 360 m 648 374 q 655 446 653 408 q 653 521 657 484 q 638 592 650 558 q 607 653 627 627 q 555 694 586 679 q 479 711 524 710 q 394 697 435 711 q 318 660 353 684 q 253 604 282 636 q 203 534 224 572 l 140 175 q 169 110 149 138 q 219 62 190 81 q 282 33 248 43 q 354 23 317 23 q 435 38 398 24 q 502 78 471 53 q 555 136 532 103 q 596 207 578 170 q 626 283 614 244 q 645 360 638 323 l 648 374 z "},"Ħ":{"ha":815,"x_min":42,"x_max":842,"o":"m 744 733 l 842 733 l 838 697 l 738 697 l 618 0 l 583 0 l 668 490 l 161 490 l 77 0 l 42 0 l 162 697 l 82 697 l 87 733 l 168 733 l 212 987 l 247 987 l 203 733 l 709 733 l 753 987 l 788 987 l 744 733 m 674 526 l 703 697 l 197 697 l 168 526 l 674 526 z "},"ı":{"ha":815,"x_min":87,"x_max":642,"o":"m 213 734 l 511 734 l 391 37 l 642 37 l 637 0 l 87 0 l 92 37 l 353 37 l 469 697 l 208 697 l 213 734 z "},"Ĳ":{"ha":815,"x_min":28,"x_max":818,"o":"m 64 0 l 28 0 l 198 987 l 234 987 l 64 0 m 781 987 l 818 987 l 688 231 q 656 132 678 177 q 601 55 634 87 q 521 5 567 23 q 418 -13 475 -13 q 326 4 365 -13 q 262 52 287 21 q 229 124 238 82 q 227 218 220 167 l 263 218 q 262 138 256 174 q 287 76 268 102 q 338 37 306 51 q 418 24 371 24 q 507 39 468 24 q 575 80 547 54 q 623 145 604 107 q 650 231 642 184 l 781 987 z "},"ĳ":{"ha":815,"x_min":16,"x_max":778,"o":"m 501 734 l 715 734 l 589 4 q 553 -110 578 -56 q 489 -205 528 -164 q 397 -271 450 -246 q 280 -296 345 -296 q 212 -294 245 -297 q 144 -285 178 -290 l 152 -253 q 215 -259 183 -257 q 277 -260 246 -261 q 382 -238 336 -260 q 463 -181 428 -217 q 519 -98 497 -145 q 552 4 542 -50 l 672 697 l 496 697 l 501 734 m 141 734 l 362 734 l 241 37 l 378 37 l 374 0 l 16 0 l 20 37 l 204 37 l 319 697 l 136 697 l 141 734 m 680 944 q 698 980 684 966 q 734 994 712 994 q 767 979 757 994 q 774 943 778 964 q 757 909 771 922 q 721 895 743 896 q 688 909 699 895 q 680 944 677 922 m 331 943 q 349 979 334 965 q 385 993 363 993 q 418 978 408 993 q 425 942 429 963 q 407 908 422 922 q 371 895 393 894 q 339 909 349 896 q 331 943 328 922 z "},"ĸ":{"ha":815,"x_min":88,"x_max":747,"o":"m 317 361 l 166 238 l 125 0 l 88 0 l 214 734 l 252 734 l 175 291 l 314 409 l 698 733 l 747 732 l 345 386 l 663 0 l 615 0 l 317 361 z "},"Ł":{"ha":815,"x_min":45,"x_max":664,"o":"m 246 543 l 471 611 l 466 573 l 239 505 l 159 37 l 664 37 l 659 0 l 115 0 l 200 493 l 45 447 l 50 485 l 207 532 l 286 987 l 323 987 l 246 543 z "},"ł":{"ha":815,"x_min":87,"x_max":756,"o":"m 267 1042 l 568 1042 l 486 571 l 756 630 l 747 591 l 479 532 l 393 37 l 642 37 l 637 0 l 87 0 l 92 37 l 356 37 l 441 524 l 167 465 l 176 504 l 448 563 l 524 1005 l 261 1005 l 267 1042 z "},"Ŋ":{"ha":815,"x_min":57,"x_max":781,"o":"m 781 987 l 602 -60 q 581 -139 595 -98 q 545 -216 568 -180 q 489 -274 522 -251 q 410 -296 456 -296 q 379 -292 394 -296 q 348 -282 363 -288 l 361 -248 q 386 -256 373 -252 q 412 -260 398 -260 q 475 -240 448 -260 q 519 -190 501 -220 q 548 -125 537 -159 q 565 -60 559 -90 l 577 8 l 250 914 l 91 0 l 57 0 l 227 987 l 260 987 l 260 983 l 589 75 l 747 987 l 781 987 z "},"ŋ":{"ha":815,"x_min":77,"x_max":676,"o":"m 210 571 q 261 642 232 610 q 324 697 290 674 q 399 734 359 721 q 486 747 440 747 q 564 734 531 747 q 618 697 596 720 q 653 643 640 674 q 671 577 666 612 q 675 505 676 543 q 668 432 673 468 l 583 -60 q 557 -146 575 -104 q 511 -222 539 -189 q 445 -275 483 -255 q 357 -296 406 -296 q 312 -292 334 -296 q 269 -282 290 -288 l 281 -248 q 319 -257 300 -254 q 357 -260 338 -261 q 430 -242 398 -260 q 485 -196 462 -224 q 524 -132 509 -168 q 546 -60 538 -96 l 632 433 q 639 495 637 463 q 638 558 641 527 q 625 616 635 589 q 598 665 616 644 q 553 698 581 686 q 487 711 526 711 q 384 689 432 711 q 298 632 336 668 q 232 549 259 596 q 192 452 205 503 l 113 0 l 77 0 l 203 734 l 237 734 l 211 578 l 210 571 z "},"Œ":{"ha":815,"x_min":35,"x_max":886,"o":"m 715 0 l 396 0 q 323 -5 359 -2 q 249 -7 286 -9 q 160 13 197 -6 q 98 63 123 32 q 59 134 73 94 q 40 217 45 174 q 36 306 35 261 q 45 391 38 351 l 80 597 q 102 687 88 641 q 135 777 115 733 q 182 859 155 820 q 244 927 210 898 q 320 975 278 957 q 414 994 363 992 q 487 992 451 996 q 561 987 524 989 l 886 987 l 880 951 l 562 951 l 488 526 l 762 526 l 757 490 l 481 490 l 403 37 l 721 37 l 715 0 m 249 29 q 308 28 279 28 q 368 32 338 29 l 531 955 q 473 958 503 958 q 415 958 444 959 q 295 920 346 954 q 208 834 243 886 q 150 720 172 783 q 117 598 128 658 l 81 391 q 73 316 75 356 q 73 237 70 276 q 86 161 76 197 q 117 96 97 124 q 170 49 138 67 q 249 29 202 31 z "},"œ":{"ha":815,"x_min":-19,"x_max":823,"o":"m 7 422 q 25 494 14 456 q 52 568 36 532 q 90 636 68 604 q 140 693 112 669 q 202 733 168 718 q 278 747 237 747 q 350 731 319 747 q 401 689 380 715 q 432 628 421 663 q 446 557 443 594 q 483 625 462 591 q 531 686 504 659 q 592 730 558 713 q 669 747 627 747 q 732 735 705 747 q 777 702 759 723 q 805 654 795 681 q 819 596 815 627 q 822 534 823 566 q 817 475 821 503 l 798 378 l 437 378 l 422 298 q 416 244 418 274 q 417 184 414 215 q 427 125 419 154 q 450 75 435 97 q 488 38 465 52 q 545 24 511 24 q 593 29 570 23 q 638 46 616 35 q 680 70 660 56 q 720 98 700 84 l 734 68 q 692 37 714 52 q 646 11 670 22 q 597 -7 623 -1 q 545 -14 572 -14 q 476 3 505 -13 q 428 46 448 20 q 398 106 409 73 q 385 175 387 140 q 346 105 368 139 q 296 45 324 72 q 233 3 268 19 q 155 -14 197 -14 q 82 2 113 -14 q 32 43 52 17 q 0 102 12 68 q -15 171 -11 135 q -18 244 -19 208 q -12 312 -16 280 l 7 422 m 25 312 q 19 255 21 286 q 18 191 16 223 q 28 129 20 159 q 52 75 36 98 q 92 37 67 52 q 154 23 117 23 q 220 36 190 23 q 274 72 250 50 q 316 123 298 94 q 349 185 335 153 q 372 250 363 217 q 387 312 382 282 l 407 422 q 413 479 411 448 q 413 543 416 511 q 404 605 411 574 q 380 659 396 635 q 340 696 365 682 q 279 711 315 711 q 213 697 243 711 q 159 662 184 684 q 116 610 135 640 q 83 549 97 581 q 59 484 69 517 q 44 422 50 451 l 25 312 m 441 414 l 771 414 l 781 469 q 787 518 785 492 q 787 571 789 545 q 778 623 785 598 q 756 668 770 648 q 721 699 743 687 q 669 711 700 711 q 605 697 634 711 q 553 661 576 684 q 513 609 530 639 q 481 548 495 580 q 458 484 468 516 q 443 424 449 452 l 441 414 z "},"ſ":{"ha":815,"x_min":273,"x_max":774,"o":"m 273 0 l 418 838 q 450 926 427 886 q 506 994 473 966 q 582 1039 539 1023 q 674 1056 625 1055 q 725 1053 700 1057 q 774 1044 749 1049 l 764 1010 q 720 1017 742 1015 q 674 1019 697 1020 q 598 1005 633 1019 q 534 968 562 991 q 486 911 505 944 q 457 838 466 878 l 312 0 l 273 0 z "},"ƒ":{"ha":815,"x_min":-3,"x_max":823,"o":"m 709 696 l 467 696 l 347 -60 q 317 -153 338 -110 q 261 -228 295 -196 q 184 -278 228 -260 q 88 -296 140 -296 q 42 -292 65 -296 q -3 -282 20 -288 l 10 -248 q 49 -257 30 -254 q 89 -260 68 -260 q 170 -244 133 -259 q 235 -202 207 -229 q 282 -139 263 -175 q 309 -60 300 -102 l 426 696 l 268 696 l 273 734 l 433 734 l 450 838 q 483 929 459 888 q 542 997 507 969 q 622 1040 577 1025 q 717 1056 667 1055 q 770 1053 744 1056 q 823 1044 797 1050 l 812 1010 q 765 1017 789 1015 q 718 1019 741 1020 q 638 1006 676 1019 q 569 970 600 994 q 517 913 538 947 q 488 838 496 880 l 472 734 l 714 734 l 709 696 z "},"Ơ":{"ha":815,"x_min":87,"x_max":922,"o":"m 718 420 q 693 321 709 372 q 653 222 677 271 q 597 132 629 174 q 526 57 566 89 q 439 5 487 24 q 336 -14 391 -14 q 238 6 279 -14 q 168 60 197 26 q 121 137 138 94 q 96 229 104 181 q 88 327 87 277 q 96 420 89 376 l 121 568 q 146 666 130 615 q 186 765 162 717 q 241 856 210 813 q 313 931 273 899 q 400 982 353 964 q 504 1001 448 1001 q 582 989 547 1001 q 644 955 617 977 q 690 904 671 934 q 722 841 709 875 q 790 866 762 847 q 836 912 817 884 q 866 974 854 939 q 887 1045 878 1008 l 922 1044 q 900 961 914 1000 q 864 889 886 921 q 809 836 842 858 q 733 806 777 814 q 750 685 749 748 q 743 568 751 623 l 718 420 m 707 569 q 715 652 713 608 q 711 740 717 696 q 692 825 706 784 q 653 896 678 865 q 592 946 629 927 q 504 964 555 964 q 411 947 454 964 q 332 900 368 930 q 268 831 296 870 q 218 748 239 791 q 181 658 196 704 q 159 569 167 612 l 132 420 q 124 337 126 381 q 128 248 123 292 q 148 163 134 204 q 186 92 161 123 q 248 42 211 60 q 336 23 284 23 q 430 40 387 23 q 508 87 473 58 q 572 157 544 117 q 622 240 601 196 q 658 330 644 284 q 681 420 673 376 l 707 569 z "},"ơ":{"ha":815,"x_min":58,"x_max":856,"o":"m 70 381 q 114 515 83 450 q 194 633 146 581 q 304 716 241 684 q 442 747 367 747 q 568 716 516 747 q 651 633 619 684 l 653 646 q 719 662 692 650 q 766 696 747 675 q 798 746 785 717 q 819 810 811 774 l 856 810 q 832 733 847 768 q 794 673 817 699 q 738 632 770 648 q 663 611 706 616 q 696 500 688 560 q 694 381 704 441 l 690 353 q 646 218 677 284 q 567 101 614 153 q 456 18 519 50 q 318 -14 393 -14 q 228 1 268 -14 q 158 42 188 16 q 107 104 127 68 q 75 180 86 140 q 61 265 63 221 q 65 353 58 309 l 70 381 m 102 353 q 100 237 92 296 q 134 131 108 178 q 205 53 160 83 q 318 23 251 23 q 441 52 385 23 q 540 127 497 81 q 612 233 583 174 q 652 353 640 292 l 658 381 q 663 458 664 419 q 652 534 661 497 q 626 603 643 570 q 582 659 608 635 q 521 697 556 683 q 442 711 486 711 q 319 682 376 711 q 220 606 263 653 q 148 500 177 559 q 107 381 119 441 l 102 353 z "},"Ư":{"ha":815,"x_min":91,"x_max":964,"o":"m 794 987 l 770 850 q 833 877 807 859 q 878 922 859 896 q 908 982 896 949 q 928 1052 920 1015 l 964 1051 q 941 965 956 1005 q 902 893 926 925 q 844 841 878 862 q 764 812 810 820 l 680 318 q 638 195 668 255 q 565 89 609 135 q 463 15 521 43 q 336 -14 405 -14 q 219 16 267 -14 q 141 92 170 45 q 101 198 111 139 q 100 318 91 258 l 216 987 l 251 987 l 136 318 q 135 213 127 266 q 167 118 142 160 q 233 50 191 76 q 336 23 275 23 q 448 48 396 23 q 539 115 499 74 q 605 210 578 157 q 642 318 631 263 l 759 987 l 794 987 z "},"ư":{"ha":815,"x_min":110,"x_max":904,"o":"m 564 0 l 589 131 q 470 24 541 62 q 313 -14 399 -14 q 210 10 252 -14 q 145 73 169 34 q 116 163 122 113 q 118 268 110 214 l 198 734 l 235 734 l 154 267 q 150 178 146 222 q 172 100 154 134 q 224 45 191 66 q 311 23 258 24 q 404 37 358 23 q 490 77 450 51 q 559 141 530 104 q 603 226 589 179 l 690 734 l 728 734 l 712 644 q 771 662 746 648 q 815 696 797 675 q 846 745 833 717 q 867 807 859 772 l 904 806 q 839 668 886 720 q 705 606 792 616 l 602 0 l 564 0 z "},"ȷ":{"ha":815,"x_min":3,"x_max":574,"o":"m 234 734 l 574 734 l 448 4 q 412 -110 437 -56 q 348 -205 387 -164 q 256 -271 309 -246 q 139 -296 204 -296 q 71 -294 104 -297 q 3 -285 37 -290 l 11 -253 q 73 -259 42 -257 q 136 -260 104 -261 q 241 -238 195 -260 q 321 -181 287 -217 q 378 -98 355 -145 q 410 4 400 -50 l 531 697 l 229 697 l 234 734 z "},"ə":{"ha":815,"x_min":94,"x_max":725,"o":"m 462 747 q 584 714 532 746 q 668 633 635 683 q 713 520 701 583 q 715 394 725 457 l 708 351 q 683 262 700 306 q 641 177 666 218 q 585 101 616 136 q 514 41 553 66 q 432 1 476 16 q 338 -14 387 -14 q 227 11 275 -14 q 149 77 179 35 q 106 172 118 118 q 103 286 94 227 l 113 342 l 667 341 l 670 351 l 679 394 q 679 506 688 450 q 643 607 670 562 q 570 681 615 652 q 462 711 525 709 q 328 690 391 712 q 210 621 264 667 l 193 651 q 319 724 250 700 q 462 747 387 749 m 338 22 q 451 47 399 22 q 543 111 502 71 q 613 201 583 151 q 662 305 643 252 l 144 305 l 140 283 q 140 185 131 233 q 176 102 150 138 q 243 44 202 66 q 338 22 283 22 z "},"ˆ":{"ha":815,"x_min":332,"x_max":666,"o":"m 666 864 l 665 857 l 621 857 l 522 989 l 376 858 l 332 858 l 333 867 l 510 1029 l 537 1029 l 666 864 z "},"ˇ":{"ha":815,"x_min":345,"x_max":673,"o":"m 484 875 l 637 1021 l 673 1021 l 673 1012 l 503 843 l 463 843 l 345 1014 l 345 1021 l 382 1022 l 484 875 z "},"˘":{"ha":815,"x_min":313,"x_max":682,"o":"m 682 1007 q 654 939 673 970 q 609 886 635 908 q 549 852 583 864 q 475 840 515 840 q 406 852 437 840 q 355 886 376 864 q 323 939 334 908 q 314 1008 313 970 l 350 1008 q 379 911 347 945 q 475 878 412 878 q 583 913 539 878 q 645 1007 627 947 l 682 1007 z "},"˙":{"ha":815,"x_min":456,"x_max":538,"o":"m 459 949 q 474 974 461 962 q 502 985 488 985 q 528 974 517 985 q 536 946 538 962 q 520 921 534 932 q 492 910 507 910 q 467 922 477 911 q 459 949 456 933 z "},"˚":{"ha":815,"x_min":384,"x_max":608,"o":"m 387 937 q 402 981 391 960 q 430 1019 413 1002 q 468 1045 447 1035 q 513 1055 489 1055 q 554 1045 536 1055 q 585 1018 573 1035 q 603 980 597 1001 q 604 937 608 959 q 589 894 601 915 q 561 857 578 873 q 523 832 544 842 q 478 822 501 822 q 437 832 455 822 q 406 858 418 842 q 389 895 394 874 q 387 937 384 916 m 424 937 q 424 909 421 923 q 433 884 426 895 q 452 866 440 873 q 479 859 463 859 q 510 866 495 859 q 536 883 525 872 q 556 908 548 894 q 568 937 564 922 q 568 966 570 951 q 559 992 566 981 q 540 1011 552 1004 q 512 1018 528 1018 q 481 1011 496 1018 q 455 993 467 1004 q 435 967 443 982 q 424 937 427 952 z "},"˛":{"ha":815,"x_min":195,"x_max":392,"o":"m 392 -1 q 345 -33 370 -16 q 296 -70 319 -50 q 255 -114 273 -90 q 234 -167 238 -138 q 244 -212 230 -195 q 288 -231 259 -229 q 330 -224 310 -232 q 370 -205 350 -216 l 376 -239 q 333 -259 355 -251 q 287 -268 311 -268 q 247 -260 264 -268 q 217 -239 229 -252 q 200 -207 205 -226 q 198 -167 195 -189 q 220 -110 202 -136 q 261 -62 237 -83 q 312 -21 285 -40 q 362 13 338 -3 l 392 -1 z "},"˜":{"ha":815,"x_min":175,"x_max":605,"o":"m 605 998 q 588 951 599 974 q 561 911 577 929 q 523 883 545 894 q 475 872 502 872 q 428 886 448 872 q 390 915 408 899 q 351 944 371 931 q 305 956 331 957 q 271 949 286 956 q 245 930 256 942 q 226 904 234 919 q 212 873 218 889 l 175 873 q 192 918 181 897 q 219 957 203 940 q 257 984 235 974 q 304 994 278 994 q 351 980 331 994 q 390 951 371 967 q 429 922 409 935 q 475 910 449 909 q 509 918 494 910 q 535 938 524 926 q 554 966 546 950 q 568 998 562 981 l 605 998 z "},"˝":{"ha":815,"x_min":277,"x_max":719,"o":"m 659 1041 l 719 1041 l 488 836 l 436 837 l 659 1041 m 470 1041 l 526 1041 l 326 836 l 277 837 l 470 1041 z "},"˳":{"ha":815,"x_min":224,"x_max":392,"o":"m 227 -148 q 238 -117 229 -132 q 260 -92 248 -103 q 289 -74 273 -81 q 321 -67 304 -67 q 351 -74 337 -67 q 374 -92 364 -81 q 388 -119 383 -104 q 389 -149 392 -134 q 378 -179 387 -165 q 357 -204 370 -193 q 329 -221 345 -214 q 298 -227 314 -227 q 268 -221 282 -227 q 244 -203 254 -214 q 229 -178 234 -193 q 227 -148 224 -164 m 265 -149 q 275 -177 269 -165 q 300 -189 281 -189 q 316 -185 308 -189 q 332 -177 325 -182 q 345 -163 340 -171 q 352 -148 351 -156 q 351 -133 353 -140 q 345 -120 349 -125 q 333 -111 340 -115 q 319 -107 326 -107 q 300 -110 309 -106 q 286 -120 292 -114 q 274 -134 279 -126 q 265 -149 269 -142 z "},"̀":{"ha":7,"x_min":-454,"x_max":-315,"o":"m -315 843 l -362 843 l -454 1041 l -403 1041 l -315 843 z "},"́":{"ha":7,"x_min":-395,"x_max":-207,"o":"m -255 1041 l -207 1040 l -351 845 l -395 846 l -255 1041 z "},"̃":{"ha":7,"x_min":-542,"x_max":-112,"o":"m -112 998 q -129 951 -118 974 q -156 911 -140 929 q -194 883 -172 894 q -242 872 -215 872 q -289 886 -269 872 q -327 915 -309 899 q -366 944 -346 931 q -412 956 -386 957 q -446 949 -431 956 q -472 930 -460 942 q -491 904 -483 919 q -505 873 -498 889 l -542 873 q -525 918 -536 897 q -498 957 -514 940 q -460 984 -481 974 q -412 994 -439 994 q -366 980 -386 994 q -327 951 -346 967 q -288 922 -308 935 q -242 910 -268 909 q -208 918 -223 910 q -182 938 -193 926 q -163 966 -171 950 q -149 998 -155 981 l -112 998 z "},"̉":{"ha":7,"x_min":-351,"x_max":-159,"o":"m -351 832 l -340 899 q -299 905 -321 901 q -256 917 -277 909 q -221 939 -236 925 q -202 977 -206 954 q -213 1019 -197 1004 q -252 1041 -228 1034 q -301 1049 -275 1048 q -345 1052 -328 1051 l -335 1084 q -279 1079 -311 1083 q -220 1063 -248 1075 q -176 1031 -193 1052 q -164 976 -159 1010 q -183 929 -168 948 q -218 898 -197 911 q -263 879 -239 886 q -311 869 -288 872 l -319 832 l -351 832 z "},"̏":{"ha":7,"x_min":-754,"x_max":-391,"o":"m -540 850 l -589 850 l -754 1029 l -696 1029 l -540 850 m -391 850 l -438 850 l -574 1029 l -519 1029 l -391 850 z "},"̣":{"ha":7,"x_min":-633,"x_max":-552,"o":"m -631 -146 q -615 -121 -629 -133 q -588 -110 -602 -110 q -563 -122 -574 -110 q -555 -149 -552 -134 q -560 -162 -556 -156 q -570 -174 -564 -169 q -584 -182 -576 -179 q -598 -185 -591 -185 q -623 -173 -613 -184 q -631 -146 -633 -161 z "},"΄":{"ha":815,"x_min":479,"x_max":626,"o":"m 580 1069 l 626 1069 l 518 886 l 479 886 l 580 1069 z "},"΅":{"ha":815,"x_min":353,"x_max":703,"o":"m 549 1124 l 604 1124 l 547 962 l 509 962 l 549 1124 m 355 965 q 359 978 355 971 q 369 990 363 985 q 382 998 375 995 q 395 1002 389 1002 q 409 998 402 1002 q 419 988 415 994 q 425 976 423 983 q 426 962 427 969 q 421 950 425 956 q 411 938 417 943 q 399 930 406 933 q 385 926 392 926 q 362 939 371 927 q 355 965 353 951 m 629 965 q 633 978 629 971 q 643 990 637 985 q 656 998 649 995 q 669 1002 663 1002 q 693 989 684 1001 q 701 962 703 977 q 695 950 699 956 q 686 938 692 943 q 673 930 680 933 q 659 926 666 926 q 636 939 646 927 q 629 965 627 951 z "},"·":{"ha":815,"x_min":378,"x_max":456,"o":"m 380 480 q 385 493 380 487 q 394 505 389 500 q 407 513 400 510 q 421 517 414 517 q 446 504 436 516 q 454 477 456 492 q 448 464 452 471 q 438 453 444 458 q 426 445 433 448 q 412 441 418 441 q 388 454 397 442 q 380 480 378 466 z "},"Γ":{"ha":815,"x_min":60,"x_max":796,"o":"m 791 951 l 262 951 l 97 0 l 60 0 l 231 987 l 796 987 l 791 951 z "},"Δ":{"ha":815,"x_min":-18,"x_max":710,"o":"m 496 987 l 535 987 l 710 0 l -18 0 l 496 987 m 38 37 l 667 37 l 517 899 l 511 946 l 488 899 l 38 37 z "},"Θ":{"ha":815,"x_min":87,"x_max":751,"o":"m 574 469 l 237 469 l 241 505 l 579 505 l 574 469 m 718 420 q 693 321 709 372 q 653 222 677 271 q 597 132 629 174 q 526 57 566 89 q 439 5 487 24 q 336 -14 391 -14 q 238 6 279 -14 q 168 60 197 26 q 121 137 138 94 q 96 229 104 181 q 88 327 87 277 q 96 420 89 376 l 121 568 q 146 666 130 615 q 186 765 162 717 q 241 856 210 813 q 313 931 273 899 q 400 982 353 964 q 504 1001 448 1001 q 602 981 560 1001 q 672 927 644 961 q 719 850 701 894 q 744 758 736 806 q 750 661 751 710 q 743 568 749 612 l 718 420 m 707 569 q 715 652 713 608 q 711 740 717 696 q 692 825 706 784 q 653 896 678 865 q 592 946 629 927 q 504 964 555 964 q 411 947 454 964 q 332 900 368 930 q 268 831 296 870 q 218 748 239 791 q 181 658 196 704 q 159 569 167 612 l 132 420 q 124 337 126 381 q 128 248 123 292 q 148 163 134 204 q 186 92 161 123 q 248 42 211 60 q 336 23 284 23 q 430 40 387 23 q 508 87 473 58 q 572 157 544 117 q 622 240 601 196 q 658 330 644 284 q 681 420 673 376 l 707 569 z "},"Λ":{"ha":815,"x_min":-3,"x_max":684,"o":"m 503 933 l 36 0 l -3 0 l 488 987 l 530 987 l 684 0 l 646 0 l 503 933 z "},"Ξ":{"ha":815,"x_min":36,"x_max":774,"o":"m 41 37 l 635 37 l 630 0 l 36 0 l 41 37 m 193 503 l 640 503 l 635 466 l 188 466 l 193 503 m 219 987 l 774 987 l 769 951 l 214 951 l 219 987 z "},"Π":{"ha":815,"x_min":52,"x_max":786,"o":"m 617 0 l 583 0 l 747 951 l 251 951 l 87 0 l 52 0 l 222 987 l 786 987 l 617 0 z "},"Σ":{"ha":815,"x_min":16,"x_max":799,"o":"m 500 521 l 74 37 l 674 37 l 669 0 l 16 0 l 20 30 l 468 536 l 180 958 l 185 987 l 209 987 l 210 985 l 210 987 l 799 987 l 794 951 l 233 951 l 505 552 l 500 521 z "},"Φ":{"ha":815,"x_min":62,"x_max":779,"o":"m 498 859 q 626 824 570 854 q 717 745 682 794 q 766 633 752 696 q 768 501 779 570 q 721 364 755 428 q 635 252 687 300 q 518 174 584 203 q 378 142 452 145 l 351 0 l 317 0 l 342 142 q 215 176 270 146 q 124 256 159 207 q 76 368 89 304 q 74 500 62 431 q 120 636 86 573 q 206 748 155 700 q 323 825 258 796 q 463 859 389 854 l 487 987 l 522 987 l 498 859 m 731 501 q 732 621 743 564 q 690 721 721 677 q 610 791 660 764 q 495 822 561 819 l 380 178 q 506 208 448 182 q 611 278 565 235 q 688 378 657 321 q 731 501 719 436 m 112 500 q 111 380 100 437 q 151 280 121 323 q 230 210 181 237 q 345 178 279 182 l 460 822 q 335 791 394 818 q 231 722 277 765 q 154 622 185 678 q 112 500 123 565 z "},"Ψ":{"ha":815,"x_min":125,"x_max":824,"o":"m 410 319 q 528 354 474 326 q 622 426 581 382 q 689 525 663 469 q 728 642 716 581 l 789 987 l 824 987 l 765 642 q 722 509 752 572 q 647 397 692 446 q 541 318 602 349 q 406 282 480 287 l 356 0 l 321 0 l 371 282 q 250 321 300 288 q 172 403 201 353 q 134 515 143 453 q 136 642 125 576 l 196 987 l 232 987 l 173 642 q 170 529 163 585 q 201 430 176 474 q 268 355 225 385 q 374 319 311 326 l 491 987 l 526 987 l 410 319 z "},"Ω":{"ha":815,"x_min":6,"x_max":757,"o":"m 403 53 q 515 135 466 87 q 602 240 565 182 q 662 362 638 297 q 699 496 686 427 l 713 577 q 721 660 720 616 q 715 747 722 704 q 693 829 708 790 q 652 899 678 869 q 589 946 627 928 q 502 964 552 964 q 409 948 452 964 q 330 902 366 931 q 264 835 294 873 q 212 754 235 797 q 175 665 190 711 q 151 577 159 620 l 137 496 q 127 372 127 435 q 142 249 127 308 q 191 139 157 190 q 282 53 224 88 l 279 37 l 279 37 l 274 0 l 6 0 l 12 37 l 234 37 q 151 132 182 78 q 105 246 120 186 q 91 371 91 307 q 100 496 91 435 l 114 576 q 139 675 123 625 q 180 772 156 725 q 237 861 205 820 q 310 934 269 903 q 398 983 350 965 q 502 1001 446 1001 q 601 982 558 1001 q 673 931 643 963 q 721 856 703 899 q 748 766 739 813 q 757 670 757 719 q 749 576 757 621 l 736 496 q 700 360 724 427 q 640 233 676 293 q 555 123 604 173 q 444 36 506 73 l 668 37 l 663 0 l 394 0 l 403 53 z "},"α":{"ha":815,"x_min":75,"x_max":690,"o":"m 689 734 l 591 173 q 587 144 589 161 q 585 112 585 128 q 586 79 584 95 q 594 51 588 64 q 612 31 601 39 q 643 22 624 22 q 666 24 654 22 q 688 28 677 26 l 690 -5 q 667 -11 679 -8 q 644 -14 656 -14 q 590 0 610 -15 q 561 38 570 15 q 551 89 552 61 q 554 143 551 117 q 502 82 531 111 q 439 32 473 53 q 367 -2 406 10 q 287 -14 328 -14 q 201 2 237 -14 q 141 47 165 19 q 102 112 116 75 q 81 189 87 149 q 76 272 75 230 q 83 353 77 315 l 85 368 q 106 454 92 410 q 139 541 119 499 q 186 621 159 583 q 247 687 213 659 q 322 731 281 715 q 414 747 364 747 q 487 734 453 747 q 547 697 521 721 q 593 643 574 674 q 623 575 612 611 l 624 580 l 656 734 l 689 734 m 121 353 q 113 283 115 320 q 114 209 111 245 q 129 139 118 172 q 160 79 140 105 q 211 38 180 54 q 286 22 242 22 q 373 38 329 22 q 454 82 416 54 q 521 146 492 109 q 564 224 550 183 l 609 481 q 597 563 611 522 q 556 637 583 604 q 493 690 530 669 q 414 711 456 711 q 333 696 370 711 q 266 655 296 681 q 212 595 235 629 q 171 523 189 561 q 141 444 153 484 q 123 368 130 404 l 121 353 z "},"β":{"ha":815,"x_min":20,"x_max":719,"o":"m 493 1001 q 590 982 547 1002 q 664 928 634 962 q 706 847 693 893 q 711 747 719 800 q 647 609 697 667 q 522 522 596 552 q 605 485 569 509 q 663 427 640 460 q 694 351 686 393 q 695 261 703 309 q 654 149 685 199 q 578 62 623 98 q 476 6 532 26 q 357 -14 419 -14 q 289 -7 323 -14 q 223 14 254 -1 q 167 51 193 28 q 123 104 141 73 l 56 -280 l 20 -280 l 102 199 q 102 207 102 203 q 103 216 102 212 l 104 216 l 191 714 q 228 820 201 768 q 294 911 254 871 q 384 976 333 951 q 493 1001 434 1000 m 410 536 q 504 553 460 538 q 583 595 548 568 q 642 662 618 623 q 674 751 665 701 q 672 834 682 795 q 637 903 662 873 q 576 948 613 932 q 494 964 539 964 q 398 942 442 964 q 319 886 353 921 q 261 806 284 850 q 228 714 237 761 l 132 170 q 164 104 142 132 q 217 58 186 76 q 284 31 248 40 q 357 22 321 22 q 461 39 412 22 q 551 85 511 55 q 619 160 591 116 q 657 258 647 203 q 655 359 668 315 q 611 433 642 403 q 534 480 580 464 q 436 498 489 497 l 339 498 l 345 536 l 410 536 z "},"γ":{"ha":815,"x_min":128,"x_max":810,"o":"m 768 733 l 810 733 l 361 0 l 313 -281 l 275 -281 l 324 0 l 128 734 l 169 734 l 325 153 l 347 47 l 348 47 l 412 155 l 768 733 z "},"δ":{"ha":815,"x_min":65,"x_max":738,"o":"m 258 888 q 293 965 265 933 q 359 1019 321 998 q 441 1049 397 1040 q 526 1060 486 1059 q 730 1007 635 1061 l 714 975 q 623 1011 669 998 q 527 1023 577 1024 q 455 1016 493 1023 q 385 993 418 1008 q 327 951 352 977 q 294 888 302 926 q 294 837 288 859 q 314 798 300 815 q 348 769 328 781 q 392 747 369 756 q 439 731 415 738 q 484 719 463 724 q 594 670 545 703 q 676 592 644 637 q 724 489 709 546 q 729 368 738 431 l 724 339 q 678 206 711 270 q 594 94 644 142 q 480 16 545 45 q 342 -14 416 -14 q 215 16 269 -14 q 126 95 160 46 q 78 208 92 144 q 75 339 65 272 l 80 368 q 118 483 91 428 q 185 582 145 538 q 277 655 225 625 q 391 697 330 686 l 393 706 q 339 736 366 719 q 293 775 313 753 q 262 825 273 798 q 258 888 252 853 m 112 339 q 113 223 102 280 q 152 122 123 167 q 229 50 181 77 q 342 23 277 23 q 465 50 408 23 q 568 120 523 76 q 644 221 613 163 q 687 339 675 278 l 692 368 q 689 473 701 420 q 649 570 677 526 q 576 642 621 613 q 476 676 532 671 q 351 656 411 682 q 244 587 292 631 q 163 486 196 543 q 117 368 130 428 l 112 339 z "},"ε":{"ha":815,"x_min":68,"x_max":734,"o":"m 75 197 q 101 268 81 238 q 150 320 121 298 q 215 355 179 341 q 287 376 250 368 q 230 399 257 385 q 182 434 202 414 q 153 482 163 454 q 149 544 144 509 q 191 640 157 601 q 271 702 224 678 q 371 737 317 726 q 475 747 425 747 q 570 735 523 747 q 654 699 617 724 q 712 635 690 674 q 734 542 734 596 l 696 542 q 681 622 700 589 q 629 673 662 654 q 556 702 597 693 q 475 711 515 711 q 387 703 433 711 q 299 676 340 695 q 228 626 258 658 q 188 546 197 594 q 189 489 181 513 q 215 448 197 465 q 257 421 232 431 q 309 404 281 410 q 365 396 337 398 q 416 393 393 393 l 541 393 l 536 356 l 416 356 q 355 354 387 356 q 291 345 323 351 q 230 327 260 338 q 176 298 200 316 q 135 255 152 280 q 111 195 118 229 q 113 134 104 160 q 138 90 121 109 q 182 58 156 71 q 236 38 208 45 q 294 27 264 30 q 349 24 323 24 q 443 34 395 24 q 532 65 491 44 q 604 121 573 87 q 649 203 635 155 l 688 203 q 637 106 671 147 q 558 39 604 65 q 459 -1 513 12 q 350 -14 405 -14 q 284 -9 319 -14 q 218 6 250 -4 q 157 33 185 16 q 108 73 128 50 q 78 126 87 96 q 75 197 68 157 z "},"ζ":{"ha":815,"x_min":144,"x_max":802,"o":"m 802 987 l 798 962 l 408 570 q 337 497 373 535 q 269 417 300 459 q 215 328 238 374 q 184 231 193 282 q 188 175 180 199 q 212 133 195 151 q 253 101 229 115 q 302 78 276 87 q 355 61 328 68 q 406 48 382 54 l 468 32 q 517 17 492 26 q 564 -6 543 8 q 595 -41 584 -20 q 603 -92 607 -62 q 586 -148 599 -121 q 554 -195 573 -174 q 511 -235 534 -217 q 463 -266 488 -253 l 437 -243 q 480 -216 458 -231 q 520 -181 502 -200 q 551 -140 538 -162 q 568 -92 564 -117 q 562 -54 571 -68 q 536 -29 552 -39 q 500 -14 520 -20 q 464 -4 481 -8 l 401 12 q 342 28 373 20 q 282 49 311 37 q 226 77 252 61 q 181 116 199 94 q 153 166 162 138 q 149 231 144 195 q 180 336 157 286 q 236 431 203 386 q 307 518 269 477 q 382 596 345 559 l 736 951 l 175 951 l 180 987 l 802 987 z "},"η":{"ha":815,"x_min":66,"x_max":692,"o":"m 197 564 q 251 638 221 604 q 318 696 281 671 q 396 734 354 720 q 487 747 439 747 q 592 723 551 747 q 657 659 634 699 q 686 567 680 618 q 684 459 692 515 l 555 -282 l 518 -282 l 646 460 q 651 552 654 507 q 630 632 648 597 q 577 689 612 667 q 488 711 543 711 q 381 689 431 711 q 291 631 331 668 q 222 547 250 595 q 180 446 193 498 l 104 0 l 66 0 l 193 734 l 230 734 l 201 578 l 197 564 z "},"θ":{"ha":815,"x_min":123,"x_max":720,"o":"m 676 403 q 655 311 668 359 q 622 217 642 263 q 575 129 602 170 q 514 55 549 87 q 435 5 479 24 q 338 -14 391 -14 q 245 6 283 -14 q 183 59 208 26 q 145 135 158 92 q 128 224 132 178 q 126 316 123 270 q 135 403 128 363 l 166 585 q 188 677 174 629 q 221 771 201 725 q 268 859 241 817 q 330 933 294 901 q 409 983 365 964 q 506 1002 452 1002 q 598 982 560 1002 q 661 929 636 962 q 698 853 686 896 q 715 764 711 810 q 716 671 720 718 q 707 585 713 625 l 676 403 m 190 508 l 658 508 l 671 585 q 681 660 677 618 q 682 744 684 702 q 671 826 680 786 q 641 897 661 865 q 588 946 621 928 q 506 965 555 965 q 419 948 458 965 q 348 901 380 930 q 293 833 317 872 q 252 753 269 795 q 222 667 234 711 q 203 585 210 624 l 190 508 m 652 471 l 184 471 l 172 404 q 163 329 166 370 q 161 245 159 288 q 173 163 163 203 q 203 92 182 123 q 256 42 223 61 q 338 23 289 23 q 425 40 386 23 q 495 87 464 58 q 550 155 526 117 q 591 236 574 194 q 620 322 608 279 q 640 404 632 365 l 652 471 z "},"ι":{"ha":815,"x_min":203,"x_max":616,"o":"m 208 734 l 412 734 l 454 734 l 359 176 q 361 107 353 136 q 390 58 370 78 q 440 28 410 39 q 508 18 471 18 q 562 22 535 18 q 615 29 589 26 l 616 -3 q 564 -11 590 -7 q 510 -14 537 -14 q 427 -2 465 -14 q 363 33 389 9 q 326 92 338 56 q 321 176 315 127 l 408 696 l 203 696 l 208 734 z "},"λ":{"ha":815,"x_min":-28,"x_max":656,"o":"m 269 1029 q 330 1014 306 1030 q 369 972 354 998 q 393 915 385 946 q 407 854 401 883 l 536 161 q 544 120 539 142 q 557 79 548 98 q 582 47 566 60 q 621 33 597 34 q 638 34 630 33 q 655 37 647 36 l 656 3 q 638 -2 647 0 q 620 -4 629 -4 q 568 9 589 -5 q 534 44 547 22 q 513 92 521 65 q 500 143 505 118 l 408 663 l 405 680 l 13 0 l -28 0 l 393 733 l 371 849 q 361 897 367 872 q 345 943 355 922 q 316 978 334 964 q 269 992 298 992 q 251 991 260 993 q 235 989 243 990 l 233 1023 q 251 1027 242 1025 q 269 1029 260 1029 z "},"ξ":{"ha":815,"x_min":104,"x_max":787,"o":"m 779 935 q 595 965 690 965 q 499 955 549 965 q 408 923 450 945 q 334 866 365 901 q 292 779 302 830 q 293 714 285 741 q 321 668 302 687 q 367 636 340 648 q 424 617 393 624 q 486 607 454 610 q 544 604 517 604 l 632 604 l 627 566 l 543 566 q 415 550 479 566 q 297 502 351 534 q 204 420 243 470 q 152 302 165 371 q 151 226 144 260 q 174 165 157 192 q 217 117 191 138 q 274 79 243 96 q 339 51 305 63 q 408 29 374 39 l 460 15 q 506 0 481 9 q 550 -21 530 -8 q 581 -54 570 -35 q 588 -102 592 -74 q 571 -151 584 -129 q 541 -191 559 -173 q 500 -224 522 -210 q 458 -251 479 -239 l 437 -227 q 473 -204 454 -216 q 509 -176 492 -191 q 538 -142 526 -160 q 553 -101 550 -123 q 547 -67 556 -81 q 522 -45 537 -54 q 488 -31 507 -36 q 455 -21 470 -25 l 403 -7 q 289 33 345 9 q 190 95 233 58 q 126 183 148 132 q 115 304 104 234 q 152 409 125 363 q 219 489 180 454 q 309 547 259 524 q 412 585 358 571 q 346 610 377 594 q 292 650 315 627 q 259 705 270 673 q 254 776 248 736 q 298 880 264 837 q 380 949 332 922 q 485 989 429 977 q 596 1001 542 1001 q 693 992 646 1001 q 787 968 741 983 l 779 935 z "},"π":{"ha":815,"x_min":116,"x_max":799,"o":"m 793 696 l 656 696 l 568 184 q 563 133 564 159 q 569 84 562 106 q 593 48 576 62 q 642 32 610 33 q 677 33 659 31 q 713 37 695 35 l 713 3 q 678 -4 696 -1 q 643 -5 661 -6 q 577 12 602 -5 q 541 56 553 29 q 528 116 529 83 q 532 184 526 150 l 621 696 l 275 696 l 155 0 l 119 0 l 238 696 l 116 696 l 121 734 l 799 734 l 793 696 z "},"ρ":{"ha":815,"x_min":21,"x_max":697,"o":"m 687 353 q 665 267 680 311 q 630 182 651 223 q 583 106 610 142 q 521 44 555 71 q 445 2 486 18 q 354 -14 403 -14 q 287 -6 320 -14 q 223 17 253 1 q 169 55 193 33 q 127 109 144 78 l 58 -282 l 21 -282 l 104 201 l 104 207 l 142 420 l 144 431 q 184 550 155 493 q 255 651 212 608 q 355 721 298 695 q 478 747 411 747 q 566 730 529 747 q 629 684 604 713 q 669 617 654 655 q 691 536 684 578 q 696 451 697 494 q 689 368 695 408 l 687 353 m 652 368 q 659 440 657 401 q 657 517 661 479 q 642 590 653 555 q 609 652 631 625 q 556 695 588 679 q 479 711 524 711 q 366 686 416 711 q 279 619 316 661 q 217 525 241 578 q 178 416 192 471 l 178 417 l 137 182 q 168 113 147 143 q 216 63 188 83 q 279 33 244 43 q 354 23 314 23 q 435 38 398 24 q 503 76 472 52 q 557 132 533 100 q 599 201 581 164 q 630 276 617 237 q 650 353 642 315 l 652 368 z "},"ς":{"ha":815,"x_min":75,"x_max":705,"o":"m 467 747 q 570 728 524 747 q 646 674 616 709 q 691 593 677 640 q 701 488 705 545 l 664 488 q 659 578 670 537 q 621 649 647 619 q 556 694 595 678 q 467 711 517 711 q 341 683 397 711 q 241 608 284 654 q 170 503 198 562 q 129 381 141 444 l 123 353 q 127 233 113 286 q 176 138 142 179 q 260 68 210 97 q 371 24 311 40 q 424 8 397 18 q 470 -17 450 -1 q 499 -55 490 -32 q 503 -111 509 -77 q 487 -157 499 -135 q 459 -197 475 -178 q 423 -230 443 -215 q 383 -257 404 -245 l 361 -233 q 427 -183 397 -214 q 467 -111 458 -153 q 465 -67 473 -84 q 440 -39 456 -50 q 404 -22 425 -28 q 363 -11 383 -16 q 240 37 296 6 q 146 114 184 68 q 92 220 109 160 q 85 353 75 279 l 90 381 q 135 517 103 451 q 215 634 166 583 q 327 716 263 685 q 467 747 390 747 z "},"σ":{"ha":815,"x_min":64,"x_max":813,"o":"m 808 696 l 579 696 q 645 634 618 669 q 685 558 671 599 q 702 473 699 517 q 699 382 705 428 l 694 353 q 650 219 682 285 q 571 101 618 153 q 461 18 524 50 q 323 -14 398 -14 q 233 1 273 -14 q 162 42 193 16 q 112 104 132 68 q 80 180 91 140 q 66 265 68 221 q 71 353 64 309 l 75 381 q 119 512 87 449 q 199 625 151 576 q 308 703 246 673 q 444 734 370 732 l 813 734 l 808 696 m 107 353 q 105 237 98 296 q 139 131 113 179 q 210 53 165 83 q 322 23 256 23 q 445 52 389 23 q 544 127 501 81 q 616 233 587 174 q 656 353 644 292 l 662 381 q 662 494 671 437 q 627 595 654 550 q 554 668 600 640 q 444 696 509 696 q 324 669 380 696 q 225 598 269 642 q 153 497 182 554 q 113 381 124 440 l 107 353 z "},"τ":{"ha":815,"x_min":182,"x_max":751,"o":"m 745 696 l 466 696 l 376 189 q 374 128 371 157 q 389 75 376 98 q 424 38 401 52 q 484 22 448 23 q 525 24 505 22 q 566 28 545 26 l 568 -5 q 527 -13 547 -10 q 486 -14 507 -15 q 409 3 440 -14 q 361 46 378 19 q 338 111 343 74 q 340 189 334 147 l 427 696 l 182 696 l 187 734 l 751 734 l 745 696 z "},"υ":{"ha":815,"x_min":112,"x_max":686,"o":"m 238 734 l 156 261 q 153 175 149 218 q 175 99 157 133 q 225 44 193 65 q 309 23 258 23 q 431 52 376 23 q 527 127 486 81 q 595 233 568 174 q 633 353 621 292 q 647 544 650 448 q 620 734 644 641 l 665 734 q 683 545 680 640 q 669 355 686 450 q 646 264 661 309 q 607 179 630 220 q 554 103 585 138 q 487 42 524 68 q 406 1 450 16 q 311 -14 361 -14 q 211 10 251 -14 q 148 73 171 34 q 118 161 125 111 q 120 262 112 210 l 201 734 l 238 734 z "},"φ":{"ha":815,"x_min":106,"x_max":718,"o":"m 326 -14 q 238 10 275 -9 q 176 57 201 28 q 135 122 151 85 q 113 200 119 159 q 107 285 106 241 q 115 370 109 328 q 140 474 124 422 q 182 575 157 527 q 242 664 208 623 q 323 734 277 705 l 335 703 q 264 636 295 675 q 212 554 234 598 q 175 463 189 511 q 151 369 160 416 q 143 293 144 332 q 146 217 141 254 q 163 148 151 180 q 197 89 175 115 q 252 45 219 62 q 329 23 284 28 l 430 606 q 444 650 435 628 q 468 690 454 672 q 502 721 482 709 q 547 734 522 732 q 622 718 591 736 q 672 670 652 701 q 702 600 692 640 q 715 520 712 561 q 715 439 718 479 q 708 370 713 400 q 669 236 696 302 q 597 117 641 170 q 494 28 553 63 q 361 -14 435 -7 l 306 -325 l 271 -325 l 326 -14 m 363 22 q 481 61 429 28 q 572 142 534 94 q 636 250 611 191 q 672 369 661 309 q 679 426 676 392 q 681 498 682 460 q 673 573 680 536 q 651 639 666 610 q 610 684 635 668 q 547 697 585 701 q 516 686 530 695 q 494 665 503 677 q 478 636 484 652 q 468 606 471 621 l 363 22 z "},"ψ":{"ha":815,"x_min":100,"x_max":734,"o":"m 484 734 l 359 23 q 488 64 433 30 q 583 152 543 99 q 646 269 622 204 q 682 399 671 333 q 691 568 697 484 q 656 734 684 652 l 697 734 q 729 569 724 653 q 720 400 734 485 q 679 255 707 326 q 608 125 652 183 q 501 31 564 68 q 357 -13 439 -7 l 309 -281 l 273 -281 l 321 -13 q 230 13 269 -8 q 166 65 192 33 q 126 136 140 96 q 106 221 111 176 q 102 311 100 265 q 111 400 104 357 l 169 734 l 203 734 l 146 399 q 138 319 140 360 q 139 238 135 278 q 155 162 143 198 q 188 96 166 125 q 243 48 210 67 q 324 24 277 29 l 448 734 l 484 734 z "},"ω":{"ha":815,"x_min":37,"x_max":768,"o":"m 228 733 q 141 542 179 640 q 85 339 103 444 q 77 286 81 317 q 71 219 73 254 q 73 149 70 184 q 88 87 77 115 q 121 41 100 59 q 178 23 142 24 q 238 38 211 23 q 285 77 264 52 q 321 133 306 102 q 347 198 336 165 q 364 263 357 231 q 375 321 371 295 l 376 321 l 376 329 l 377 330 l 411 522 l 446 522 l 414 330 l 414 329 q 406 277 411 308 q 399 212 401 246 q 400 144 397 178 q 413 83 402 111 q 444 40 423 56 q 500 23 465 23 q 564 39 536 23 q 613 82 591 56 q 651 141 635 108 q 678 210 667 175 q 697 278 690 245 q 709 339 705 312 q 725 537 727 438 q 703 734 723 636 l 741 734 q 765 538 768 637 q 746 341 763 439 q 732 271 741 309 q 709 193 723 232 q 677 116 696 153 q 633 51 659 79 q 575 4 608 22 q 502 -14 543 -14 q 441 1 466 -14 q 400 38 416 15 q 377 92 385 62 q 367 153 369 121 q 336 93 353 122 q 296 39 319 63 q 243 1 273 16 q 177 -14 214 -14 q 108 5 135 -14 q 65 54 81 24 q 43 123 50 85 q 37 201 37 161 q 41 277 37 240 q 50 341 45 314 q 99 544 67 444 q 187 733 131 644 l 228 733 z "},"ϑ":{"ha":815,"x_min":87,"x_max":784,"o":"m 784 488 q 722 472 753 478 q 658 465 690 466 l 626 286 q 589 170 614 224 q 524 75 564 115 q 432 10 485 34 q 312 -14 378 -14 q 203 12 248 -14 q 131 79 158 37 q 96 174 104 121 q 96 286 87 228 l 134 506 l 170 507 l 132 286 q 130 189 124 235 q 156 105 135 142 q 216 46 178 68 q 311 23 254 24 q 417 43 370 23 q 498 99 464 64 q 556 183 533 135 q 589 286 578 231 l 622 465 q 496 493 553 469 q 398 557 438 516 q 340 654 359 597 q 332 784 321 711 l 334 799 q 359 876 342 838 q 404 945 377 915 q 466 995 431 976 q 545 1015 502 1015 q 612 1003 584 1016 q 659 969 640 991 q 689 919 678 947 q 705 858 700 890 q 708 794 709 827 q 703 731 707 761 l 661 501 q 722 508 692 503 q 781 524 751 514 l 784 488 m 368 783 q 373 666 357 716 q 424 580 389 615 q 511 525 459 545 q 625 501 563 505 l 667 731 q 673 784 671 755 q 672 840 675 812 q 663 892 670 867 q 641 937 656 918 q 603 967 626 956 q 545 979 579 979 q 480 962 509 978 q 429 920 451 946 q 393 863 407 895 q 372 799 378 831 l 368 783 z "},"ϒ":{"ha":815,"x_min":112,"x_max":899,"o":"m 640 840 q 675 895 656 867 q 718 945 694 922 q 770 982 741 968 q 833 995 798 996 q 867 989 851 994 q 899 975 883 983 l 881 949 q 857 959 869 954 q 831 963 844 963 q 778 950 802 964 q 734 916 754 937 q 699 870 715 895 q 670 824 683 846 l 428 416 l 356 0 l 320 0 l 393 427 l 291 824 q 278 870 286 846 q 258 916 271 895 q 227 950 245 937 q 180 962 208 963 q 151 958 165 962 q 123 947 137 953 l 112 977 q 144 989 127 984 q 178 995 161 994 q 236 982 212 996 q 276 946 260 968 q 303 896 293 924 q 321 840 314 868 l 396 537 l 414 457 l 463 543 l 640 840 z "},"ϖ":{"ha":815,"x_min":26,"x_max":848,"o":"m 842 697 l 746 697 q 758 519 761 608 q 739 341 755 430 q 725 271 734 309 q 703 193 716 232 q 671 116 690 153 q 626 51 652 79 q 568 4 601 22 q 494 -14 536 -14 q 433 0 458 -14 q 392 38 408 14 q 368 91 376 61 q 358 152 360 121 q 327 92 345 121 q 286 38 309 62 q 234 1 263 15 q 167 -14 204 -14 q 97 5 125 -14 q 54 54 70 24 q 32 122 39 84 q 26 200 26 161 q 30 277 26 240 q 38 341 33 313 q 82 525 54 435 q 157 698 111 615 l 66 697 l 71 734 l 848 734 l 842 697 m 703 339 q 718 518 719 429 q 705 697 717 607 l 200 697 q 123 523 156 612 q 74 339 90 434 q 66 286 70 317 q 60 219 62 254 q 62 149 59 184 q 78 86 66 115 q 111 41 90 58 q 168 23 133 24 q 229 37 202 22 q 276 77 256 52 q 312 133 297 101 q 337 198 327 164 q 355 263 348 231 q 367 321 362 296 l 368 330 l 403 524 l 437 524 l 406 330 l 401 304 q 393 254 397 283 q 389 194 390 225 q 393 132 389 163 q 408 77 397 101 q 440 38 420 53 q 494 23 461 23 q 557 39 529 23 q 606 82 585 56 q 644 141 628 108 q 671 210 660 174 q 690 278 683 245 q 703 339 698 312 z "},"Ђ":{"ha":815,"x_min":131,"x_max":724,"o":"m 709 951 l 396 951 l 321 538 q 417 579 368 562 q 519 597 466 597 q 597 584 563 597 q 655 548 631 571 q 694 495 679 526 q 717 430 709 465 q 724 357 724 395 q 718 281 724 319 q 684 175 709 225 q 621 85 659 124 q 533 21 583 46 q 425 -7 484 -3 l 429 27 q 523 54 480 31 q 597 111 565 76 q 650 189 629 145 q 681 281 671 233 q 688 346 687 313 q 684 409 689 378 q 667 468 679 440 q 635 516 655 495 q 586 549 615 536 q 519 561 557 561 q 467 555 492 561 q 416 541 441 550 q 367 522 391 532 q 319 500 342 511 l 231 0 l 197 0 l 361 951 l 131 951 l 136 987 l 714 987 l 709 951 z "},"Є":{"ha":815,"x_min":102,"x_max":780,"o":"m 709 302 q 661 181 692 238 q 584 80 629 123 q 480 12 538 37 q 351 -14 421 -14 q 252 6 294 -14 q 181 60 210 26 q 134 137 152 93 q 109 228 117 180 q 102 326 102 276 q 111 420 103 375 l 136 568 q 161 667 144 616 q 201 766 177 718 q 256 857 224 814 q 328 931 288 899 q 416 982 368 963 q 520 1001 464 1000 q 639 976 589 1002 q 721 907 689 950 q 766 806 752 863 q 777 686 780 749 l 741 686 q 731 791 742 741 q 694 880 720 842 q 625 942 668 919 q 521 964 583 965 q 426 946 469 964 q 347 900 382 929 q 283 831 311 870 q 233 748 254 792 q 196 659 211 705 q 172 569 181 612 l 163 519 l 542 519 l 537 483 l 158 483 l 147 420 q 139 336 140 380 q 142 248 137 292 q 162 163 148 204 q 200 92 176 123 q 262 42 225 61 q 351 23 299 24 q 466 45 414 22 q 557 106 517 68 q 626 195 597 144 q 673 302 654 246 l 709 302 z "},"Љ":{"ha":815,"x_min":-48,"x_max":760,"o":"m 566 987 l 490 548 l 615 548 q 675 533 650 547 q 718 499 701 520 q 744 450 734 477 q 756 392 753 422 q 758 332 760 362 q 752 274 757 301 q 728 182 745 229 q 684 95 711 134 q 618 28 657 55 q 527 0 579 2 l 363 0 l 528 951 l 317 951 l 237 557 q 225 494 231 531 q 211 413 219 456 q 191 322 202 369 q 166 230 180 275 q 133 144 152 185 q 91 72 115 103 q 37 21 66 41 q -29 0 7 2 l -48 0 l -43 37 l -26 37 q 28 57 3 39 q 72 106 52 76 q 108 176 92 136 q 137 258 124 215 q 160 345 150 300 q 177 429 170 389 q 190 502 184 469 q 201 557 196 536 l 293 987 l 566 987 m 484 511 l 401 37 l 526 37 q 604 62 571 39 q 659 121 636 86 q 695 196 682 155 q 716 275 709 237 q 724 348 722 308 q 716 424 725 388 q 683 484 707 459 q 616 511 660 509 l 484 511 z "},"Њ":{"ha":815,"x_min":24,"x_max":748,"o":"m 142 507 l 454 507 l 537 987 l 568 987 l 492 549 l 578 549 q 673 523 637 547 q 726 459 709 498 q 746 372 744 420 q 740 275 748 323 q 713 174 731 222 q 665 87 694 125 q 591 26 635 50 q 490 0 548 2 l 366 0 l 448 471 l 136 471 l 55 0 l 24 0 l 194 987 l 225 987 l 142 507 m 486 513 l 404 36 l 489 36 q 577 59 541 38 q 640 113 614 79 q 681 188 665 146 q 704 276 696 231 q 711 358 711 317 q 700 432 712 399 q 658 488 687 466 q 578 513 629 511 l 486 513 z "},"Ћ":{"ha":815,"x_min":139,"x_max":722,"o":"m 690 951 l 401 951 l 323 513 q 373 528 348 521 q 423 542 397 536 q 474 551 448 548 q 526 555 500 555 q 602 542 570 554 q 658 508 635 530 q 695 458 681 487 q 716 395 709 429 q 722 325 722 361 q 715 252 721 288 l 671 0 l 637 0 l 680 252 q 686 345 687 298 q 668 430 684 392 q 617 493 652 469 q 526 518 583 517 q 474 515 500 519 q 422 505 448 511 q 371 491 396 499 q 321 476 346 484 l 237 0 l 203 0 l 368 951 l 139 951 l 144 987 l 695 987 l 690 951 z "},"Џ":{"ha":815,"x_min":54,"x_max":787,"o":"m 222 987 l 257 987 l 93 37 l 588 37 l 752 987 l 787 987 l 616 0 l 354 0 l 313 -237 l 279 -237 l 319 0 l 54 0 l 222 987 z "},"Б":{"ha":815,"x_min":56,"x_max":791,"o":"m 786 951 l 257 951 l 185 534 l 398 534 q 504 514 456 533 q 585 459 553 494 q 632 376 618 425 q 637 267 646 327 q 597 157 627 206 q 525 74 568 109 q 427 20 481 39 q 313 0 372 1 l 56 0 l 227 987 l 791 987 l 786 951 m 178 498 l 98 37 l 312 37 q 412 55 364 38 q 499 101 460 71 q 564 173 537 131 q 600 269 591 216 q 598 362 610 320 q 559 433 587 404 q 490 480 531 463 q 399 498 448 496 l 178 498 z "},"Д":{"ha":815,"x_min":-30,"x_max":752,"o":"m 600 -237 l 566 -237 l 606 0 l 45 0 l 4 -237 l -30 -237 l 16 37 l 54 37 q 133 111 99 66 q 192 211 167 157 q 236 327 218 266 q 268 448 254 387 q 292 567 281 509 q 313 672 303 624 l 380 987 l 752 987 l 588 37 l 645 37 l 600 -237 m 349 672 q 316 507 334 595 q 272 334 298 420 q 206 170 245 248 q 107 36 167 93 l 553 37 l 711 951 l 406 951 l 349 672 z "},"Ж":{"ha":815,"x_min":-31,"x_max":853,"o":"m 497 488 l 434 488 l 349 0 l 317 0 l 401 488 l 342 488 l 9 0 l -31 0 l 309 500 l 154 988 l 192 988 l 335 525 l 408 525 l 488 987 l 520 987 l 440 525 l 509 525 l 812 987 l 853 987 l 528 494 l 698 0 l 659 0 l 497 488 z "},"З":{"ha":815,"x_min":39,"x_max":790,"o":"m 412 523 q 520 535 466 524 q 620 572 574 547 q 699 637 666 597 q 743 737 732 678 q 737 839 754 796 q 684 910 720 882 q 599 951 648 938 q 499 964 550 964 q 391 948 443 964 q 296 902 339 932 q 221 828 253 871 q 175 730 190 785 l 138 730 q 186 842 152 792 q 270 927 221 892 q 377 981 318 962 q 498 1001 435 1000 q 613 984 558 1001 q 709 935 669 968 q 770 851 750 901 q 779 734 790 801 q 749 650 771 688 q 695 585 727 613 q 623 536 663 556 q 539 504 583 516 q 620 471 584 492 q 679 419 655 450 q 711 349 702 389 q 713 262 721 310 q 664 142 701 194 q 574 56 627 91 q 457 3 521 21 q 330 -14 393 -14 q 211 6 265 -14 q 117 64 156 26 q 58 155 78 102 q 45 274 39 208 l 81 274 q 92 169 75 216 q 143 90 109 123 q 225 40 177 58 q 329 22 273 23 q 443 36 386 22 q 548 80 500 50 q 630 154 595 109 q 675 259 664 199 q 677 335 684 302 q 653 393 671 368 q 609 436 635 418 q 551 464 583 453 q 483 479 519 474 q 412 485 448 484 l 288 485 l 294 523 l 412 523 z "},"И":{"ha":815,"x_min":49,"x_max":790,"o":"m 755 987 l 790 987 l 620 0 l 585 0 l 746 920 l 83 0 l 49 0 l 219 987 l 254 987 l 90 64 l 755 987 z "},"Л":{"ha":815,"x_min":-37,"x_max":797,"o":"m 797 987 l 626 0 l 591 0 l 755 951 l 372 951 l 283 557 q 264 464 275 519 q 237 348 253 409 q 199 226 221 287 q 146 115 177 165 q 76 34 116 66 q -15 0 37 3 l -37 0 l -32 37 l -12 37 q 47 57 20 39 q 97 104 74 75 q 138 173 119 134 q 171 254 156 212 q 198 340 186 296 q 219 425 210 385 q 235 499 228 465 q 247 557 241 534 l 345 987 l 797 987 z "},"У":{"ha":815,"x_min":41,"x_max":905,"o":"m 410 306 l 431 336 l 859 987 l 905 987 l 368 174 q 317 106 345 140 q 256 45 289 73 q 184 2 223 18 q 101 -14 146 -14 q 71 -11 85 -14 q 41 -5 56 -8 l 56 28 q 80 24 68 26 q 105 22 92 22 q 174 37 142 23 q 233 74 205 52 q 283 124 260 96 q 325 180 306 153 l 386 269 l 108 988 l 151 988 l 410 306 z "},"Ц":{"ha":815,"x_min":77,"x_max":815,"o":"m 246 987 l 281 987 l 117 37 l 616 37 l 781 987 l 815 987 l 651 37 l 724 37 l 676 -238 l 642 -238 l 682 0 l 77 0 l 246 987 z "},"Ч":{"ha":815,"x_min":198,"x_max":765,"o":"m 765 987 l 595 0 l 561 0 l 646 487 q 536 458 592 471 q 423 446 481 446 q 310 472 356 447 q 238 538 264 496 q 205 634 212 579 q 208 749 198 689 l 250 987 l 284 987 l 244 749 q 241 649 236 697 q 266 565 245 602 q 326 506 287 528 q 424 483 364 484 q 538 495 481 482 q 649 524 594 508 l 730 987 l 765 987 z "},"Ш":{"ha":815,"x_min":25,"x_max":814,"o":"m 229 987 l 64 37 l 324 37 l 489 987 l 522 987 l 357 37 l 617 37 l 782 987 l 814 987 l 644 0 l 25 0 l 196 987 l 229 987 z "},"Щ":{"ha":815,"x_min":28,"x_max":817,"o":"m 231 987 l 67 37 l 327 37 l 492 987 l 525 987 l 360 37 l 620 37 l 785 987 l 817 987 l 653 37 l 702 37 l 656 -238 l 624 -238 l 665 0 l 28 0 l 199 987 l 231 987 z "},"Ъ":{"ha":815,"x_min":123,"x_max":747,"o":"m 128 987 l 444 987 l 366 534 l 542 534 q 639 511 598 533 q 705 452 680 488 q 739 367 730 415 q 739 267 747 319 q 706 165 730 213 q 645 81 682 117 q 561 23 608 45 q 456 0 513 1 l 239 0 l 404 951 l 123 951 l 128 987 m 359 498 l 279 37 l 456 37 q 546 57 505 38 q 619 107 587 76 q 671 180 650 139 q 701 269 692 222 q 704 353 709 313 q 678 426 698 394 q 625 477 659 457 q 543 498 591 496 l 359 498 z "},"Ы":{"ha":815,"x_min":56,"x_max":795,"o":"m 181 534 l 319 534 q 416 511 376 533 q 481 452 457 488 q 513 368 506 415 q 512 267 521 320 q 480 165 503 213 q 421 81 456 117 q 338 23 385 45 q 233 0 290 1 l 56 0 l 227 987 l 260 987 l 181 534 m 175 498 l 95 37 l 233 37 q 324 57 283 39 q 395 107 365 76 q 446 180 426 138 q 475 269 467 222 q 478 353 483 313 q 454 426 473 394 q 402 476 435 457 q 319 498 368 496 l 175 498 m 625 0 l 592 0 l 762 987 l 795 987 l 625 0 z "},"Ь":{"ha":815,"x_min":87,"x_max":678,"o":"m 216 534 l 430 534 q 536 514 488 533 q 617 459 585 494 q 664 376 650 425 q 669 267 678 327 q 629 157 659 206 q 556 74 600 109 q 459 20 513 39 q 345 0 404 1 l 87 0 l 258 987 l 294 987 l 216 534 m 210 498 l 130 37 l 344 37 q 444 55 396 38 q 531 101 492 71 q 596 173 569 131 q 632 269 623 216 q 630 362 642 320 q 591 433 618 404 q 522 480 563 463 q 431 498 480 496 l 210 498 z "},"Э":{"ha":815,"x_min":72,"x_max":745,"o":"m 111 302 q 120 197 109 248 q 156 107 130 146 q 224 45 182 68 q 329 23 267 22 q 423 41 380 24 q 502 88 467 58 q 566 157 538 118 q 615 240 594 196 q 651 330 637 284 q 674 420 666 376 l 685 481 l 312 481 l 317 518 l 691 518 l 700 569 q 708 652 707 608 q 705 740 710 696 q 686 824 700 783 q 648 895 672 864 q 586 945 623 926 q 498 964 549 964 q 385 942 435 965 q 295 881 334 920 q 226 792 255 842 q 178 687 197 742 l 143 687 q 191 807 159 750 q 268 907 222 864 q 371 976 313 951 q 498 1001 429 1001 q 597 981 555 1000 q 668 927 639 961 q 713 850 696 894 q 738 759 730 807 q 744 661 745 711 q 736 568 743 612 l 711 420 q 686 321 702 372 q 647 222 670 270 q 592 131 623 174 q 521 56 560 88 q 434 5 481 24 q 330 -14 386 -14 q 211 12 260 -14 q 130 82 161 38 q 85 183 99 125 q 76 302 72 240 l 111 302 z "},"Ю":{"ha":815,"x_min":24,"x_max":773,"o":"m 733 420 q 714 332 726 380 q 685 237 703 285 q 644 143 668 189 q 588 63 620 98 q 514 7 555 28 q 422 -14 473 -14 q 337 9 371 -14 q 282 68 302 31 q 252 151 261 104 q 242 246 243 198 q 245 340 241 294 q 256 420 250 385 l 269 497 l 143 497 l 57 0 l 24 0 l 195 987 l 227 987 l 149 534 l 274 534 l 281 568 q 300 655 288 608 q 330 751 312 703 q 371 844 347 799 q 427 924 395 889 q 499 980 458 959 q 591 1001 540 1001 q 677 979 643 1001 q 732 920 711 956 q 762 837 753 883 q 772 742 770 790 q 769 648 773 694 q 759 568 764 602 l 733 420 m 722 569 q 732 639 727 598 q 738 723 737 680 q 733 810 739 767 q 711 887 727 853 q 666 943 695 922 q 591 964 637 964 q 510 945 546 964 q 445 893 473 925 q 396 819 417 861 q 360 733 375 777 q 335 647 345 690 q 319 569 325 604 l 292 420 q 282 350 288 391 q 277 266 277 309 q 281 178 276 222 q 303 100 287 135 q 348 44 319 66 q 422 23 376 23 q 504 43 468 23 q 569 95 541 62 q 618 169 597 127 q 655 254 640 210 q 680 341 670 298 q 696 420 690 385 l 722 569 z "},"Я":{"ha":815,"x_min":-14,"x_max":764,"o":"m 556 0 l 628 420 l 314 420 l 29 0 l -14 0 l 281 429 l 280 431 q 211 475 240 449 q 163 535 181 502 q 139 608 145 568 q 140 690 133 647 q 181 810 150 756 q 259 904 212 865 q 364 964 305 943 q 489 987 422 986 l 764 987 l 593 0 l 556 0 m 176 692 q 176 602 168 644 q 209 528 185 559 q 271 477 233 496 q 358 457 309 458 l 634 457 l 720 951 l 489 951 q 378 931 431 949 q 285 879 326 912 q 215 798 243 845 q 176 692 187 750 z "},"б":{"ha":815,"x_min":69,"x_max":745,"o":"m 441 680 q 563 653 510 680 q 651 582 616 627 q 701 478 686 537 q 707 354 715 419 l 703 326 q 660 197 691 258 q 582 89 629 136 q 473 14 534 42 q 341 -14 412 -14 q 217 15 271 -14 q 130 91 164 43 q 83 199 96 138 q 78 326 69 260 l 82 354 l 83 360 l 90 401 q 114 514 98 457 q 154 626 130 572 q 209 729 177 680 q 282 817 241 778 q 374 884 323 857 q 487 922 425 911 q 555 936 520 928 q 620 956 589 943 q 673 992 650 970 q 708 1053 696 1015 l 745 1053 q 708 978 733 1008 q 649 930 683 949 q 574 902 614 912 q 493 886 534 892 q 371 842 424 876 q 278 759 318 808 q 208 652 237 711 q 155 534 178 594 q 282 640 208 601 q 441 680 355 680 m 442 643 q 327 620 381 643 q 231 556 273 596 q 159 464 188 517 q 119 354 130 412 l 114 326 q 117 214 106 269 q 156 118 127 160 q 232 49 185 75 q 340 23 278 23 q 458 48 404 23 q 555 115 513 73 q 626 212 597 157 q 665 326 654 267 l 669 354 q 666 463 677 410 q 624 555 654 515 q 548 619 594 595 q 442 643 502 643 z "},"в":{"ha":815,"x_min":65,"x_max":682,"o":"m 65 0 l 193 734 l 448 734 q 536 723 492 733 q 613 691 580 713 q 664 633 646 669 q 673 544 682 597 q 652 483 667 509 q 617 437 638 457 q 569 404 596 418 q 511 379 543 389 l 514 377 q 573 354 547 370 q 617 315 600 338 q 642 263 634 292 q 644 199 649 233 q 610 111 636 148 q 547 50 585 74 q 465 13 510 25 q 372 0 419 1 l 65 0 m 163 353 l 109 37 l 372 37 q 450 47 412 37 q 521 76 489 56 q 576 125 553 95 q 608 198 600 155 q 602 269 615 239 q 563 316 589 298 q 503 344 537 335 q 433 353 468 353 l 163 353 m 170 390 l 408 390 q 484 400 447 391 q 553 427 522 409 q 606 475 584 446 q 636 546 628 504 q 637 600 642 576 q 619 639 632 623 q 587 667 606 656 q 545 684 568 677 q 496 693 522 690 q 448 696 471 696 l 223 696 l 170 390 z "},"г":{"ha":815,"x_min":69,"x_max":741,"o":"m 736 696 l 229 696 l 109 0 l 69 0 l 196 734 l 741 734 l 736 696 z "},"д":{"ha":815,"x_min":-19,"x_max":726,"o":"m 69 37 q 207 243 155 132 q 286 479 258 355 l 344 734 l 726 734 l 606 37 l 663 37 l 619 -216 l 583 -216 l 619 0 l 48 0 l 11 -216 l -19 -216 l 23 37 l 69 37 m 323 479 q 292 358 310 418 q 250 242 275 298 q 192 133 225 185 q 115 36 159 81 l 569 37 l 684 697 l 372 697 l 323 479 z "},"ж":{"ha":815,"x_min":-60,"x_max":812,"o":"m 481 358 l 407 358 l 345 0 l 311 0 l 373 358 l 303 358 l -16 0 l -60 0 l 270 376 l 99 734 l 138 734 l 298 395 l 379 395 l 437 734 l 471 734 l 413 395 l 491 395 l 769 733 l 812 732 l 516 370 l 718 0 l 677 0 l 481 358 z "},"з":{"ha":815,"x_min":78,"x_max":739,"o":"m 413 393 q 500 400 454 394 q 586 422 545 406 q 656 468 626 438 q 695 546 686 498 q 695 604 702 578 q 672 647 688 629 q 633 677 656 665 q 583 697 610 690 q 529 708 557 705 q 476 711 501 711 q 388 701 433 711 q 304 671 343 692 q 235 619 264 651 q 193 543 205 587 l 153 543 q 202 633 169 595 q 278 697 235 671 q 372 734 321 722 q 475 747 423 747 q 539 743 506 747 q 603 729 572 739 q 660 703 633 719 q 705 665 686 688 q 731 612 723 642 q 732 544 739 582 q 708 480 726 507 q 664 432 690 452 q 607 398 638 412 q 543 375 575 384 q 606 352 576 367 q 655 316 635 338 q 684 264 675 294 q 687 197 693 235 q 643 99 677 138 q 561 34 609 59 q 458 -2 513 9 q 351 -13 402 -13 q 251 -1 300 -13 q 163 38 201 12 q 101 105 125 64 q 79 204 78 146 l 119 204 q 133 120 113 154 q 188 65 153 86 q 266 35 222 44 q 351 24 309 25 q 443 32 395 24 q 534 59 492 39 q 608 112 576 79 q 649 195 640 144 q 648 256 656 230 q 623 299 641 281 q 580 328 606 317 q 526 345 555 339 q 468 354 498 351 q 413 356 439 356 l 298 356 l 303 393 l 413 393 z "},"и":{"ha":815,"x_min":71,"x_max":726,"o":"m 687 733 l 726 734 l 600 0 l 562 0 l 677 664 l 108 0 l 71 0 l 196 734 l 233 734 l 115 65 l 687 733 z "},"к":{"ha":815,"x_min":92,"x_max":769,"o":"m 336 359 l 192 359 l 130 0 l 92 0 l 218 734 l 256 734 l 198 395 l 345 395 l 709 734 l 769 733 l 377 372 l 682 0 l 630 0 l 336 359 z "},"л":{"ha":815,"x_min":-20,"x_max":715,"o":"m 715 734 l 589 0 l 551 0 l 671 696 l 324 696 l 261 400 q 244 320 253 363 q 223 234 236 277 q 192 149 210 190 q 149 75 174 107 q 87 22 123 43 q 3 0 52 2 l -20 0 l -15 36 l 7 36 q 78 57 48 38 q 130 107 109 77 q 167 175 152 137 q 192 253 182 214 q 210 331 203 293 q 224 400 217 370 l 295 734 l 715 734 z "},"м":{"ha":815,"x_min":37,"x_max":737,"o":"m 335 58 l 699 733 l 737 734 l 612 0 l 578 0 l 688 641 l 340 0 l 314 0 l 186 664 l 71 0 l 37 0 l 163 734 l 205 734 l 335 58 z "},"н":{"ha":815,"x_min":70,"x_max":726,"o":"m 600 0 l 562 0 l 623 359 l 168 359 l 106 0 l 70 0 l 196 734 l 233 734 l 174 395 l 629 395 l 688 734 l 726 734 l 600 0 z "},"п":{"ha":815,"x_min":70,"x_max":725,"o":"m 600 0 l 562 0 l 682 696 l 227 696 l 107 0 l 70 0 l 197 734 l 725 734 l 600 0 z "},"т":{"ha":815,"x_min":131,"x_max":802,"o":"m 798 696 l 475 696 l 355 0 l 316 0 l 436 696 l 131 696 l 136 734 l 802 734 l 798 696 z "},"ф":{"ha":815,"x_min":73,"x_max":722,"o":"m 87 381 q 130 513 100 450 q 205 626 160 576 q 311 708 251 676 q 444 747 372 741 l 496 1042 l 533 1042 l 481 747 q 600 706 551 740 q 676 620 648 671 q 713 507 705 569 q 712 381 722 444 l 707 353 q 665 221 695 284 q 590 108 635 158 q 485 26 545 58 q 353 -13 425 -7 l 304 -282 l 268 -282 l 316 -13 q 197 27 245 -7 q 119 113 148 62 q 82 227 91 164 q 83 353 73 290 l 87 381 m 119 353 q 117 240 110 296 q 147 139 123 184 q 213 62 171 93 q 319 24 256 31 l 441 710 q 325 673 378 703 q 232 598 272 644 q 164 497 191 553 q 125 381 137 441 l 119 353 m 675 381 q 678 492 684 437 q 648 594 672 548 q 582 671 624 640 q 478 710 540 703 l 355 24 q 472 60 419 31 q 565 135 524 90 q 632 237 605 180 q 670 353 659 293 l 675 381 z "},"ц":{"ha":815,"x_min":105,"x_max":743,"o":"m 230 734 l 267 734 l 146 37 l 585 37 l 706 734 l 743 734 l 623 37 l 683 37 l 639 -218 l 602 -218 l 640 0 l 105 0 l 230 734 z "},"ч":{"ha":815,"x_min":138,"x_max":726,"o":"m 600 0 l 563 0 l 627 355 q 513 315 572 330 q 393 300 454 300 q 275 317 326 299 q 193 369 224 334 q 149 455 161 404 q 148 575 138 507 l 174 734 l 212 734 l 184 575 q 184 471 175 516 q 220 396 193 427 q 291 350 247 366 q 393 336 334 335 q 514 349 454 338 q 629 387 574 360 l 689 734 l 726 734 l 600 0 z "},"ш":{"ha":815,"x_min":26,"x_max":770,"o":"m 186 734 l 66 37 l 326 37 l 446 734 l 479 734 l 359 37 l 615 37 l 736 734 l 770 734 l 643 0 l 26 0 l 153 734 l 186 734 z "},"щ":{"ha":815,"x_min":25,"x_max":769,"o":"m 185 734 l 65 37 l 325 37 l 446 734 l 479 734 l 359 37 l 614 37 l 736 734 l 769 734 l 648 37 l 707 37 l 664 -218 l 631 -218 l 668 0 l 25 0 l 152 734 l 185 734 z "},"ъ":{"ha":815,"x_min":95,"x_max":721,"o":"m 100 734 l 359 734 l 310 454 l 513 454 q 602 436 562 453 q 669 389 642 419 q 709 318 696 359 q 713 227 721 277 q 680 135 705 176 q 619 64 655 94 q 537 18 583 35 q 441 0 491 1 l 195 0 l 316 697 l 95 697 l 100 734 m 304 418 l 238 37 l 440 37 q 522 52 483 38 q 592 91 561 66 q 646 151 624 116 q 676 229 668 186 q 675 304 684 270 q 643 364 665 339 q 587 402 621 389 q 513 418 554 416 l 304 418 z "},"ы":{"ha":815,"x_min":50,"x_max":747,"o":"m 163 454 l 328 454 q 408 433 374 452 q 461 381 441 413 q 488 310 481 350 q 488 227 495 270 q 461 142 481 182 q 412 71 441 102 q 342 21 382 39 q 256 0 302 2 l 50 0 l 177 734 l 211 734 l 163 454 m 157 418 l 90 37 l 254 37 q 328 55 294 39 q 386 97 361 71 q 428 157 411 123 q 452 229 444 191 q 454 296 458 263 q 435 356 450 330 q 393 399 420 382 q 327 418 366 416 l 157 418 m 620 0 l 587 0 l 713 734 l 747 734 l 620 0 z "},"ь":{"ha":815,"x_min":68,"x_max":669,"o":"m 184 454 l 424 454 q 520 438 473 453 q 600 395 566 424 q 651 325 634 367 q 660 227 669 283 q 622 130 651 172 q 550 59 592 87 q 456 16 507 31 q 352 0 404 1 l 68 0 l 195 734 l 233 734 l 184 454 m 178 418 l 112 37 l 352 37 q 441 50 397 37 q 524 86 486 62 q 588 145 561 110 q 623 229 614 180 q 618 311 632 276 q 574 370 604 347 q 506 405 545 393 q 425 418 466 416 l 178 418 z "},"э":{"ha":815,"x_min":71,"x_max":709,"o":"m 439 711 q 346 697 391 711 q 264 658 301 684 q 200 594 227 632 q 160 509 173 557 l 121 509 q 166 608 136 564 q 238 683 196 652 q 332 730 280 713 q 439 747 383 747 q 531 733 490 747 q 604 693 572 718 q 657 632 635 667 q 692 557 680 597 q 706 471 704 516 q 702 381 709 427 l 697 353 q 652 215 684 281 q 571 98 620 149 q 457 17 522 47 q 315 -14 393 -14 q 211 5 257 -14 q 133 58 164 24 q 86 140 101 92 q 75 245 71 188 l 113 245 q 119 155 107 195 q 158 84 131 114 q 225 39 185 55 q 315 23 265 23 q 443 51 385 23 q 543 124 500 78 q 616 229 587 170 q 662 350 646 288 l 250 350 l 256 387 l 665 387 q 666 505 674 446 q 630 609 658 563 q 555 683 603 654 q 439 711 508 711 z "},"ю":{"ha":815,"x_min":20,"x_max":754,"o":"m 118 378 l 279 377 l 279 382 q 300 460 288 418 q 330 542 312 501 q 370 619 347 582 q 423 685 393 656 q 490 730 453 713 q 573 747 528 747 q 651 729 619 747 q 704 682 683 711 q 736 614 725 652 q 750 535 747 576 q 752 454 754 494 q 745 381 750 414 l 740 353 q 722 275 733 316 q 693 193 710 233 q 652 115 676 152 q 599 49 629 77 q 531 3 569 20 q 449 -14 494 -14 q 372 3 404 -14 q 319 49 340 20 q 287 114 298 77 q 272 191 276 151 q 270 269 268 230 q 277 341 271 308 l 112 341 l 53 0 l 20 0 l 146 734 l 180 734 l 118 378 m 313 353 q 305 291 308 326 q 304 219 302 256 q 314 147 307 182 q 339 84 322 112 q 382 40 355 57 q 449 23 409 23 q 521 39 488 23 q 579 80 553 54 q 626 140 606 106 q 662 211 647 174 q 688 284 677 248 q 704 353 698 321 l 709 381 q 716 443 713 408 q 717 515 719 478 q 707 586 715 551 q 683 649 699 621 q 639 694 666 677 q 573 711 612 711 q 501 695 534 711 q 443 653 469 680 q 396 593 416 627 q 360 523 375 559 q 334 449 345 486 q 317 381 323 412 l 313 353 z "},"я":{"ha":815,"x_min":12,"x_max":688,"o":"m 688 734 l 561 0 l 524 0 l 576 305 l 301 305 l 58 0 l 12 0 l 258 311 q 190 338 220 319 q 142 385 161 357 q 116 446 123 412 q 115 519 109 480 q 152 611 124 572 q 219 678 180 651 q 307 719 259 705 q 405 734 355 732 l 688 734 m 152 518 q 154 447 144 479 q 184 392 163 415 q 238 357 206 370 q 307 342 269 344 l 583 342 l 644 696 l 405 696 q 321 684 363 695 q 245 651 280 673 q 185 596 210 629 q 152 518 161 563 z "},"ђ":{"ha":815,"x_min":77,"x_max":709,"o":"m 465 855 l 262 855 l 209 557 q 265 631 233 596 q 334 691 296 665 q 415 732 372 717 q 507 747 458 747 q 608 725 567 747 q 672 665 649 703 q 702 578 696 627 q 701 475 709 528 l 619 0 l 618 0 l 608 -60 q 580 -149 600 -106 q 531 -224 561 -191 q 461 -276 501 -256 q 370 -296 420 -296 q 323 -292 347 -296 q 277 -282 300 -288 l 291 -248 q 330 -257 311 -254 q 370 -260 350 -260 q 446 -242 412 -259 q 505 -197 480 -225 q 547 -134 530 -170 q 571 -60 564 -98 l 629 281 l 630 281 l 664 475 q 668 563 671 520 q 646 639 664 606 q 593 692 627 672 q 505 711 559 712 q 409 691 457 711 q 318 640 360 672 q 244 565 275 607 q 198 476 212 522 l 116 0 l 79 0 l 226 855 l 77 855 l 83 892 l 233 892 l 258 1042 l 295 1042 l 268 892 l 470 892 l 465 855 z "},"є":{"ha":815,"x_min":102,"x_max":703,"o":"m 346 23 q 437 37 394 23 q 514 78 479 52 q 575 140 549 104 q 616 222 602 177 l 653 222 q 609 126 638 170 q 540 52 580 83 q 451 4 500 21 q 347 -14 401 -14 q 257 2 296 -14 q 190 43 218 17 q 142 105 161 70 q 114 182 124 141 q 103 266 104 222 q 109 353 102 310 l 114 381 q 155 514 126 448 q 229 631 184 579 q 334 715 274 683 q 470 747 395 747 q 570 728 526 747 q 645 674 614 708 q 689 593 675 640 q 701 492 703 546 l 665 492 q 656 578 667 538 q 619 648 644 618 q 556 694 594 677 q 471 711 519 711 q 350 682 404 711 q 256 608 296 654 q 190 504 216 562 q 152 387 164 446 l 541 387 l 536 350 l 145 350 q 139 274 139 313 q 146 199 139 235 q 169 131 153 163 q 208 75 184 99 q 266 37 232 51 q 346 23 300 23 z "},"љ":{"ha":815,"x_min":-54,"x_max":770,"o":"m 509 734 l 456 427 l 610 427 q 686 407 654 425 q 738 359 718 389 q 764 292 757 330 q 764 214 770 254 q 738 133 757 171 q 691 66 720 95 q 625 20 663 37 q 543 0 587 2 l 348 0 l 469 696 l 222 696 l 172 400 q 161 329 167 370 q 147 244 156 288 q 125 157 138 200 q 90 80 111 115 q 39 24 69 46 q -33 0 9 2 l -54 0 l -49 37 l -30 37 q 28 60 4 39 q 70 114 53 81 q 98 185 87 146 q 115 265 109 225 q 126 340 122 304 q 135 400 131 376 l 195 734 l 509 734 m 450 391 l 389 37 l 543 37 q 611 54 580 39 q 666 93 642 68 q 705 148 690 117 q 728 215 721 180 q 730 278 734 248 q 711 334 726 309 q 672 373 697 358 q 610 391 647 389 l 450 391 z "},"њ":{"ha":815,"x_min":21,"x_max":741,"o":"m 128 429 l 414 429 l 467 734 l 500 734 l 448 427 l 592 427 q 666 406 635 425 q 713 357 696 387 q 736 290 731 328 q 735 214 741 252 q 711 135 728 173 q 667 68 694 98 q 604 20 640 39 q 524 0 568 2 l 340 0 l 408 392 l 122 392 l 54 0 l 21 0 l 148 734 l 181 734 l 128 429 m 441 391 l 380 37 l 524 37 q 590 54 561 39 q 642 94 620 69 q 679 150 664 118 q 699 215 693 181 q 703 277 705 246 q 687 332 700 307 q 651 373 675 357 q 592 391 628 389 l 441 391 z "},"ћ":{"ha":815,"x_min":60,"x_max":690,"o":"m 495 871 l 246 871 l 191 557 q 247 631 215 596 q 316 691 278 665 q 397 732 353 717 q 488 747 440 747 q 590 725 549 747 q 654 665 631 703 q 684 578 677 627 q 682 475 690 528 l 601 0 l 564 0 l 646 475 q 649 563 653 520 q 627 639 646 606 q 575 692 609 672 q 487 711 541 712 q 390 691 439 711 q 299 640 342 672 q 225 565 257 607 q 180 476 194 522 l 98 0 l 60 0 l 210 871 l 108 871 l 113 907 l 217 907 l 240 1042 l 277 1042 l 253 907 l 500 907 l 495 871 z "},"џ":{"ha":815,"x_min":69,"x_max":726,"o":"m 233 734 l 113 37 l 568 37 l 688 734 l 726 734 l 600 0 l 356 0 l 315 -237 l 278 -237 l 319 0 l 69 0 l 196 734 l 233 734 z "},"Ѡ":{"ha":815,"x_min":46,"x_max":852,"o":"m 852 987 l 734 291 q 720 227 728 261 q 699 159 711 193 q 668 94 686 125 q 627 39 650 63 q 573 1 603 16 q 506 -14 543 -14 q 447 0 471 -14 q 407 35 422 13 q 382 86 391 58 q 372 145 374 115 q 341 88 358 116 q 301 37 323 60 q 249 1 278 15 q 185 -14 220 -14 q 121 2 146 -14 q 80 42 96 17 q 57 99 64 67 q 48 165 50 131 q 49 232 46 199 q 56 291 52 264 l 178 987 l 211 987 l 92 291 q 85 243 88 271 q 82 185 82 215 q 86 127 81 156 q 102 75 90 98 q 133 37 113 52 q 185 23 153 23 q 241 36 216 23 q 286 71 267 50 q 321 120 306 92 q 347 178 336 149 q 365 237 357 208 q 376 291 372 267 l 498 987 l 532 987 l 413 291 q 406 243 410 271 q 403 185 403 215 q 407 127 403 156 q 422 75 411 98 q 453 37 433 52 q 505 23 473 23 q 562 36 536 23 q 607 71 587 50 q 642 120 627 92 q 667 178 656 149 q 685 237 678 208 q 697 291 692 267 l 820 987 l 852 987 z "},"ѡ":{"ha":815,"x_min":15,"x_max":826,"o":"m 826 734 l 748 277 q 733 213 743 246 q 710 147 724 180 q 677 85 696 115 q 633 34 658 56 q 578 -1 609 12 q 511 -14 548 -14 q 449 -2 475 -14 q 405 33 423 11 q 377 84 387 55 q 364 144 368 113 q 331 85 350 114 q 288 35 312 57 q 233 -1 263 12 q 166 -14 203 -14 q 101 0 128 -14 q 57 37 75 14 q 31 90 40 60 q 18 152 22 119 q 16 217 15 184 q 22 277 18 250 l 102 734 l 136 734 l 59 277 q 53 228 56 256 q 52 173 51 201 q 59 117 54 144 q 78 69 65 90 q 113 35 92 48 q 165 22 134 22 q 223 34 197 22 q 270 66 249 46 q 306 112 290 85 q 334 166 322 138 q 354 223 346 195 q 367 277 362 252 l 446 734 l 481 734 l 404 277 l 402 270 q 397 221 399 248 q 396 167 395 195 q 405 114 398 140 q 424 67 411 87 q 458 35 437 47 q 511 22 479 22 q 592 48 557 22 q 651 112 627 73 q 690 195 675 150 q 712 277 705 239 l 791 734 l 826 734 z "},"ѣ":{"ha":815,"x_min":83,"x_max":655,"o":"m 470 734 l 253 734 l 204 454 l 427 454 q 520 437 476 453 q 594 392 564 421 q 640 322 625 363 q 647 227 655 280 q 611 132 638 174 q 544 61 583 90 q 455 17 504 33 q 355 0 407 1 l 89 0 l 216 734 l 83 734 l 87 770 l 222 770 l 269 1043 l 306 1043 l 259 770 l 475 770 l 470 734 m 198 418 l 132 37 l 355 37 q 441 51 399 38 q 518 88 483 64 q 577 148 553 113 q 610 229 602 182 q 607 308 619 273 q 569 367 595 343 q 506 404 543 391 q 428 418 469 416 l 198 418 z "},"Ѥ":{"ha":815,"x_min":36,"x_max":814,"o":"m 162 538 l 296 538 l 301 568 q 322 657 309 609 q 352 753 334 705 q 395 846 370 801 q 452 925 420 890 q 527 980 485 960 q 620 1002 568 1001 q 694 988 662 1002 q 748 951 726 975 q 784 896 770 927 q 805 829 798 864 q 813 757 812 793 q 810 687 814 721 l 777 687 q 776 747 777 715 q 770 810 775 779 q 756 869 766 841 q 729 919 746 897 q 685 952 711 940 q 621 965 659 965 q 537 945 574 964 q 472 894 500 926 q 421 821 443 862 q 384 736 399 780 q 357 649 368 692 q 338 570 346 606 l 332 538 l 568 538 l 563 502 l 328 502 l 313 420 q 304 350 309 391 q 299 265 299 309 q 306 178 299 221 q 329 101 312 135 q 375 45 346 66 q 451 24 405 24 q 550 50 509 23 q 622 117 592 76 q 673 207 652 158 q 709 302 693 256 l 743 302 q 708 192 732 248 q 649 91 685 136 q 564 16 613 45 q 451 -13 514 -13 q 364 9 399 -13 q 308 68 329 32 q 277 151 286 104 q 265 245 267 197 q 267 339 263 293 q 277 420 271 385 l 291 502 l 156 502 l 69 0 l 36 0 l 207 987 l 240 987 l 162 538 z "},"ѥ":{"ha":815,"x_min":59,"x_max":772,"o":"m 601 362 l 342 362 l 337 332 q 329 269 332 303 q 327 201 326 235 q 337 135 329 167 q 361 78 345 102 q 406 38 378 53 q 473 23 433 23 q 551 40 517 23 q 611 86 585 58 q 655 150 637 114 q 686 222 674 185 l 721 222 q 690 135 711 178 q 637 60 669 93 q 564 7 606 27 q 474 -14 523 -14 q 396 2 429 -14 q 342 45 363 18 q 309 108 321 73 q 294 182 298 143 q 292 259 290 220 q 300 332 294 298 l 307 362 l 155 362 l 92 0 l 59 0 l 184 734 l 218 734 l 161 399 l 309 398 l 309 402 q 329 479 317 439 q 358 557 341 519 q 398 630 376 595 q 450 691 420 665 q 516 732 479 717 q 599 747 553 747 q 660 736 633 747 q 707 707 687 726 q 741 663 727 688 q 761 610 754 638 q 770 551 768 581 q 768 492 772 521 l 734 492 q 732 566 736 528 q 713 637 728 605 q 671 690 699 669 q 599 711 644 711 q 527 697 559 711 q 469 660 494 683 q 423 605 443 636 q 389 539 404 574 q 364 470 374 505 q 346 402 353 434 l 345 398 l 606 399 l 601 362 z "},"Ѧ":{"ha":815,"x_min":-23,"x_max":707,"o":"m 609 345 l 416 345 l 356 0 l 321 0 l 380 345 l 197 345 l 17 0 l -23 0 l 490 987 l 532 987 l 707 0 l 669 0 l 609 345 m 216 381 l 602 381 l 514 888 l 507 945 l 477 882 l 216 381 z "},"ѧ":{"ha":815,"x_min":13,"x_max":667,"o":"m 558 268 l 407 268 l 361 0 l 324 0 l 370 268 l 216 268 l 54 0 l 13 0 l 448 733 l 448 734 l 483 734 l 667 0 l 628 0 l 558 268 m 238 304 l 548 304 l 476 581 l 458 682 l 403 576 l 238 304 z "},"Ѩ":{"ha":815,"x_min":45,"x_max":722,"o":"m 659 345 l 527 345 l 467 0 l 435 0 l 494 345 l 369 345 l 221 0 l 185 0 l 331 345 l 138 345 l 78 0 l 45 0 l 216 987 l 248 987 l 144 381 l 346 381 l 605 987 l 642 987 l 722 0 l 688 0 l 659 345 m 384 381 l 656 381 l 616 884 l 616 926 l 600 884 l 384 381 z "},"ѩ":{"ha":815,"x_min":37,"x_max":724,"o":"m 639 268 l 519 268 l 473 0 l 439 0 l 485 268 l 364 268 l 222 0 l 184 0 l 322 268 l 118 268 l 71 0 l 37 0 l 163 734 l 197 734 l 123 304 l 340 304 l 564 731 l 563 734 l 597 734 l 595 732 l 724 0 l 688 0 l 639 268 m 383 304 l 631 304 l 581 582 l 571 673 l 527 576 l 383 304 z "},"Ѫ":{"ha":815,"x_min":35,"x_max":777,"o":"m 463 508 l 535 508 q 623 485 588 506 q 677 431 658 465 q 701 354 696 397 q 698 264 705 311 l 652 0 l 618 0 l 662 264 q 667 340 668 303 q 651 405 665 376 q 610 452 637 434 q 536 471 582 469 l 440 471 l 359 0 l 326 0 l 407 471 l 320 471 q 239 453 274 470 q 179 408 204 436 q 139 343 155 380 q 115 264 123 306 l 68 0 l 35 0 l 78 264 q 106 356 87 313 q 155 433 125 399 q 225 486 184 466 q 319 508 267 507 l 399 508 l 252 987 l 777 987 l 463 508 m 711 951 l 298 951 l 423 530 l 427 511 l 441 532 l 711 951 z "},"ѫ":{"ha":815,"x_min":37,"x_max":707,"o":"m 37 0 l 61 153 q 93 250 71 206 q 150 327 115 294 q 229 377 184 359 q 330 397 274 395 l 355 397 l 212 734 l 707 734 l 441 396 l 461 396 q 554 376 515 395 q 617 325 593 357 q 649 248 641 292 q 649 153 656 204 l 622 0 l 587 0 l 612 153 q 614 235 619 197 q 591 299 610 272 q 541 342 573 326 q 460 359 509 358 l 415 360 l 410 354 l 348 0 l 313 0 l 376 355 l 374 359 l 329 359 q 242 343 280 358 q 175 301 203 328 q 127 236 146 274 q 99 153 108 199 l 72 0 l 37 0 m 633 696 l 264 696 l 391 404 l 393 397 l 399 397 l 405 405 l 633 696 z "},"Ѭ":{"ha":815,"x_min":27,"x_max":791,"o":"m 190 0 l 233 264 q 245 321 238 293 q 264 377 253 350 q 292 428 275 404 q 330 472 308 452 l 140 471 l 58 0 l 27 0 l 197 987 l 229 987 l 146 508 l 484 508 l 395 987 l 791 987 l 535 508 l 585 508 q 661 481 634 506 q 698 421 687 457 q 708 342 709 385 q 701 264 707 300 l 652 0 l 621 0 l 665 264 q 671 306 668 283 q 674 351 674 328 q 671 394 675 373 q 657 432 667 415 q 630 459 648 449 q 585 471 612 470 l 518 471 l 436 0 l 405 0 l 486 471 l 427 471 q 358 449 386 469 q 313 399 331 429 q 286 334 296 370 q 269 264 275 298 l 222 0 l 190 0 m 734 951 l 433 951 l 507 531 l 508 522 l 513 531 l 734 951 z "},"ѭ":{"ha":815,"x_min":33,"x_max":743,"o":"m 134 397 l 458 397 l 359 734 l 743 734 l 525 396 l 538 396 q 620 372 589 395 q 664 314 650 349 q 680 237 679 279 q 675 153 682 194 l 647 0 l 615 0 l 640 153 q 646 223 645 187 q 637 288 647 258 q 605 337 628 317 q 537 359 581 357 l 505 360 l 502 357 l 439 0 l 406 0 l 471 357 l 470 359 l 437 359 q 363 339 393 358 q 312 292 332 321 q 278 227 291 263 q 258 153 266 190 l 230 0 l 197 0 l 221 153 q 256 267 231 212 q 328 360 280 321 l 128 359 l 66 0 l 33 0 l 160 734 l 193 734 l 134 397 m 680 696 l 404 696 l 489 404 l 490 398 l 492 405 l 680 696 z "},"Ѯ":{"ha":815,"x_min":41,"x_max":750,"o":"m 372 523 q 479 535 425 524 q 579 572 534 547 q 658 637 625 597 q 703 737 691 678 q 696 834 713 794 q 644 900 679 874 q 563 938 610 926 q 468 951 516 950 l 244 951 l 249 987 l 468 987 q 577 971 524 987 q 670 925 631 956 q 730 846 710 894 q 739 734 750 799 q 709 650 731 688 q 654 585 686 613 q 582 536 622 556 q 499 504 542 516 q 579 471 544 492 q 638 419 615 450 q 671 349 662 389 q 673 262 681 310 q 645 180 665 216 q 594 114 624 143 q 528 64 565 85 q 450 30 490 43 q 366 8 409 16 q 283 1 323 1 l 229 1 q 180 -5 204 0 q 136 -21 156 -10 q 101 -51 115 -33 q 81 -96 86 -68 q 84 -139 77 -119 q 106 -175 92 -159 q 140 -202 121 -191 q 178 -222 159 -214 l 163 -256 q 116 -231 139 -246 q 76 -195 93 -216 q 50 -150 59 -175 q 45 -96 41 -125 q 67 -38 50 -62 q 110 3 85 -13 q 166 27 136 20 q 228 37 197 35 l 282 37 q 394 50 336 37 q 500 88 451 62 q 586 157 550 115 q 635 259 623 199 q 636 335 643 302 q 613 394 630 369 q 569 436 595 418 q 510 464 542 453 q 442 479 477 475 q 371 485 406 484 l 288 485 l 293 523 l 372 523 m 492 1140 l 645 1286 l 682 1286 l 681 1277 l 511 1108 l 471 1108 l 353 1279 l 353 1286 l 391 1287 l 492 1140 z "},"ѯ":{"ha":815,"x_min":74,"x_max":679,"o":"m 355 397 q 442 404 397 397 q 528 428 488 410 q 597 475 568 445 q 636 554 627 506 q 634 606 642 584 q 612 644 627 628 q 574 669 596 659 q 527 685 551 680 q 476 693 502 691 q 429 696 451 696 l 241 696 l 245 734 l 429 734 q 487 729 457 733 q 547 717 517 726 q 601 695 576 709 q 645 662 627 682 q 671 614 663 642 q 673 551 679 587 q 650 487 667 515 q 607 438 632 459 q 551 403 582 418 q 488 378 520 389 q 548 356 519 370 q 596 320 576 341 q 625 271 616 299 q 628 206 634 243 q 604 138 622 168 q 558 85 585 108 q 498 47 532 62 q 430 21 465 31 q 358 6 394 11 q 288 1 321 1 l 262 1 q 213 -5 237 0 q 169 -21 189 -10 q 133 -51 148 -33 q 114 -96 119 -68 q 117 -140 110 -120 q 139 -175 125 -159 q 173 -202 154 -191 q 212 -222 192 -214 l 197 -256 q 149 -230 172 -245 q 109 -195 126 -215 q 83 -150 92 -175 q 78 -96 74 -125 q 100 -38 83 -62 q 143 3 117 -13 q 199 27 168 20 q 261 37 230 35 l 288 37 q 379 45 331 37 q 472 71 428 52 q 548 122 515 90 q 590 203 580 154 q 589 263 597 238 q 563 306 581 288 q 519 333 545 323 q 466 349 494 343 q 408 357 437 355 q 355 359 379 359 l 272 359 l 277 397 l 355 397 m 473 925 l 627 1071 l 663 1071 l 663 1062 l 492 893 l 453 893 l 334 1064 l 335 1072 l 372 1072 l 473 925 z "},"Ѳ":{"ha":815,"x_min":87,"x_max":751,"o":"m 718 420 q 693 321 709 372 q 653 222 677 271 q 597 132 629 174 q 526 57 566 89 q 439 5 487 24 q 336 -14 391 -14 q 238 6 279 -14 q 168 60 197 26 q 121 137 138 94 q 96 229 104 181 q 88 327 87 277 q 96 420 89 376 l 121 568 q 146 666 130 615 q 186 765 162 717 q 241 856 210 813 q 313 931 273 899 q 400 982 353 964 q 504 1001 448 1001 q 602 981 560 1001 q 672 927 644 961 q 719 850 701 894 q 744 758 736 806 q 750 661 751 710 q 743 568 749 612 l 718 420 m 690 475 l 142 475 l 132 420 q 124 337 126 381 q 128 248 123 292 q 148 163 134 204 q 186 92 161 123 q 248 42 211 60 q 336 23 284 23 q 430 40 387 23 q 508 87 473 58 q 572 157 544 117 q 622 240 601 196 q 658 330 644 284 q 681 420 673 376 l 690 475 m 149 512 l 697 512 l 707 569 q 715 652 713 608 q 711 740 717 696 q 692 825 706 784 q 653 896 678 865 q 592 946 629 927 q 504 964 555 964 q 411 947 454 964 q 332 900 368 930 q 268 831 296 870 q 218 748 239 791 q 181 658 196 704 q 159 569 167 612 l 149 512 z "},"ѳ":{"ha":815,"x_min":76,"x_max":719,"o":"m 87 381 q 132 515 100 450 q 211 633 163 581 q 322 716 259 684 q 460 747 385 747 q 550 732 510 747 q 620 691 590 718 q 671 630 650 665 q 703 553 692 594 q 716 469 714 513 q 712 381 719 425 l 707 353 q 664 218 695 284 q 584 101 632 153 q 474 18 536 50 q 336 -14 411 -14 q 245 1 286 -14 q 175 42 205 16 q 124 104 145 68 q 92 180 104 140 q 78 265 81 221 q 83 353 76 309 l 87 381 m 460 711 q 338 682 393 711 q 239 607 282 654 q 166 503 195 561 q 125 385 138 444 l 676 385 q 677 499 685 441 q 643 604 669 557 q 571 681 616 651 q 460 711 526 711 m 336 23 q 457 52 401 23 q 556 126 513 80 q 628 230 599 172 q 669 348 656 288 l 119 348 q 118 233 111 291 q 152 129 126 176 q 224 53 178 82 q 336 23 269 23 z "},"Ѵ":{"ha":815,"x_min":151,"x_max":934,"o":"m 311 96 l 318 40 l 348 99 l 705 833 q 744 897 722 867 q 792 950 766 927 q 852 986 819 972 q 926 1001 886 1000 l 934 1001 l 928 969 l 923 969 q 860 955 888 968 q 809 920 831 941 q 768 872 786 899 q 735 817 750 846 l 336 0 l 292 0 l 151 988 l 190 987 l 311 96 z "},"ѵ":{"ha":815,"x_min":115,"x_max":787,"o":"m 256 152 l 275 50 l 334 158 l 578 633 q 605 676 590 655 q 639 712 620 696 q 680 737 658 728 q 730 747 703 747 q 759 742 745 746 q 787 733 773 739 l 774 704 q 751 712 762 709 q 726 715 739 715 q 687 706 705 715 q 655 683 669 697 q 629 651 641 669 q 608 616 618 633 l 287 0 l 252 0 l 252 1 l 115 734 l 154 734 l 256 152 z "},"Ѹ":{"ha":815,"x_min":25,"x_max":827,"o":"m 395 413 q 381 338 389 382 q 362 247 374 294 q 332 153 350 200 q 290 70 315 106 q 231 9 264 33 q 153 -14 197 -14 q 81 11 107 -14 q 41 74 54 35 q 27 162 28 113 q 29 258 25 210 q 39 347 33 305 q 50 413 46 388 l 78 574 q 91 649 83 606 q 111 740 99 693 q 141 834 123 787 q 184 918 159 881 q 242 978 209 955 q 321 1001 276 1001 q 393 977 366 1001 q 432 913 419 952 q 447 826 445 874 q 444 730 448 777 q 433 641 440 682 q 422 574 427 600 l 395 413 m 387 576 q 396 630 390 594 q 407 709 402 666 q 412 798 412 752 q 405 880 413 843 q 376 941 396 917 q 321 964 357 964 q 256 943 284 964 q 207 886 228 921 q 170 808 185 851 q 144 721 155 764 q 126 640 134 678 q 115 576 119 601 l 87 413 q 77 359 83 395 q 67 279 71 323 q 62 191 62 236 q 69 108 61 145 q 97 47 77 71 q 152 23 117 23 q 217 45 189 23 q 267 101 245 66 q 304 180 289 136 q 330 267 319 224 q 347 349 340 311 q 358 413 353 388 l 387 576 m 541 127 l 786 733 l 827 733 l 482 -122 q 455 -179 471 -149 q 418 -235 439 -210 q 371 -279 397 -261 q 311 -296 344 -296 q 288 -294 298 -296 q 265 -289 277 -292 l 269 -254 q 289 -258 279 -256 q 309 -260 299 -260 q 357 -245 336 -260 q 396 -209 379 -231 q 426 -161 414 -186 q 448 -115 439 -136 l 507 41 l 484 734 l 523 734 l 541 127 z "},"ѹ":{"ha":815,"x_min":25,"x_max":827,"o":"m 45 382 q 59 452 50 413 q 80 531 67 490 q 111 611 93 572 q 153 680 128 650 q 210 729 178 711 q 282 748 241 748 q 350 728 324 748 q 391 676 376 709 q 410 604 406 644 q 414 523 415 564 q 409 445 413 482 q 400 382 404 408 l 395 352 q 381 283 389 321 q 360 203 372 244 q 329 124 347 163 q 287 54 311 85 q 230 5 262 24 q 157 -14 198 -14 q 90 6 116 -14 q 49 58 64 26 q 30 131 35 90 q 26 212 25 171 q 31 289 26 252 q 39 352 35 326 l 45 382 m 76 352 q 68 301 73 333 q 62 233 64 270 q 62 159 60 197 q 75 92 64 122 q 104 42 85 62 q 157 23 124 23 q 218 41 191 23 q 266 87 245 58 q 302 151 286 115 q 328 223 317 186 q 346 294 339 260 q 358 352 353 328 l 364 384 q 372 434 368 403 q 378 502 376 466 q 378 576 380 538 q 366 643 376 613 q 336 692 356 673 q 283 711 316 711 q 223 694 250 711 q 175 648 196 676 q 139 584 154 620 q 112 512 123 548 q 94 442 101 475 q 82 384 86 408 l 76 352 m 541 127 l 786 733 l 827 733 l 482 -122 q 455 -179 471 -149 q 418 -235 439 -210 q 371 -279 397 -261 q 311 -296 344 -296 q 288 -294 298 -296 q 265 -289 277 -292 l 269 -254 q 289 -258 279 -256 q 309 -260 299 -260 q 357 -245 336 -260 q 396 -209 379 -231 q 426 -161 414 -186 q 448 -115 439 -136 l 507 41 l 484 734 l 523 734 l 541 127 z "},"Ѻ":{"ha":815,"x_min":87,"x_max":751,"o":"m 498 876 l 463 876 l 498 1084 l 533 1084 l 498 876 m 330 -98 l 294 -98 l 330 111 l 365 111 l 330 -98 m 718 420 q 693 321 709 372 q 653 222 677 271 q 597 132 629 174 q 526 57 566 89 q 439 5 487 24 q 336 -14 391 -14 q 238 6 279 -14 q 168 60 197 26 q 121 137 138 94 q 96 229 104 181 q 88 327 87 277 q 96 420 89 376 l 121 568 q 146 666 130 615 q 186 765 162 717 q 241 856 210 813 q 313 931 273 899 q 400 982 353 964 q 504 1001 448 1001 q 602 981 560 1001 q 672 927 644 961 q 719 850 701 894 q 744 758 736 806 q 750 661 751 710 q 743 568 749 612 l 718 420 m 707 569 q 715 652 713 608 q 711 740 717 696 q 692 825 706 784 q 653 896 678 865 q 592 946 629 927 q 504 964 555 964 q 411 947 454 964 q 332 900 368 930 q 268 831 296 870 q 218 748 239 791 q 181 658 196 704 q 159 569 167 612 l 132 420 q 124 337 126 381 q 128 248 123 292 q 148 163 134 204 q 186 92 161 123 q 248 42 211 60 q 336 23 284 23 q 430 40 387 23 q 508 87 473 58 q 572 157 544 117 q 622 240 601 196 q 658 330 644 284 q 681 420 673 376 l 707 569 z "},"ѻ":{"ha":815,"x_min":76,"x_max":719,"o":"m 460 617 l 423 617 l 462 846 l 498 846 l 460 617 m 332 -119 l 296 -119 l 334 109 l 371 109 l 332 -119 m 87 381 q 132 515 100 450 q 211 633 163 581 q 322 716 259 684 q 460 747 385 747 q 550 732 510 747 q 620 691 590 718 q 671 630 650 665 q 703 553 692 594 q 716 469 714 513 q 712 381 719 425 l 707 353 q 664 218 695 284 q 584 101 632 153 q 474 18 536 50 q 336 -14 411 -14 q 245 1 286 -14 q 175 42 205 16 q 124 104 145 68 q 92 180 104 140 q 78 265 81 221 q 83 353 76 309 l 87 381 m 119 353 q 118 237 110 296 q 152 131 125 178 q 223 53 178 83 q 336 23 269 23 q 459 52 403 23 q 558 127 515 81 q 629 233 601 174 q 670 353 658 292 l 675 381 q 680 458 682 419 q 670 534 679 497 q 643 603 661 570 q 600 659 626 635 q 539 697 574 683 q 460 711 504 711 q 337 682 393 711 q 238 606 281 653 q 166 500 195 559 q 125 381 137 441 l 119 353 z "},"Ѽ":{"ha":815,"x_min":26,"x_max":814,"o":"m 668 985 q 733 966 707 982 q 776 927 760 951 q 801 873 793 903 q 812 810 810 842 q 812 744 814 777 q 805 681 810 711 l 737 291 q 723 226 732 260 q 700 158 713 192 q 669 93 687 124 q 626 38 650 62 q 571 0 602 14 q 503 -14 541 -14 q 442 -1 467 -14 q 400 36 417 13 q 375 87 384 58 q 363 148 366 117 q 331 89 349 118 q 290 37 313 60 q 236 0 266 14 q 170 -14 207 -14 q 105 1 132 -14 q 62 40 79 16 q 38 97 46 65 q 28 163 30 130 q 28 231 26 197 q 35 291 31 264 l 102 681 q 128 784 111 732 q 173 879 145 836 q 243 951 201 922 q 343 986 285 981 l 338 949 q 280 932 306 945 q 234 898 254 918 q 198 851 214 878 q 171 797 182 825 q 152 738 160 768 q 139 681 144 709 l 71 291 q 65 242 68 270 q 62 184 62 214 q 67 125 62 155 q 84 74 72 96 q 117 37 96 51 q 170 22 138 22 q 226 35 201 22 q 272 68 252 47 q 308 116 292 89 q 334 172 323 143 q 354 230 346 201 q 366 283 361 258 l 368 291 l 429 637 l 463 637 l 404 291 l 403 283 q 397 235 399 262 q 395 179 394 208 q 400 122 395 150 q 418 72 406 94 q 451 36 430 50 q 503 22 471 22 q 560 35 534 22 q 606 70 586 48 q 642 119 627 91 q 669 177 658 147 q 688 236 680 207 q 701 291 696 266 l 768 681 q 775 734 772 706 q 778 791 779 763 q 771 847 777 820 q 752 895 766 873 q 717 931 739 917 q 663 949 695 945 l 668 985 m 753 1097 l 748 1067 l 737 1067 q 699 1078 715 1068 q 669 1102 683 1088 q 644 1133 656 1116 q 618 1162 631 1149 q 588 1185 604 1176 q 552 1194 572 1194 q 509 1181 527 1193 q 479 1151 492 1169 q 459 1111 467 1133 q 445 1069 451 1089 l 441 1057 l 408 1057 l 409 1075 q 424 1129 412 1101 q 453 1179 435 1156 q 495 1215 471 1201 q 549 1230 519 1230 q 589 1220 572 1230 q 620 1197 606 1211 q 646 1166 633 1183 q 672 1134 658 1149 q 702 1109 686 1120 q 741 1097 719 1098 l 753 1097 m 467 937 q 499 979 488 957 q 517 1028 511 1000 l 531 1095 l 564 1095 l 553 1026 q 527 960 546 989 q 477 910 508 930 l 467 937 z "},"ѽ":{"ha":815,"x_min":16,"x_max":789,"o":"m 636 743 q 724 713 691 739 q 771 649 756 688 q 788 565 787 611 q 783 473 789 518 l 745 257 q 720 163 737 211 q 674 75 703 115 q 606 11 646 36 q 511 -14 566 -14 q 452 -3 478 -14 q 408 26 427 7 q 379 72 390 45 q 364 129 368 98 q 330 73 349 99 q 287 28 311 47 q 234 -3 263 9 q 170 -14 205 -14 q 106 -2 132 -14 q 62 31 79 10 q 34 79 44 52 q 20 136 24 106 q 17 197 16 166 q 23 257 18 229 l 60 473 q 87 570 69 524 q 134 654 105 617 q 203 715 162 692 q 300 744 244 739 l 295 707 q 215 681 249 703 q 158 627 182 659 q 120 554 134 594 q 97 473 105 514 l 60 257 q 54 209 56 235 q 54 157 52 183 q 63 107 56 131 q 83 64 69 83 q 117 34 96 45 q 169 22 138 22 q 248 45 214 22 q 306 102 282 67 q 344 178 330 136 q 366 257 359 219 l 400 450 l 435 450 l 402 257 q 397 209 399 235 q 397 157 395 183 q 405 107 399 131 q 425 64 412 83 q 459 34 438 45 q 511 22 480 22 q 591 45 557 22 q 649 102 625 67 q 687 178 673 136 q 709 257 701 219 l 747 473 q 753 551 753 511 q 742 624 753 591 q 704 679 730 656 q 631 707 677 702 l 636 743 m 736 893 l 732 863 l 721 863 q 681 874 699 865 q 647 899 663 884 q 618 929 632 913 q 589 959 604 945 q 556 981 574 972 q 517 990 538 990 q 472 978 491 989 q 439 949 453 966 q 415 909 425 931 q 400 866 406 887 l 397 854 l 362 854 l 363 871 q 380 927 368 899 q 412 977 393 955 q 458 1012 432 998 q 514 1026 484 1026 q 556 1017 538 1026 q 590 994 574 1008 q 620 962 605 979 q 649 930 634 945 q 683 905 665 916 q 725 893 701 895 l 736 893 m 418 725 q 453 766 440 745 q 471 816 465 787 l 485 883 l 518 883 l 509 814 q 480 747 501 777 q 429 698 460 718 l 418 725 z "},"Ѿ":{"ha":815,"x_min":51,"x_max":857,"o":"m 395 1194 l 723 1194 l 719 1156 l 566 1156 l 554 1086 l 522 1086 l 534 1156 l 389 1156 l 395 1194 m 857 987 l 739 291 q 725 227 733 261 q 703 159 716 193 q 673 94 690 125 q 631 39 655 63 q 578 1 608 16 q 511 -14 548 -14 q 452 0 476 -14 q 411 35 427 13 q 387 86 395 58 q 376 145 379 115 q 346 88 363 116 q 306 37 328 60 q 254 1 283 15 q 190 -14 225 -14 q 126 2 152 -14 q 84 42 100 17 q 61 99 68 67 q 53 165 54 131 q 54 232 51 199 q 60 291 56 264 l 182 987 l 216 987 l 96 291 q 90 243 93 271 q 86 185 87 215 q 91 127 86 156 q 106 75 95 98 q 138 37 118 52 q 190 23 158 23 q 246 36 221 23 q 291 71 271 50 q 326 120 311 92 q 351 178 340 149 q 369 237 362 208 q 381 291 376 267 l 503 987 l 536 987 l 418 291 q 411 243 414 271 q 408 185 408 215 q 412 127 408 156 q 427 75 416 98 q 458 37 438 52 q 510 23 478 23 q 566 36 541 23 q 611 71 591 50 q 646 120 631 92 q 672 178 661 149 q 690 237 683 208 q 702 291 697 267 l 825 987 l 857 987 z "},"ѿ":{"ha":815,"x_min":15,"x_max":826,"o":"m 325 987 l 694 987 l 690 949 l 517 949 l 501 859 l 467 859 l 483 949 l 318 949 l 325 987 m 826 734 l 748 277 q 733 213 743 246 q 710 147 724 180 q 677 85 696 115 q 633 34 658 56 q 578 -1 609 12 q 511 -14 548 -14 q 449 -2 475 -14 q 405 33 423 11 q 377 84 387 55 q 364 144 368 113 q 331 85 350 114 q 288 35 312 57 q 233 -1 263 12 q 166 -14 203 -14 q 101 0 128 -14 q 57 37 75 14 q 31 90 40 60 q 18 152 22 119 q 16 217 15 184 q 22 277 18 250 l 102 734 l 136 734 l 59 277 q 53 228 56 256 q 52 173 51 201 q 59 117 54 144 q 78 69 65 90 q 113 35 92 48 q 165 22 134 22 q 223 34 197 22 q 270 66 249 46 q 306 112 290 85 q 334 166 322 138 q 354 223 346 195 q 367 277 362 252 l 446 734 l 481 734 l 404 277 l 402 270 q 397 221 399 248 q 396 167 395 195 q 405 114 398 140 q 424 67 411 87 q 458 35 437 47 q 511 22 479 22 q 592 48 557 22 q 651 112 627 73 q 690 195 675 150 q 712 277 705 239 l 791 734 l 826 734 z "},"Ҁ":{"ha":815,"x_min":116,"x_max":783,"o":"m 347 -238 l 311 -238 l 351 -14 q 249 17 291 -8 q 180 81 208 43 q 139 169 153 120 q 121 271 125 218 q 119 375 116 323 q 130 474 122 428 l 138 527 q 164 633 147 578 q 205 740 180 688 q 263 840 230 793 q 337 924 296 888 q 429 981 378 960 q 541 1002 480 1002 q 656 975 608 1002 q 733 905 704 949 q 772 804 762 861 q 778 686 783 747 l 743 686 q 735 788 744 738 q 704 878 727 838 q 642 941 681 917 q 541 965 602 965 q 440 945 486 965 q 356 892 394 926 q 289 815 319 859 q 237 723 259 771 q 199 624 214 674 q 176 528 184 574 l 166 474 q 156 385 159 434 q 155 287 152 336 q 170 191 158 238 q 205 107 181 144 q 267 47 229 71 q 361 22 305 24 l 390 22 l 347 -238 z "},"ҁ":{"ha":815,"x_min":124,"x_max":720,"o":"m 361 -238 l 326 -238 l 366 -14 q 243 26 292 -7 q 167 111 195 60 q 132 225 140 162 q 134 353 124 288 l 139 381 q 180 514 151 448 q 255 631 210 579 q 361 715 300 683 q 496 747 422 747 q 596 727 553 747 q 668 672 640 707 q 708 589 696 637 q 714 488 720 542 l 678 488 q 674 575 683 534 q 642 645 665 615 q 583 693 619 675 q 497 711 547 711 q 413 697 452 711 q 341 660 374 684 q 281 605 309 637 q 234 537 254 574 q 199 460 214 500 q 178 381 185 420 l 172 353 q 168 238 163 296 q 196 133 173 180 q 262 56 219 86 q 373 22 306 25 l 405 22 l 361 -238 z "},"҂":{"ha":815,"x_min":85,"x_max":814,"o":"m 357 282 l 528 165 l 495 122 l 323 237 l 157 0 l 85 0 l 282 272 l 111 388 l 143 431 l 315 316 l 522 603 l 350 719 l 384 764 l 555 648 l 744 910 l 814 910 l 595 613 l 768 497 l 734 454 l 564 569 l 357 282 z "},"҃":{"ha":7,"x_min":180,"x_max":566,"o":"m 234 924 l 219 842 l 180 842 l 200 959 l 515 959 l 529 1032 l 566 1032 l 547 924 l 234 924 z "},"҄":{"ha":7,"x_min":238,"x_max":704,"o":"m 251 923 q 308 935 281 924 q 359 960 334 945 q 409 991 385 975 q 458 1022 433 1008 q 510 1046 484 1037 q 567 1056 537 1056 q 626 1044 600 1056 q 670 1010 652 1031 q 696 961 688 989 q 700 901 704 933 l 697 884 l 660 884 l 662 896 q 661 943 665 921 q 644 983 656 966 q 611 1009 631 1000 q 565 1020 591 1019 q 509 1011 536 1020 q 458 989 483 1002 q 409 959 433 975 q 359 928 385 943 q 308 904 334 914 q 252 893 281 895 l 238 893 l 243 923 l 251 923 z "},"҅":{"ha":7,"x_min":306,"x_max":399,"o":"m 306 1020 l 323 1114 l 388 1114 l 371 1016 l 399 932 l 373 915 l 306 1020 z "},"҆":{"ha":7,"x_min":345,"x_max":484,"o":"m 368 916 l 345 935 l 404 1022 l 419 1114 l 484 1114 l 468 1017 l 368 916 z "},"҈":{"ha":7,"x_min":-198,"x_max":1086,"o":"m 387 860 q 443 951 402 916 q 543 987 483 986 q 634 951 602 987 q 665 859 666 916 l 591 859 q 589 885 591 872 q 581 906 587 897 q 565 921 575 916 q 540 927 555 927 q 511 922 524 927 q 490 907 499 916 q 474 885 481 897 q 463 859 467 873 l 387 860 m 743 672 q 765 723 751 700 q 799 763 779 746 q 845 789 819 780 q 900 799 870 799 q 952 790 929 799 q 991 764 975 781 q 1014 723 1006 747 q 1021 671 1022 700 l 947 671 q 945 697 947 685 q 938 719 943 709 q 922 734 932 728 q 896 739 911 739 q 868 734 880 739 q 847 719 856 728 q 831 697 838 709 q 819 671 824 684 l 743 672 m 806 331 q 829 382 814 359 q 863 422 843 405 q 908 448 883 439 q 964 458 934 458 q 1054 422 1023 458 q 1084 330 1086 387 l 1011 330 q 1009 356 1011 344 q 1001 378 1007 368 q 986 393 996 387 q 960 398 976 398 q 932 393 944 398 q 910 378 920 387 q 895 356 901 368 q 883 330 888 344 l 806 331 m 616 -21 q 638 30 624 7 q 672 70 652 53 q 718 96 692 87 q 773 106 743 106 q 864 71 832 106 q 894 -22 895 35 l 821 -22 q 819 4 821 -8 q 811 26 817 16 q 795 41 805 35 q 770 46 785 46 q 741 41 753 46 q 720 26 729 35 q 704 4 711 16 q 692 -22 697 -8 l 616 -21 m 203 -214 q 260 -122 219 -157 q 361 -87 300 -87 q 413 -96 390 -87 q 451 -122 435 -105 q 475 -162 467 -139 q 482 -214 483 -186 l 408 -214 q 406 -189 408 -201 q 398 -167 404 -176 q 383 -152 393 -158 q 357 -146 373 -146 q 329 -152 341 -146 q 308 -167 317 -157 q 292 -189 298 -176 q 280 -214 285 -201 l 203 -214 m -23 672 q 34 763 -7 728 q 134 799 75 798 q 225 764 193 799 q 256 671 257 728 l 182 671 q 180 697 182 684 q 172 719 178 709 q 157 733 167 728 q 131 739 146 739 q 103 734 115 739 q 82 719 91 728 q 65 697 73 709 q 54 671 58 685 l -23 672 m -198 331 q -176 382 -190 359 q -141 422 -161 405 q -96 448 -121 439 q -41 458 -71 458 q 50 422 18 458 q 80 330 81 387 l 7 330 q 5 356 7 344 q -3 378 3 368 q -19 393 -9 387 q -45 398 -29 398 q -73 393 -60 398 q -94 378 -85 387 q -110 356 -103 368 q -122 330 -117 344 l -198 331 m -150 -21 q -127 30 -142 7 q -93 70 -113 53 q -48 96 -73 87 q 7 106 -22 106 q 98 71 66 106 q 129 -22 130 35 l 55 -22 q 53 4 55 -8 q 45 26 51 16 q 30 41 39 35 q 3 46 20 46 q -24 41 -12 46 q -46 26 -37 35 q -62 4 -55 16 q -73 -22 -68 -9 l -150 -21 z "},"҉":{"ha":7,"x_min":44,"x_max":1263,"o":"m 648 -40 l 655 -51 l 536 -280 l 470 -280 l 557 -41 l 648 -40 m 662 763 l 654 774 l 773 1002 l 839 1002 l 752 764 l 662 763 m 1047 428 l 1056 435 l 1263 351 l 1252 286 l 1033 334 l 1047 428 m 261 294 l 252 286 l 44 371 l 56 435 l 275 388 l 261 294 m 933 680 l 936 690 l 1164 794 l 1203 746 l 989 612 l 933 680 m 370 14 l 367 3 l 140 -101 l 100 -52 l 314 81 l 370 14 m 378 583 l 366 585 l 305 808 l 355 853 l 452 649 l 378 583 m 924 109 l 936 108 l 997 -115 l 947 -161 l 850 43 l 924 109 z "},"Ҏ":{"ha":815,"x_min":89,"x_max":801,"o":"m 636 366 l 607 343 l 467 584 l 496 606 l 636 366 m 197 417 l 125 0 l 89 0 l 260 987 l 549 987 q 659 963 610 986 q 741 902 708 941 q 787 812 773 864 q 791 699 801 760 q 750 586 781 637 q 675 498 720 535 q 574 439 631 460 q 456 417 518 418 l 197 417 m 203 454 l 456 454 q 559 473 510 455 q 648 524 608 492 q 716 600 688 555 q 754 698 744 644 q 753 796 764 751 q 714 876 742 842 q 645 929 687 909 q 549 951 602 949 l 290 951 l 203 454 z "},"ҏ":{"ha":815,"x_min":26,"x_max":692,"o":"m 550 -44 l 518 -65 l 393 171 l 425 191 l 550 -44 m 683 360 q 661 272 675 317 q 625 186 646 227 q 575 108 604 144 q 512 45 547 72 q 433 2 476 18 q 340 -14 391 -14 q 277 -5 308 -14 q 218 18 245 3 q 168 56 191 33 q 130 107 145 78 l 62 -282 l 26 -282 l 201 734 l 237 734 l 214 612 q 264 665 236 640 q 324 708 292 690 q 391 737 356 726 q 465 747 427 747 q 554 731 515 747 q 618 687 592 715 q 661 623 645 660 q 685 544 677 586 q 692 459 692 503 q 685 374 691 416 l 683 360 m 648 374 q 655 448 654 410 q 651 524 656 487 q 634 595 646 562 q 599 655 621 629 q 544 695 577 680 q 465 711 511 711 q 384 697 422 711 q 312 659 345 683 q 251 604 278 635 q 204 536 224 572 l 140 174 q 167 110 148 138 q 213 63 186 82 q 272 33 239 43 q 341 23 305 23 q 424 38 386 23 q 494 77 463 52 q 550 134 525 101 q 593 203 574 166 q 625 281 612 241 q 646 360 638 321 l 648 374 z "},"Ґ":{"ha":815,"x_min":66,"x_max":857,"o":"m 807 951 l 268 951 l 103 0 l 66 0 l 237 987 l 777 987 l 820 1240 l 857 1240 l 807 951 z "},"ґ":{"ha":815,"x_min":60,"x_max":789,"o":"m 740 696 l 220 696 l 100 0 l 60 0 l 187 734 l 707 734 l 749 986 l 789 986 l 740 696 z "},"Ҕ":{"ha":815,"x_min":87,"x_max":823,"o":"m 818 951 l 289 951 l 222 569 l 370 569 q 517 538 454 568 q 620 457 581 509 q 674 337 660 406 q 675 186 689 267 q 634 55 664 118 q 559 -59 605 -9 q 454 -141 514 -109 q 323 -178 395 -173 l 328 -143 q 444 -108 391 -138 q 536 -33 496 -78 q 602 70 576 13 q 639 186 628 126 q 640 320 652 258 q 593 430 627 383 q 502 504 558 477 q 370 533 445 532 l 216 533 l 124 0 l 87 0 l 258 987 l 823 987 l 818 951 z "},"ҕ":{"ha":815,"x_min":76,"x_max":747,"o":"m 743 696 l 236 696 l 186 411 l 317 411 q 408 403 363 410 q 494 380 454 395 q 568 340 534 364 q 623 282 601 316 q 654 206 645 249 q 654 109 663 163 q 615 2 645 50 q 541 -80 585 -45 q 445 -138 498 -115 q 337 -173 392 -161 l 330 -144 q 426 -111 379 -132 q 511 -59 473 -90 q 578 15 550 -27 q 617 109 606 56 q 620 196 627 157 q 593 263 613 234 q 543 314 573 293 q 475 348 512 335 q 397 368 438 361 q 317 375 357 374 l 180 375 l 116 0 l 76 0 l 203 734 l 747 734 l 743 696 z "},"Ҝ":{"ha":815,"x_min":113,"x_max":854,"o":"m 854 986 l 479 498 l 730 0 l 686 0 l 443 489 l 381 489 l 343 269 l 307 269 l 345 489 l 233 489 l 149 0 l 113 0 l 283 987 l 319 987 l 239 525 l 350 525 l 386 733 l 422 733 l 387 525 l 456 525 l 806 987 l 854 986 z "},"ҝ":{"ha":815,"x_min":101,"x_max":745,"o":"m 745 734 l 450 372 l 655 0 l 605 0 l 414 359 l 348 359 l 315 170 l 278 170 l 311 359 l 200 359 l 138 0 l 101 0 l 227 734 l 264 734 l 205 395 l 316 395 l 348 576 l 385 576 l 353 395 l 422 395 l 689 734 l 745 734 z "},"Ҡ":{"ha":815,"x_min":140,"x_max":849,"o":"m 423 482 l 326 482 l 243 0 l 210 0 l 374 951 l 140 951 l 146 987 l 414 987 l 332 518 l 436 518 l 807 987 l 849 986 l 458 491 l 701 0 l 661 0 l 423 482 z "},"ҡ":{"ha":815,"x_min":130,"x_max":791,"o":"m 432 359 l 325 359 l 263 0 l 228 0 l 348 697 l 130 697 l 135 734 l 390 734 l 331 395 l 441 395 l 741 733 l 791 732 l 469 371 l 700 0 l 652 0 l 432 359 z "},"Ҥ":{"ha":815,"x_min":-26,"x_max":890,"o":"m 96 526 l 469 526 l 549 987 l 890 987 l 885 951 l 575 951 l 410 0 l 378 0 l 463 490 l 90 490 l 5 0 l -26 0 l 144 987 l 176 987 l 96 526 z "},"ҥ":{"ha":815,"x_min":-9,"x_max":838,"o":"m 94 395 l 469 395 l 528 734 l 838 734 l 833 696 l 557 696 l 437 0 l 401 0 l 463 359 l 88 359 l 26 0 l -9 0 l 117 734 l 152 734 l 94 395 z "},"Ҧ":{"ha":815,"x_min":-4,"x_max":753,"o":"m 505 568 l 579 568 q 661 548 628 567 q 713 497 693 528 q 742 427 732 467 q 752 345 751 387 q 750 261 753 303 q 740 185 746 220 q 725 112 734 151 q 703 34 716 73 q 671 -42 690 -5 q 627 -107 652 -78 q 569 -155 602 -136 q 495 -178 536 -174 l 499 -144 q 561 -121 534 -139 q 610 -76 589 -102 q 646 -16 631 -49 q 673 53 662 18 q 691 122 684 87 q 704 185 699 156 q 713 250 709 214 q 719 325 718 287 q 713 399 719 363 q 692 465 707 436 q 649 512 676 494 q 580 532 622 530 l 500 532 l 408 0 l 376 0 l 540 951 l 193 951 l 28 0 l -4 0 l 167 987 l 578 987 l 505 568 z "},"ҧ":{"ha":815,"x_min":27,"x_max":698,"o":"m 444 411 l 507 411 q 609 381 570 409 q 669 311 649 354 q 694 215 690 269 q 690 109 698 162 q 665 18 682 62 q 622 -64 648 -26 q 558 -130 595 -102 q 475 -173 522 -159 l 469 -144 q 540 -103 509 -130 q 593 -43 571 -77 q 630 30 616 -9 q 653 109 645 69 q 661 170 659 139 q 659 230 663 201 q 644 285 654 259 q 615 330 633 311 q 570 362 597 350 q 507 375 544 374 l 438 375 l 373 0 l 340 0 l 460 696 l 181 696 l 60 0 l 27 0 l 155 734 l 500 734 l 444 411 z "},"Ҩ":{"ha":815,"x_min":71,"x_max":766,"o":"m 648 -15 q 561 -2 603 -13 q 479 31 519 9 q 399 -2 441 9 q 313 -14 357 -14 q 210 9 252 -14 q 139 70 167 32 q 96 156 111 107 q 76 257 81 205 q 73 362 71 310 q 83 459 75 414 l 111 623 q 130 706 118 663 q 159 789 142 749 q 201 867 177 830 q 255 932 224 904 q 324 979 286 961 q 409 1002 362 998 l 406 965 q 333 944 366 961 q 273 900 300 926 q 227 840 247 873 q 191 770 206 806 q 165 696 176 734 q 149 625 155 659 l 119 459 q 110 374 113 421 q 110 278 106 326 q 125 184 113 230 q 161 102 137 138 q 221 44 184 66 q 313 22 258 22 q 380 31 348 22 q 445 54 413 40 q 378 138 404 92 q 339 235 353 184 q 325 339 326 286 q 332 446 324 393 l 365 637 q 380 708 370 669 q 404 786 389 747 q 437 863 418 826 q 482 928 456 900 q 541 975 508 957 q 616 992 574 992 q 687 974 659 992 q 732 925 715 956 q 756 857 749 895 q 765 780 764 819 q 763 703 766 740 q 755 637 760 665 l 722 444 q 694 335 711 389 q 651 230 677 280 q 590 134 625 179 q 511 54 555 90 q 580 30 545 37 q 654 21 616 22 l 648 -15 m 369 444 q 360 343 361 395 q 372 243 360 292 q 409 151 384 194 q 476 75 434 107 q 555 149 520 106 q 615 239 589 191 q 658 339 641 287 q 686 444 675 391 l 719 637 q 727 693 723 661 q 732 761 731 725 q 728 831 732 796 q 711 893 724 866 q 675 938 699 921 q 616 956 652 956 q 552 939 581 956 q 502 897 524 923 q 464 837 480 871 q 435 768 447 804 q 415 699 423 733 q 403 637 408 665 l 369 444 z "},"ҩ":{"ha":815,"x_min":75,"x_max":739,"o":"m 675 -8 q 586 3 629 -7 q 500 31 543 12 q 418 -2 460 10 q 330 -14 376 -14 q 240 2 280 -14 q 170 45 200 18 q 120 109 140 73 q 90 188 100 146 q 77 274 79 229 q 81 361 75 318 l 92 425 q 123 535 102 480 q 177 636 144 591 q 258 711 211 681 q 367 747 305 742 l 361 711 q 271 676 311 705 q 203 608 232 648 q 157 520 175 568 q 130 427 138 472 l 118 361 q 112 283 112 323 q 121 206 113 243 q 146 135 130 168 q 188 77 162 102 q 249 37 214 52 q 330 22 284 22 q 397 30 365 22 q 463 52 430 38 q 396 116 423 80 q 354 192 369 151 q 335 279 339 233 q 339 371 332 324 l 351 444 q 366 508 357 474 q 390 576 376 543 q 424 641 404 610 q 468 695 443 671 q 523 733 492 719 q 591 747 553 747 q 656 731 629 747 q 699 689 682 715 q 725 629 716 663 q 736 561 733 595 q 736 491 739 526 q 730 430 734 457 l 719 361 q 655 191 702 270 q 535 56 609 113 q 606 36 570 43 q 680 28 642 30 l 675 -8 m 375 370 q 371 282 368 325 q 389 200 374 239 q 431 130 404 162 q 498 73 458 97 q 618 198 572 123 q 682 361 665 273 l 694 432 q 700 483 697 454 q 702 542 703 511 q 696 603 701 572 q 678 656 691 633 q 644 695 665 680 q 591 710 623 709 q 533 698 559 710 q 486 665 507 686 q 449 616 465 644 q 421 560 433 589 q 401 500 410 530 q 389 446 393 471 l 375 370 z "},"Ҵ":{"ha":815,"x_min":140,"x_max":830,"o":"m 335 950 l 140 950 l 146 987 l 339 987 l 339 987 l 372 987 l 372 987 l 591 987 l 585 950 l 369 950 l 210 37 l 632 37 l 797 987 l 830 987 l 665 37 l 728 37 l 680 -238 l 647 -238 l 688 0 l 170 0 l 335 950 z "},"ҵ":{"ha":815,"x_min":102,"x_max":747,"o":"m 290 697 l 102 697 l 108 734 l 518 734 l 513 697 l 326 697 l 211 37 l 591 37 l 711 734 l 747 734 l 627 37 l 680 37 l 635 -218 l 600 -218 l 637 0 l 169 0 l 290 697 z "},"Ҹ":{"ha":815,"x_min":198,"x_max":765,"o":"m 368 272 l 333 272 l 412 734 l 447 734 l 368 272 m 765 987 l 595 0 l 561 0 l 646 487 q 536 458 592 471 q 423 446 481 446 q 310 472 356 447 q 238 538 264 496 q 205 634 212 579 q 208 749 198 689 l 250 987 l 284 987 l 244 749 q 241 649 236 697 q 266 565 245 602 q 326 506 287 528 q 424 483 364 484 q 538 495 481 482 q 649 524 594 508 l 730 987 l 765 987 z "},"ҹ":{"ha":815,"x_min":172,"x_max":760,"o":"m 412 165 l 374 165 l 437 542 l 477 542 l 412 165 m 634 0 l 597 0 l 661 355 q 547 315 606 330 q 427 300 488 300 q 309 317 359 299 q 227 369 258 334 q 183 455 195 404 q 182 575 172 507 l 208 734 l 245 734 l 218 575 q 218 471 209 516 q 254 396 227 427 q 325 350 281 366 q 427 336 368 335 q 548 349 488 338 q 663 387 608 360 l 723 734 l 760 734 l 634 0 z "},"Һ":{"ha":815,"x_min":127,"x_max":694,"o":"m 127 0 l 298 987 l 332 987 l 246 500 q 356 529 301 516 q 469 541 411 542 q 582 516 536 541 q 654 450 628 491 q 687 353 680 408 q 684 238 694 298 l 643 0 l 608 0 l 649 238 q 652 338 657 290 q 627 422 648 386 q 568 481 606 459 q 469 505 529 503 q 355 493 411 506 q 243 464 298 479 l 162 0 l 127 0 z "},"Ҽ":{"ha":815,"x_min":81,"x_max":804,"o":"m 417 -14 q 323 4 363 -14 q 254 50 283 21 q 208 117 226 79 q 182 199 191 156 q 174 289 174 243 q 182 379 174 335 l 208 519 q 141 547 168 528 q 101 595 115 567 q 84 657 87 623 q 86 728 81 691 l 120 728 q 120 671 118 699 q 131 621 121 644 q 159 581 140 597 q 211 556 178 564 l 217 591 q 242 684 226 636 q 281 777 258 732 q 334 863 304 823 q 401 934 363 903 q 484 982 439 964 q 583 1000 530 1000 q 671 985 633 1000 q 734 942 708 969 q 775 879 760 915 q 798 802 791 842 q 803 718 804 761 q 795 635 802 675 l 774 517 l 243 517 l 218 379 q 211 299 212 340 q 215 219 209 258 q 234 144 220 179 q 272 82 248 109 q 332 39 296 55 q 416 23 368 23 q 486 31 452 23 q 552 54 520 39 q 613 86 583 68 q 672 125 644 105 l 688 95 q 627 51 659 71 q 562 17 595 31 q 492 -6 528 2 q 417 -14 456 -14 m 247 555 l 746 555 l 760 635 q 767 707 765 669 q 764 781 768 745 q 747 851 759 818 q 713 909 735 884 q 660 948 692 934 q 583 963 627 963 q 494 947 534 963 q 419 903 453 930 q 359 838 386 875 q 312 760 332 801 q 277 675 292 718 q 254 591 262 631 l 247 555 z "},"ҽ":{"ha":815,"x_min":41,"x_max":745,"o":"m 412 -14 q 326 2 364 -14 q 258 44 287 18 q 209 107 229 71 q 179 183 189 143 q 166 267 168 224 q 172 351 165 310 l 178 381 l 180 393 q 72 452 104 404 q 48 574 41 500 l 84 574 q 101 477 79 515 q 185 429 123 439 q 234 543 203 486 q 307 645 264 600 q 404 719 349 690 q 525 747 458 747 q 633 719 589 747 q 703 646 677 690 q 736 545 728 601 q 736 434 745 489 l 729 391 l 216 391 l 214 381 l 208 351 q 202 277 201 315 q 212 202 203 239 q 236 134 220 166 q 277 77 252 101 q 335 38 302 52 q 412 22 369 23 q 474 30 444 22 q 532 51 505 37 q 585 82 560 64 q 634 123 610 101 l 659 103 q 548 18 610 50 q 412 -14 486 -14 m 525 711 q 451 699 486 711 q 387 667 416 688 q 332 620 357 647 q 286 561 307 592 q 250 495 266 529 q 222 428 233 461 l 696 428 l 699 437 q 704 499 704 467 q 696 562 703 532 q 674 619 688 592 q 639 666 661 646 q 589 698 618 686 q 525 711 561 710 z "},"Ӄ":{"ha":815,"x_min":104,"x_max":825,"o":"m 401 524 l 436 524 q 576 491 519 523 q 667 407 633 460 q 710 285 700 354 q 707 142 720 216 q 670 15 696 77 q 603 -99 644 -48 q 506 -183 562 -150 q 380 -222 450 -216 l 385 -187 q 495 -150 446 -181 q 579 -73 543 -119 q 637 30 614 -26 q 670 142 660 86 q 675 269 682 208 q 639 379 667 331 q 560 458 610 428 q 436 489 510 488 l 224 489 l 140 0 l 104 0 l 275 987 l 310 987 l 231 525 l 355 525 l 777 987 l 825 986 l 401 524 z "},"ӄ":{"ha":815,"x_min":90,"x_max":732,"o":"m 363 394 q 482 367 429 389 q 571 306 535 345 q 623 214 607 268 q 628 92 638 160 q 593 -11 619 36 q 527 -93 566 -57 q 439 -153 488 -128 q 338 -190 391 -177 l 330 -161 q 420 -126 378 -149 q 497 -72 463 -104 q 556 2 532 -39 q 591 92 581 43 q 589 208 605 158 q 535 291 572 258 q 445 342 498 325 q 332 359 391 359 l 329 359 l 328 359 l 189 359 l 127 0 l 90 0 l 216 734 l 253 734 l 195 396 l 312 396 l 675 734 l 732 733 l 363 394 z "},"Ӈ":{"ha":815,"x_min":63,"x_max":777,"o":"m 267 987 l 184 508 l 660 508 l 743 987 l 777 987 l 597 -60 q 577 -139 590 -98 q 541 -216 564 -180 q 486 -274 518 -251 q 408 -296 453 -296 q 375 -292 391 -296 q 345 -282 360 -288 l 358 -248 q 382 -256 370 -252 q 408 -260 395 -260 q 452 -250 433 -260 q 488 -225 472 -241 q 515 -189 503 -210 q 535 -147 527 -169 q 550 -102 544 -125 q 559 -60 555 -80 l 654 471 l 178 471 l 97 0 l 63 0 l 233 987 l 267 987 z "},"ӈ":{"ha":815,"x_min":77,"x_max":716,"o":"m 239 734 l 182 395 l 621 395 l 679 734 l 716 734 l 579 -60 q 553 -147 571 -104 q 507 -222 536 -189 q 440 -276 479 -256 q 352 -296 401 -296 q 314 -292 332 -296 q 277 -282 296 -288 l 291 -248 q 322 -257 307 -254 q 353 -260 337 -260 q 426 -242 394 -260 q 481 -196 458 -224 q 519 -132 505 -168 q 541 -60 534 -96 l 614 359 l 176 359 l 113 0 l 77 0 l 203 734 l 239 734 z "},"Ә":{"ha":815,"x_min":56,"x_max":760,"o":"m 486 1001 q 590 982 545 1000 q 668 931 635 963 q 720 857 700 899 q 750 766 740 814 q 760 666 760 718 q 752 566 760 615 l 732 450 q 706 346 723 399 q 664 241 689 292 q 607 144 640 190 q 532 63 574 98 q 441 7 491 28 q 332 -14 391 -14 q 232 3 276 -14 q 155 50 188 20 q 101 120 123 80 q 69 207 80 161 q 57 302 58 253 q 63 399 56 351 l 79 482 l 701 482 l 715 566 q 724 656 723 610 q 718 747 725 703 q 694 830 710 791 q 650 899 677 869 q 582 946 622 929 q 487 964 541 964 q 412 956 448 964 q 342 933 376 948 q 276 900 309 919 q 213 860 244 881 l 197 890 q 262 936 229 915 q 333 971 296 956 q 407 993 369 985 q 486 1001 446 1001 m 332 23 q 431 42 386 23 q 513 94 476 62 q 579 168 550 125 q 631 256 609 210 q 670 352 654 303 q 696 445 686 400 l 109 445 l 100 396 q 93 310 93 354 q 102 225 94 267 q 129 146 111 183 q 175 82 147 110 q 242 39 203 55 q 332 23 281 23 z "},"Ӡ":{"ha":815,"x_min":93,"x_max":806,"o":"m 759 951 l 231 951 l 237 987 l 806 987 l 801 941 l 419 560 l 441 560 q 556 536 507 559 q 636 473 606 513 q 677 379 667 433 q 677 262 688 325 q 637 151 667 201 q 564 64 608 100 q 465 6 519 27 q 349 -14 410 -14 q 236 8 286 -14 q 155 70 187 31 q 107 161 122 109 q 99 274 93 214 l 137 274 q 142 175 131 221 q 181 96 154 130 q 251 42 208 62 q 348 22 293 22 q 450 40 401 22 q 537 88 498 57 q 603 162 576 119 q 640 259 630 206 q 644 365 651 316 q 611 449 636 413 q 542 506 585 485 q 439 528 499 527 l 371 529 l 376 566 l 759 951 z "},"ӡ":{"ha":815,"x_min":39,"x_max":755,"o":"m 709 696 l 178 696 l 182 734 l 755 734 l 750 688 l 366 306 l 370 306 q 487 283 435 306 q 575 221 540 261 q 624 127 610 182 q 627 7 638 73 q 587 -103 617 -53 q 512 -191 556 -154 q 413 -248 468 -227 q 296 -268 357 -268 q 184 -246 234 -268 q 102 -185 135 -224 q 54 -94 69 -146 q 45 20 39 -41 l 83 20 q 89 -79 77 -33 q 129 -158 101 -124 q 199 -212 156 -192 q 296 -231 241 -231 q 398 -214 350 -231 q 486 -166 447 -197 q 553 -92 526 -136 q 590 5 580 -48 q 590 114 602 64 q 550 198 579 163 q 473 253 520 233 q 367 274 427 273 l 319 275 l 323 312 l 709 696 z "},"Ӻ":{"ha":815,"x_min":-136,"x_max":841,"o":"m 836 951 l 307 951 l 142 0 l 105 0 l 276 987 l 841 987 l 836 951 m 465 532 l 78 532 l 83 568 l 471 568 l 465 532 m 186 66 l 165 -60 q 139 -146 157 -104 q 93 -222 121 -189 q 26 -276 65 -256 q -62 -296 -12 -296 q -99 -292 -81 -296 q -136 -282 -118 -288 l -123 -248 q -92 -257 -107 -254 q -61 -260 -77 -260 q 12 -242 -20 -260 q 67 -196 44 -224 q 105 -132 91 -168 q 127 -60 120 -96 l 150 66 l 186 66 z "},"ӻ":{"ha":815,"x_min":-112,"x_max":797,"o":"m 792 696 l 286 696 l 165 0 l 125 0 l 252 734 l 797 734 l 792 696 m 480 383 l 93 383 l 98 420 l 486 420 l 480 383 m 210 66 l 189 -60 q 163 -146 181 -104 q 117 -222 145 -189 q 51 -276 90 -256 q -37 -296 12 -296 q -75 -292 -56 -296 q -112 -282 -94 -288 l -98 -248 q -68 -257 -83 -254 q -37 -260 -53 -260 q 37 -242 5 -260 q 92 -196 68 -224 q 130 -132 115 -168 q 152 -60 144 -96 l 174 66 l 210 66 z "},"Ԁ":{"ha":815,"x_min":64,"x_max":753,"o":"m 642 548 l 718 987 l 753 987 l 583 0 l 323 0 q 214 21 264 1 q 130 77 164 41 q 80 162 95 113 q 75 274 64 212 q 116 387 85 336 q 192 472 146 437 q 293 527 237 508 q 412 548 350 547 l 642 548 m 553 37 l 635 511 l 412 511 q 309 493 359 510 q 219 446 259 477 q 150 373 178 416 q 111 275 121 330 q 114 178 101 221 q 155 103 126 134 q 228 55 184 73 q 323 37 271 38 l 553 37 z "},"Ԃ":{"ha":815,"x_min":52,"x_max":730,"o":"m 239 0 q 145 26 183 2 q 86 90 108 51 q 58 177 64 128 q 60 274 52 225 q 91 374 69 326 q 146 461 113 422 q 226 523 180 499 q 328 548 271 546 l 498 548 l 574 987 l 607 987 l 442 35 l 507 35 q 577 61 548 38 q 626 116 606 83 q 657 187 646 149 q 676 259 669 225 q 691 382 688 321 q 692 505 693 444 l 722 505 q 727 382 730 444 q 713 259 724 321 q 690 174 705 219 q 650 92 675 130 q 591 28 626 54 q 508 0 555 3 l 239 0 m 409 37 l 492 511 l 328 511 q 241 489 280 509 q 173 435 202 468 q 125 360 144 402 q 98 275 106 319 q 93 193 90 235 q 113 117 96 151 q 160 61 129 83 q 239 37 191 39 l 409 37 z "},"ԃ":{"ha":815,"x_min":62,"x_max":772,"o":"m 78 368 q 93 442 84 401 q 116 525 102 483 q 149 607 130 568 q 194 678 168 647 q 255 728 220 709 q 332 747 289 747 q 382 738 359 747 q 422 712 405 728 q 453 674 440 696 q 474 628 466 652 l 550 1058 l 584 1058 l 443 234 q 437 198 440 219 q 432 153 434 176 q 432 107 431 130 q 441 65 434 84 q 463 35 448 47 q 500 23 477 24 q 566 39 537 22 q 617 84 595 56 q 655 149 639 113 q 683 223 671 185 q 702 296 694 260 q 715 359 710 332 q 729 495 727 427 q 732 631 730 563 l 765 632 q 768 495 772 564 q 751 359 764 427 q 737 286 746 326 q 714 204 728 245 q 682 123 701 163 q 637 54 663 84 q 577 4 611 23 q 501 -14 544 -14 q 454 -3 473 -14 q 423 27 435 9 q 406 69 412 45 q 400 116 401 92 q 363 67 384 91 q 319 26 343 44 q 266 -3 294 8 q 206 -14 238 -14 q 134 5 162 -14 q 90 56 106 24 q 68 127 74 87 q 62 208 62 167 q 67 287 62 248 q 76 353 71 325 l 78 368 m 458 532 q 453 592 460 561 q 431 650 446 624 q 390 694 415 677 q 332 711 366 711 q 265 693 294 711 q 214 647 236 675 q 175 581 191 618 q 148 507 159 545 q 129 432 136 469 q 116 368 121 395 l 113 353 q 104 297 109 330 q 97 228 100 264 q 98 155 95 191 q 112 89 100 118 q 146 41 123 60 q 205 22 168 23 q 269 37 237 22 q 326 74 300 51 q 372 126 353 97 q 399 186 391 156 q 404 210 403 197 q 406 234 404 222 l 458 532 z "},"Ԅ":{"ha":815,"x_min":133,"x_max":772,"o":"m 372 265 q 377 339 378 301 q 364 409 376 377 q 326 461 352 440 q 255 485 300 482 l 156 485 l 161 522 l 261 522 q 351 542 311 524 q 421 591 391 560 q 472 663 452 622 q 500 750 492 703 q 499 834 509 798 q 465 897 489 871 q 403 936 440 922 q 321 951 366 949 l 133 951 l 138 987 l 320 987 q 417 969 373 986 q 490 922 460 953 q 532 847 519 891 q 536 749 545 804 q 513 666 529 708 q 471 588 496 624 q 410 527 445 553 q 333 492 376 500 q 382 451 365 476 q 407 395 400 425 q 413 331 414 364 q 408 267 412 298 l 397 206 q 392 151 393 182 q 397 91 391 119 q 422 43 404 63 q 473 22 439 23 q 543 38 511 22 q 599 82 574 54 q 644 145 624 110 q 678 219 663 181 q 702 293 692 256 q 718 359 712 330 q 731 495 731 427 q 729 632 731 564 l 764 632 q 769 495 772 564 q 753 359 766 427 q 736 282 747 323 q 709 200 725 241 q 670 120 692 159 q 618 52 648 81 q 553 4 589 22 q 473 -14 517 -14 q 404 7 429 -15 q 368 62 379 29 q 356 134 357 95 q 361 206 356 173 l 372 265 z "},"ԅ":{"ha":815,"x_min":98,"x_max":740,"o":"m 466 532 q 446 472 460 497 q 410 428 431 447 q 362 393 389 408 q 308 363 336 378 q 384 301 361 343 q 396 204 406 260 l 383 145 q 382 99 380 121 q 395 60 385 77 q 423 33 406 43 q 469 22 441 22 q 557 47 519 22 q 623 111 595 72 q 668 196 650 149 q 693 284 685 242 q 702 393 705 339 q 686 501 699 448 l 726 501 q 737 393 734 447 q 730 284 740 338 q 701 182 721 235 q 648 86 680 130 q 571 15 616 43 q 469 -14 526 -14 q 408 -2 433 -15 q 369 32 383 10 q 350 83 354 54 q 350 145 345 113 l 361 203 q 357 265 366 239 q 330 309 349 292 q 284 336 311 327 q 223 347 256 346 l 98 347 l 101 382 l 231 382 q 298 394 265 383 q 357 423 330 404 q 403 470 384 442 q 429 532 422 497 q 426 601 436 570 q 392 653 415 632 q 336 687 369 675 q 269 700 304 699 l 112 700 l 113 734 l 268 734 q 351 719 311 732 q 419 680 391 705 q 460 616 447 654 q 466 532 474 579 z "},"Ԇ":{"ha":815,"x_min":203,"x_max":686,"o":"m 203 463 l 208 500 l 315 500 q 421 514 368 500 q 519 555 474 528 q 595 624 564 582 q 638 722 627 665 q 634 823 649 781 q 585 894 618 866 q 504 936 551 922 q 406 950 457 949 l 214 950 l 218 987 l 405 987 q 518 969 465 985 q 611 920 572 953 q 668 838 650 887 q 675 722 686 789 q 646 636 667 675 q 592 566 624 597 q 519 513 559 535 q 435 481 479 492 q 564 401 522 460 q 593 252 606 342 l 577 159 q 574 85 571 120 q 600 16 578 50 l 597 -1 l 562 -1 q 538 78 543 38 q 541 160 534 117 l 557 250 q 551 343 565 303 q 507 409 536 382 q 434 448 477 435 q 342 463 391 462 l 203 463 m 612 -62 q 510 -254 591 -173 l 487 -231 q 542 -153 519 -193 q 574 -64 565 -113 l 590 27 l 627 27 l 612 -62 z "},"ԇ":{"ha":815,"x_min":218,"x_max":670,"o":"m 222 335 l 225 372 l 378 372 q 459 381 418 372 q 534 408 500 389 q 592 457 568 427 q 625 533 616 488 q 620 610 633 578 q 580 660 607 641 q 516 687 553 679 q 441 696 479 696 l 218 696 l 226 734 l 440 734 q 529 721 486 733 q 605 685 573 709 q 654 623 637 661 q 661 532 670 585 q 642 470 656 498 q 606 417 627 441 q 557 377 585 394 q 498 349 530 359 q 582 288 556 330 q 599 184 607 245 l 587 117 q 581 65 583 91 q 583 14 578 40 l 581 0 l 542 0 q 543 59 540 31 q 551 117 546 87 l 563 182 q 557 250 568 222 q 523 297 545 279 q 468 325 500 315 q 401 335 436 334 l 222 335 m 598 -66 q 496 -258 578 -177 l 473 -235 q 529 -157 506 -197 q 561 -68 551 -117 l 576 23 l 613 23 l 598 -66 z "},"Ԉ":{"ha":815,"x_min":-51,"x_max":787,"o":"m 568 951 l 306 951 l 233 521 q 220 431 227 483 q 202 321 213 378 q 174 208 191 264 q 131 106 157 152 q 67 32 104 61 q -23 0 29 3 l -51 0 l -46 37 l -25 37 q 53 67 20 39 q 108 138 85 95 q 145 234 131 181 q 170 340 160 288 q 185 441 179 393 q 196 521 191 488 l 279 987 l 607 987 l 478 234 q 472 200 475 220 q 466 156 469 179 q 465 109 464 132 q 471 66 465 85 q 490 36 477 47 q 526 23 503 24 q 589 39 562 22 q 636 86 616 57 q 672 152 657 115 q 697 226 687 189 q 715 299 708 264 q 726 359 722 334 q 740 495 738 427 q 746 631 743 563 l 779 632 q 781 495 787 563 q 763 359 775 427 q 749 288 757 328 q 728 207 741 248 q 698 126 715 165 q 656 55 681 86 q 600 5 632 24 q 526 -14 568 -14 q 477 -1 496 -14 q 448 33 458 12 q 435 81 438 54 q 432 135 431 108 q 436 189 433 163 q 442 234 439 215 l 568 951 z "},"ԉ":{"ha":815,"x_min":-31,"x_max":747,"o":"m 523 734 l 437 234 q 431 199 435 220 q 426 154 428 178 q 425 108 424 131 q 433 66 427 85 q 454 36 440 47 q 491 23 467 24 q 550 35 524 22 q 597 71 576 48 q 634 123 618 94 q 661 183 650 152 q 681 245 673 215 q 693 301 688 276 q 706 430 705 366 q 707 559 707 494 l 739 560 q 744 430 747 495 q 730 301 742 366 q 716 235 725 271 q 693 164 707 199 q 660 97 679 130 q 617 40 642 65 q 561 1 592 16 q 491 -14 530 -14 q 441 -1 460 -14 q 411 33 422 12 q 395 80 399 54 q 392 134 391 106 q 395 188 392 161 q 401 234 398 214 l 483 696 l 253 696 l 207 422 q 196 350 201 392 q 181 261 191 307 q 159 170 172 215 q 124 87 145 124 q 73 27 103 51 q 1 0 43 3 l -31 0 l -26 36 l -3 36 q 57 61 32 39 q 100 118 83 83 q 130 195 118 153 q 149 279 141 237 q 161 359 157 321 q 170 422 166 397 l 226 734 l 523 734 z "},"Ԋ":{"ha":815,"x_min":47,"x_max":765,"o":"m 594 987 l 466 234 q 460 200 464 221 q 454 157 456 180 q 452 110 452 134 q 457 67 452 86 q 476 36 463 48 q 511 23 488 24 q 571 39 545 22 q 618 86 598 57 q 652 153 638 116 q 677 228 667 190 q 693 300 687 265 q 705 359 700 334 q 719 495 716 427 q 725 631 722 563 l 757 632 q 759 495 765 563 q 741 359 753 427 q 727 290 735 329 q 708 209 720 250 q 679 127 696 167 q 638 56 662 87 q 583 5 614 24 q 511 -14 551 -14 q 463 -1 481 -14 q 434 33 444 12 q 421 81 425 54 q 419 136 418 109 q 423 190 420 164 q 429 234 427 215 l 471 470 l 160 470 l 79 0 l 47 0 l 217 987 l 249 987 l 166 507 l 477 507 l 562 987 l 594 987 z "},"ԋ":{"ha":815,"x_min":33,"x_max":738,"o":"m 420 352 l 127 352 l 66 0 l 33 0 l 160 734 l 193 734 l 134 388 l 426 388 l 487 734 l 520 734 l 436 234 q 430 199 434 220 q 424 155 427 178 q 422 109 422 132 q 430 67 423 85 q 449 36 436 48 q 486 23 463 24 q 544 35 518 22 q 590 71 570 48 q 626 123 610 94 q 652 184 642 153 q 671 246 663 216 q 683 301 678 277 q 696 430 695 366 q 696 559 696 494 l 730 560 q 735 430 738 495 q 720 301 732 366 q 706 236 715 271 q 683 166 696 201 q 652 98 670 131 q 610 41 634 66 q 554 1 585 16 q 486 -14 524 -14 q 436 -1 455 -14 q 407 33 417 12 q 392 81 396 54 q 389 135 389 108 q 393 189 390 163 q 399 234 396 214 l 420 352 z "},"Ԍ":{"ha":815,"x_min":109,"x_max":742,"o":"m 380 -14 q 281 4 324 -14 q 206 53 237 22 q 154 125 174 84 q 122 214 133 167 q 110 309 111 260 q 117 405 109 358 l 147 583 q 174 683 156 633 q 218 780 192 733 q 278 866 243 826 q 354 936 312 906 q 444 983 395 966 q 549 1002 493 1001 q 742 957 652 1004 l 723 920 q 639 954 682 941 q 549 965 596 966 q 454 948 498 964 q 372 905 410 932 q 303 841 334 878 q 249 762 273 804 q 209 674 225 720 q 184 584 192 629 l 153 405 q 146 319 146 363 q 154 232 146 275 q 179 152 162 190 q 224 84 197 113 q 290 39 252 56 q 380 22 329 22 q 488 43 437 22 q 577 101 538 64 q 642 185 616 137 q 680 288 669 233 q 693 410 692 349 q 692 533 694 471 l 729 533 q 730 410 732 471 q 717 288 728 349 q 675 172 705 227 q 602 76 646 117 q 501 10 557 35 q 380 -14 445 -14 z "},"ԍ":{"ha":815,"x_min":103,"x_max":687,"o":"m 377 22 q 464 34 421 22 q 543 67 507 45 q 605 124 579 90 q 642 204 631 158 q 651 284 650 243 q 649 364 652 324 l 686 364 q 687 284 687 324 q 679 204 687 243 q 640 110 669 151 q 569 41 610 68 q 478 0 528 14 q 377 -14 429 -14 q 247 18 302 -14 q 159 102 193 50 q 115 219 126 154 q 113 353 103 285 l 118 381 q 162 515 131 450 q 241 631 193 581 q 351 714 288 682 q 488 747 413 745 q 583 741 536 749 q 671 707 629 733 l 650 675 q 571 704 612 696 q 488 711 530 712 q 364 681 420 709 q 266 606 308 652 q 195 502 223 560 q 155 381 168 443 l 150 353 q 145 273 144 313 q 157 197 147 233 q 186 128 168 160 q 232 73 205 96 q 296 36 260 50 q 377 22 332 22 z "},"Ԏ":{"ha":815,"x_min":167,"x_max":808,"o":"m 467 951 l 167 951 l 172 987 l 808 987 l 803 951 l 504 951 l 380 234 q 372 171 375 207 q 376 102 370 134 q 401 46 382 69 q 461 22 421 23 q 533 38 501 22 q 591 81 566 54 q 636 143 617 108 q 670 215 656 178 q 694 290 684 253 q 709 359 703 328 q 723 495 722 427 q 720 631 723 563 l 754 632 q 760 495 762 564 q 747 359 759 427 q 729 280 740 322 q 701 197 718 238 q 663 117 685 155 q 611 50 640 79 q 544 3 581 21 q 461 -14 507 -14 q 406 -3 429 -14 q 369 28 383 9 q 348 74 355 48 q 338 127 340 99 q 337 182 336 155 q 342 234 339 210 l 467 951 z "},"ԏ":{"ha":815,"x_min":113,"x_max":720,"o":"m 366 698 l 113 698 l 117 734 l 675 734 l 670 698 l 404 698 l 323 234 q 318 190 319 214 q 317 143 316 166 q 325 98 319 119 q 342 59 330 76 q 374 33 355 43 q 421 22 393 22 q 489 34 458 22 q 546 67 520 46 q 592 116 572 88 q 629 175 613 144 q 655 239 644 206 q 671 303 665 272 q 683 433 684 368 q 674 563 681 498 l 711 564 q 719 433 718 498 q 709 303 720 368 q 690 229 702 267 q 660 156 677 191 q 618 90 642 121 q 565 36 594 59 q 499 -1 535 13 q 421 -14 463 -14 q 341 9 370 -14 q 297 70 311 33 q 281 151 283 107 q 286 234 280 195 l 366 698 z "},"Ԑ":{"ha":815,"x_min":50,"x_max":789,"o":"m 58 262 q 89 353 66 313 q 145 423 111 393 q 221 473 179 453 q 312 505 264 494 q 241 539 273 518 q 187 590 209 561 q 156 655 165 618 q 153 734 146 691 q 198 851 163 800 q 283 935 233 901 q 394 985 334 968 q 517 1002 455 1002 q 628 981 576 1001 q 716 926 680 962 q 771 841 753 890 q 782 729 789 791 l 747 729 q 736 827 751 783 q 690 901 721 871 q 615 948 659 932 q 518 965 571 965 q 409 951 463 965 q 310 909 355 938 q 233 838 265 881 q 190 737 201 795 q 197 637 178 677 q 253 571 216 596 q 339 535 290 546 q 437 523 388 524 l 551 523 l 546 485 l 437 485 q 324 472 380 484 q 220 434 267 460 q 139 365 173 408 q 94 259 106 322 q 101 154 83 198 q 156 80 119 109 q 244 37 193 51 q 348 23 295 22 q 460 42 407 24 q 556 92 513 60 q 631 171 600 125 q 679 273 663 216 l 714 273 q 667 155 701 208 q 584 65 633 102 q 475 7 535 28 q 349 -14 414 -14 q 269 -6 309 -14 q 195 18 230 2 q 132 57 160 33 q 84 111 103 80 q 58 179 66 141 q 58 262 50 217 z "}," ":{"ha":815,"x_min":0,"x_max":0,"o":""}," ":{"ha":815,"x_min":0,"x_max":0,"o":""}," ":{"ha":815,"x_min":0,"x_max":0,"o":""}," ":{"ha":815,"x_min":0,"x_max":0,"o":""}," ":{"ha":815,"x_min":0,"x_max":0,"o":""}," ":{"ha":815,"x_min":0,"x_max":0,"o":""}," ":{"ha":815,"x_min":0,"x_max":0,"o":""}," ":{"ha":815,"x_min":0,"x_max":0,"o":""}," ":{"ha":815,"x_min":0,"x_max":0,"o":""}," ":{"ha":815,"x_min":0,"x_max":0,"o":""}," ":{"ha":815,"x_min":0,"x_max":0,"o":""},"​":{"ha":815,"x_min":0,"x_max":0,"o":""},"–":{"ha":815,"x_min":71,"x_max":794,"o":"m 787 489 l 72 489 l 79 526 l 794 526 l 787 489 z "},"—":{"ha":815,"x_min":77,"x_max":800,"o":"m 794 489 l 78 489 l 85 526 l 800 526 l 794 489 z "},"‗":{"ha":815,"x_min":29,"x_max":621,"o":"m 587 -210 l 29 -210 l 34 -173 l 591 -173 l 587 -210 m 616 -37 l 59 -37 l 64 0 l 621 0 l 616 -37 z "},"‘":{"ha":815,"x_min":437,"x_max":572,"o":"m 448 863 q 549 1054 469 972 l 572 1031 q 517 953 540 994 q 486 864 495 912 l 473 792 l 437 792 l 448 863 z "},"’":{"ha":815,"x_min":414,"x_max":549,"o":"m 538 972 q 437 781 517 860 l 414 804 q 469 881 446 840 q 500 970 491 922 l 513 1042 l 549 1042 l 538 972 z "},"‚":{"ha":815,"x_min":245,"x_max":385,"o":"m 370 68 q 334 -36 360 12 q 269 -123 309 -83 l 245 -100 q 301 -23 278 -63 q 333 66 323 18 l 349 155 l 385 155 l 370 68 z "},"‛":{"ha":815,"x_min":237,"x_max":372,"o":"m 248 972 q 349 781 269 860 l 372 804 q 317 881 340 840 q 286 970 295 922 l 273 1042 l 237 1042 l 248 972 z "},"“":{"ha":815,"x_min":330,"x_max":661,"o":"m 342 863 q 442 1054 362 972 l 465 1031 q 411 953 433 994 q 379 864 389 912 l 367 792 l 330 792 l 342 863 m 537 863 q 637 1054 557 972 l 661 1031 q 606 953 629 994 q 574 864 584 912 l 562 792 l 526 792 l 537 863 z "},"”":{"ha":815,"x_min":351,"x_max":677,"o":"m 476 972 q 374 781 454 860 l 351 804 q 406 881 384 840 q 438 970 429 922 l 451 1042 l 487 1042 l 476 972 m 666 972 q 564 781 644 860 l 541 804 q 596 881 574 840 q 628 970 618 922 l 641 1042 l 677 1042 l 666 972 z "},"„":{"ha":815,"x_min":165,"x_max":440,"o":"m 289 68 q 253 -35 279 12 q 188 -123 228 -83 l 165 -100 q 219 -22 197 -63 q 252 66 242 18 l 267 155 l 303 155 l 289 68 m 426 68 q 324 -123 406 -43 l 302 -100 q 356 -22 334 -63 q 388 66 378 18 l 404 155 l 440 155 l 426 68 z "},"†":{"ha":815,"x_min":123,"x_max":781,"o":"m 776 694 l 472 694 l 363 0 l 328 0 l 435 694 l 123 694 l 128 734 l 441 734 l 481 987 l 517 987 l 478 734 l 781 734 l 776 694 z "},"‡":{"ha":815,"x_min":22,"x_max":787,"o":"m 674 0 l 357 0 l 313 -282 l 276 -282 l 319 0 l 22 0 l 26 37 l 325 37 l 429 696 l 131 696 l 136 734 l 434 734 l 473 987 l 511 987 l 471 734 l 787 734 l 783 696 l 466 696 l 363 37 l 678 37 l 674 0 z "},"•":{"ha":815,"x_min":304,"x_max":532,"o":"m 309 497 q 326 539 314 519 q 353 574 337 559 q 390 597 370 589 q 435 606 411 606 q 476 597 458 606 q 508 574 495 589 q 527 539 521 559 q 530 497 532 519 l 527 477 q 511 435 522 454 q 483 401 499 415 q 445 378 466 387 q 401 370 425 370 q 359 378 377 370 q 328 400 340 386 q 310 435 315 415 q 306 477 304 454 l 309 497 z "},"‥":{"ha":815,"x_min":462,"x_max":836,"o":"m 465 37 q 470 51 465 43 q 480 63 474 58 q 494 73 486 69 q 509 76 501 76 q 524 72 517 76 q 535 62 530 68 q 542 49 540 56 q 543 34 545 41 q 527 8 541 20 q 498 -4 513 -4 q 472 9 482 -3 q 465 37 462 22 m 755 37 q 761 51 756 43 q 771 63 765 58 q 785 73 777 69 q 800 76 792 76 q 814 72 808 76 q 826 62 821 68 q 833 49 831 56 q 834 34 836 41 q 818 8 831 20 q 789 -4 804 -4 q 763 9 773 -3 q 755 37 753 22 z "},"…":{"ha":815,"x_min":100,"x_max":617,"o":"m 103 37 q 108 51 104 43 q 119 63 113 58 q 132 73 125 69 q 147 76 140 76 q 162 72 155 76 q 174 62 169 68 q 181 49 178 56 q 182 34 183 41 q 165 8 179 20 q 136 -4 151 -4 q 111 9 121 -3 q 103 37 100 22 m 323 37 q 328 51 323 43 q 338 63 332 58 q 352 73 345 69 q 367 76 359 76 q 382 72 375 76 q 393 62 389 68 q 400 49 398 56 q 401 34 403 41 q 385 8 399 20 q 356 -4 371 -4 q 330 9 340 -3 q 323 37 320 22 m 537 37 q 542 51 538 43 q 553 63 547 58 q 566 73 559 69 q 581 76 574 76 q 596 72 589 76 q 608 62 603 68 q 615 49 612 56 q 616 34 617 41 q 599 8 613 20 q 570 -4 585 -4 q 545 9 555 -3 q 537 37 534 22 z "},"‰":{"ha":815,"x_min":85,"x_max":754,"o":"m 309 256 q 325 317 314 284 q 353 378 336 350 q 397 426 371 407 q 457 446 422 446 q 492 438 477 446 q 517 419 507 431 q 533 390 527 406 q 543 355 539 373 q 564 388 552 372 q 590 417 576 404 q 623 438 605 430 q 661 446 640 446 q 717 426 697 446 q 746 376 737 406 q 754 314 754 347 q 750 256 754 281 l 736 176 q 721 114 731 147 q 692 52 710 81 q 649 5 675 24 q 589 -14 624 -14 q 553 -7 568 -14 q 527 13 538 0 q 510 41 517 25 q 500 76 503 58 q 479 43 490 59 q 454 14 468 27 q 423 -6 440 1 q 385 -14 406 -14 q 329 6 349 -14 q 300 55 309 26 q 292 117 292 84 q 296 176 292 150 l 309 256 m 109 811 q 125 873 114 840 q 153 935 136 906 q 197 982 171 963 q 257 1002 222 1002 q 313 982 293 1002 q 341 932 333 962 q 350 870 350 903 q 346 811 350 837 l 332 732 q 316 670 327 703 q 288 609 306 637 q 245 562 271 581 q 184 543 220 543 q 129 562 149 543 q 100 611 109 582 q 92 673 92 640 q 96 732 92 706 l 109 811 m 332 176 q 327 132 329 158 q 328 82 324 106 q 345 41 332 58 q 385 24 357 24 q 431 39 412 24 q 463 78 450 55 q 484 128 476 102 q 495 176 491 155 l 510 256 q 515 300 513 274 q 514 350 518 326 q 498 391 511 374 q 457 408 485 408 q 410 392 429 408 q 378 353 391 376 q 358 303 366 330 q 347 256 351 277 l 332 176 m 532 176 q 527 132 529 158 q 528 82 524 106 q 545 41 532 58 q 585 24 557 24 q 631 39 612 24 q 663 78 650 55 q 684 128 676 102 q 695 176 691 155 l 710 256 q 715 299 713 273 q 714 350 718 326 q 698 391 711 374 q 657 408 685 408 q 611 392 630 408 q 578 353 591 376 q 558 303 566 330 q 547 256 551 277 l 532 176 m 132 732 q 126 688 129 714 q 128 638 124 663 q 145 597 132 614 q 185 581 158 581 q 231 596 212 581 q 262 635 250 612 q 283 685 275 659 q 295 732 291 711 l 309 811 q 315 855 312 829 q 314 905 317 881 q 297 946 310 929 q 257 964 284 964 q 211 948 230 964 q 179 908 192 932 q 158 859 165 885 q 146 811 150 832 l 132 732 m 115 90 l 85 104 l 515 874 l 545 859 l 115 90 z "},"‹":{"ha":815,"x_min":278,"x_max":565,"o":"m 326 377 l 476 122 l 431 122 l 278 374 l 280 387 l 516 637 l 565 636 l 326 377 z "},"›":{"ha":815,"x_min":234,"x_max":520,"o":"m 369 638 l 520 380 l 519 367 l 283 117 l 234 117 l 472 376 l 324 638 l 369 638 z "},"⁄":{"ha":815,"x_min":157,"x_max":673,"o":"m 189 90 l 157 111 l 640 881 l 673 859 l 189 90 z "},"⁴":{"ha":815,"x_min":224,"x_max":719,"o":"m 603 625 l 719 625 l 714 592 l 597 592 l 573 454 l 535 454 l 559 592 l 224 593 l 227 614 l 619 988 l 664 989 l 603 625 m 281 625 l 564 625 l 621 949 l 574 897 l 281 625 z "},"ⁿ":{"ha":815,"x_min":233,"x_max":704,"o":"m 357 987 l 342 876 q 426 960 377 926 q 538 994 474 993 q 617 978 585 995 q 670 933 650 962 q 697 867 690 905 q 698 786 704 829 l 639 441 l 603 441 l 663 790 q 664 856 669 825 q 645 910 660 886 q 604 947 630 933 q 539 961 578 961 q 472 948 505 961 q 412 914 439 935 q 364 864 385 892 q 333 802 343 835 l 271 441 l 233 441 l 327 987 l 357 987 z "},"₤":{"ha":815,"x_min":26,"x_max":777,"o":"m 496 328 l 259 328 l 245 228 q 219 125 237 174 q 165 36 202 77 l 664 37 l 660 0 l 26 0 l 32 37 l 109 37 q 151 73 134 51 q 179 120 168 94 q 197 173 191 145 q 208 228 204 201 l 222 328 l 85 328 l 90 366 l 228 366 l 248 502 l 115 502 l 121 540 l 253 540 l 277 705 q 309 813 286 760 q 369 908 332 866 q 455 975 406 949 q 566 1001 505 1001 q 664 980 623 1001 q 731 922 705 958 q 767 839 757 886 q 770 739 777 791 l 734 739 q 732 824 739 783 q 705 896 726 865 q 650 946 685 928 q 566 964 616 964 q 470 941 513 964 q 395 882 427 919 q 342 799 363 846 q 314 705 322 753 l 290 540 l 532 540 l 526 502 l 284 502 l 264 366 l 501 366 l 496 328 z "},"₧":{"ha":815,"x_min":39,"x_max":825,"o":"m 821 696 l 693 696 l 604 176 q 597 131 600 156 q 597 82 594 105 q 614 42 601 58 q 655 24 627 25 q 685 25 670 22 q 715 29 701 27 l 715 -5 q 686 -12 701 -9 q 655 -14 671 -14 q 596 6 616 -13 q 568 53 576 25 q 562 114 560 81 q 567 176 563 147 l 658 696 l 572 696 q 535 590 560 641 q 474 499 511 538 q 388 436 437 460 q 277 410 338 412 l 144 410 l 73 0 l 39 0 l 210 987 l 370 987 q 464 965 424 986 q 530 909 505 944 q 567 830 556 875 q 574 734 578 785 l 664 734 l 699 932 l 733 932 l 700 734 l 825 734 l 821 696 m 150 447 l 277 447 q 372 470 329 449 q 448 526 415 491 q 503 605 481 560 q 534 698 524 649 q 537 788 542 743 q 513 868 532 833 q 458 926 494 904 q 371 951 423 949 l 237 951 l 150 447 z "},"€":{"ha":815,"x_min":76,"x_max":806,"o":"m 545 396 l 248 396 l 241 362 q 239 233 229 294 q 281 125 250 172 q 367 50 313 78 q 493 22 420 22 q 569 29 532 22 q 644 45 606 35 l 638 7 q 566 -8 602 -3 q 493 -14 530 -14 q 353 17 412 -14 q 256 99 293 47 q 205 219 218 151 q 205 362 192 287 l 211 396 l 76 396 l 81 433 l 216 433 l 238 563 l 105 563 l 111 601 l 243 601 l 248 625 q 299 771 263 703 q 388 890 334 839 q 510 971 441 941 q 661 1001 578 1001 q 734 995 698 1001 q 806 980 770 989 l 800 941 q 732 958 766 951 q 661 964 697 964 q 524 938 586 964 q 413 866 461 911 q 332 758 365 820 q 285 627 300 696 l 280 601 l 579 601 l 574 563 l 275 563 l 252 433 l 550 433 l 545 396 z "},"℅":{"ha":815,"x_min":96,"x_max":752,"o":"m 389 687 q 368 632 382 658 q 332 586 353 606 q 284 554 311 566 q 226 543 257 543 q 160 562 186 543 q 120 612 134 582 q 101 677 105 642 q 100 745 96 713 l 109 798 q 131 867 115 831 q 171 933 146 903 q 227 982 195 963 q 297 1002 258 1001 q 356 988 332 1002 q 394 952 380 975 q 413 900 408 929 q 416 842 418 871 l 381 842 q 379 886 382 864 q 368 926 377 908 q 342 954 359 943 q 298 964 325 964 q 241 948 266 964 q 197 907 216 932 q 165 854 178 883 q 147 798 153 825 l 138 745 q 135 692 134 721 q 146 639 137 664 q 175 597 156 614 q 225 581 194 581 q 270 589 250 581 q 306 613 290 598 q 333 647 321 627 q 353 687 345 666 l 389 687 m 437 242 q 459 313 444 277 q 498 378 474 349 q 553 427 522 408 q 625 446 585 446 q 691 426 665 446 q 731 376 717 406 q 748 310 745 346 q 747 242 752 275 l 739 189 q 717 119 732 155 q 679 53 702 83 q 623 5 655 24 q 552 -14 591 -14 q 486 5 512 -14 q 446 55 460 25 q 428 121 431 85 q 429 189 424 157 l 437 242 m 465 189 q 461 136 460 165 q 472 82 463 106 q 500 40 481 57 q 552 23 519 23 q 610 39 585 23 q 653 79 635 54 q 684 132 672 103 q 702 189 696 161 l 711 242 q 715 296 715 267 q 705 350 714 326 q 677 392 696 375 q 625 408 658 408 q 567 393 592 408 q 523 353 541 377 q 492 299 504 329 q 474 242 480 270 l 465 189 m 186 90 l 154 111 l 637 881 l 670 859 l 186 90 z "},"ℓ":{"ha":815,"x_min":153,"x_max":719,"o":"m 512 -14 q 413 20 451 -9 q 357 92 376 49 q 337 188 339 136 q 343 292 334 241 l 354 347 q 153 301 258 305 l 158 337 q 260 352 211 339 q 357 386 309 364 l 427 785 q 438 838 431 810 q 456 896 446 867 q 481 951 467 924 q 515 998 496 977 q 559 1030 534 1018 q 615 1042 584 1042 q 661 1032 642 1042 q 691 1004 680 1021 q 709 964 703 986 q 717 918 715 941 q 718 870 719 894 q 713 828 716 847 l 710 806 q 670 672 698 736 q 601 550 642 607 q 508 447 560 494 q 393 366 455 399 l 379 292 q 372 232 374 262 q 374 173 370 201 q 387 118 377 144 q 413 72 396 92 q 456 39 430 52 q 517 22 481 26 l 512 -14 m 396 407 q 495 483 450 440 q 576 577 541 526 q 636 685 612 628 q 673 805 661 743 l 677 828 q 684 879 681 849 q 682 937 687 909 q 663 985 677 965 q 615 1006 648 1005 q 569 996 589 1006 q 533 967 549 985 q 506 926 517 949 q 487 878 495 903 q 473 829 479 853 q 465 785 468 805 l 396 407 z "},"№":{"ha":815,"x_min":24,"x_max":812,"o":"m 365 0 l 336 0 l 209 904 l 56 0 l 24 0 l 194 987 l 223 987 l 351 91 l 504 987 l 535 987 l 365 0 m 565 771 q 574 816 568 791 q 589 866 580 840 q 609 915 597 891 q 637 957 621 939 q 674 987 654 975 q 721 998 695 998 q 765 986 748 998 q 793 955 783 975 q 808 911 804 936 q 812 862 812 887 q 810 812 812 836 q 805 771 808 789 l 791 692 q 782 647 788 671 q 768 597 777 623 q 748 549 760 572 q 720 506 736 525 q 683 476 703 488 q 636 465 662 465 q 592 477 609 465 q 564 508 574 489 q 549 552 553 527 q 545 602 545 576 q 546 650 544 627 q 551 692 549 674 l 565 771 m 587 692 q 582 661 585 680 q 578 621 579 642 q 577 579 576 600 q 585 541 578 557 q 603 513 591 524 q 635 502 615 502 q 672 512 656 502 q 701 537 688 522 q 722 574 713 553 q 738 615 731 594 q 748 656 744 637 q 755 692 753 676 l 769 771 q 774 802 771 783 q 779 842 777 821 q 779 884 780 863 q 772 922 778 905 q 753 950 766 939 q 721 962 741 961 q 669 941 690 962 q 635 889 648 920 q 613 826 621 859 q 602 771 606 793 l 587 692 m 723 307 l 498 307 l 503 344 l 728 344 l 723 307 z "},"™":{"ha":815,"x_min":163,"x_max":809,"o":"m 760 913 l 604 623 l 569 623 l 514 929 l 461 623 l 424 623 l 486 987 l 531 987 l 593 678 l 762 987 l 809 987 l 747 623 l 710 623 l 760 913 m 425 949 l 312 949 l 256 623 l 218 623 l 274 949 l 163 949 l 169 987 l 430 987 l 425 949 z "},"℮":{"ha":815,"x_min":85,"x_max":777,"o":"m 631 64 q 508 8 572 31 q 376 -14 444 -14 q 283 2 326 -14 q 207 45 241 18 q 148 108 173 72 q 108 186 123 144 q 90 275 94 229 q 93 367 85 321 q 120 460 100 414 q 169 549 140 507 q 234 628 197 591 q 314 690 271 664 q 404 732 357 717 q 501 747 452 747 q 629 715 575 747 q 718 630 684 682 q 765 512 752 577 q 768 380 777 446 l 763 349 l 257 349 l 216 125 q 291 72 250 91 q 380 52 332 53 q 449 57 415 51 q 515 75 483 64 q 578 102 547 87 q 640 134 610 117 l 631 64 m 497 684 q 443 677 469 684 q 393 659 417 670 q 345 632 368 647 q 301 601 322 617 l 267 413 l 621 413 l 657 608 q 585 663 625 642 q 497 684 545 684 z "}}}
